<mxfile host="65bd71144e" modified="2020-11-02T10:53:45.198Z" agent="5.0 (Windows NT 10.0; Win64; x64) AppleWebKit/537.36 (KHTML, like Gecko) Code/1.50.1 Chrome/83.0.4103.122 Electron/9.2.1 Safari/537.36" etag="LRau5kCfL2QHT97PB2xg" version="13.6.5">
    <diagram id="N6wJO6u-IIJIjIo1w3F4" name="ページ1">
        <mxGraphModel dx="1670" dy="1152" grid="1" gridSize="10" guides="1" tooltips="1" connect="1" arrows="1" fold="1" page="1" pageScale="1" pageWidth="1654" pageHeight="1169" background="#ffffff" math="0" shadow="0">
            <root>
                <mxCell id="0"/>
                <mxCell id="1" parent="0"/>
                <mxCell id="61" value="" style="rounded=1;whiteSpace=wrap;html=1;" vertex="1" parent="1">
                    <mxGeometry x="250" y="370" width="960" height="780" as="geometry"/>
                </mxCell>
                <mxCell id="38" value="" style="rounded=1;whiteSpace=wrap;html=1;" vertex="1" parent="1">
                    <mxGeometry x="711.25" y="760" width="347.5" height="230" as="geometry"/>
                </mxCell>
                <mxCell id="21" value="" style="rounded=1;whiteSpace=wrap;html=1;" vertex="1" parent="1">
                    <mxGeometry x="290" y="445" width="650" height="285" as="geometry"/>
                </mxCell>
                <mxCell id="2" value="" style="shape=image;verticalLabelPosition=bottom;labelBackgroundColor=#ffffff;verticalAlign=top;aspect=fixed;imageAspect=0;image=data:image/png,iVBORw0KGgoAAAANSUhEUgAAAPoAAACJCAYAAAAFWiVSAAAABGdBTUEAALGPC/xhBQAAAAFzUkdCAK7OHOkAAAAgY0hSTQAAeiYAAICEAAD6AAAAgOgAAHUwAADqYAAAOpgAABdwnLpRPAAAAAZiS0dEAP8A/wD/oL2nkwAAAAlwSFlzAAALEwAACxMBAJqcGAAAu3dJREFUeNrsvWeYFVXWNnyvvXdVndg50U3OSTKCGECCKOYcEHPGnMMYRh3jmHPEiJgVVFRQEJQcRXKOnePpk6pq7/X9OI3jzDPvd33PMzPvp+/bN1df3X26qjh1at97rb3WvdYGWtGKVrSiFa1oRSta0YpWtKIVrWhFK1rRila0ohWtaEUrWtGKVrSiFa1oRSta0YpWtKIVrWhFK1rRila0ohX/DA0Wg8GQpxi83ZnB2IJP844CmPE1jwQv7QEGo1NVAuD70eOOBAbmM56b2wQG49kXJ6OcAW63EQsOYGCHB74VeK7hCmAXAw1JLO/E6LPhMqTtwajIZoAfh3pyIXAbA5yESPgAMw7mR3A0Xw4wwzIJgBmTN7RDUwLg9aL1YbWiFf8K0U+2U8BdGszAagaYATCDW35mMFDBv772HBjgOMC3A/uPuZR/JXrLGb8efzkDz7Rc881Op+DFNfjbtZcAnA9wy1n86wV//c9/fT+taEUr/ofovK3iV4IxAzwTYLeFWJP5V6IzA3zPftL1ayHhSry04G8cnP7pWYh+OKeFtPu/SgEGhjMAfhOMIXh0/W94XAXwJIBxOz5Ydsbf3gsm/kr+L1qJ3opW/GtgxIixj+zTWPKI9cR5r4kv+oyTYKZPzVib5/W0GPXUt2a3atNwqXP+9dfJKwY8Z9154z3yyS6/yJennCv2aajqgsXqh1IW2MOSz4f8cOVEq2BTuQUut7448jX7wudHBNZ27B3c1m6MfPDy9vKsO25XJz/4iRzb/AkN2P0VgdMEvoPOWDRNhipZFdQ1WSX7KqzbF7SzOBVRGzd3s1qfVita8T9Fiun4I1gxGJ+xY01bU+bwHEjGuTT0g3XWvUOeV4s6n67qzmxr8eWDHWYWzS3WGvyTfcIDQ8QNmEPoD8kM5AF4etAJcs2AWxy0YbqQz7Cu53Pkfgu/Jdhi6Zlp77wsp+EyOM1tYDMOl+kO78n6056304c8KpkeltXtj1bLh8yVhw57RfZK1tn/p3301Dr6WvG/C4fxe84uJCiJhObvdlFJqCOumDsX8ZoyteiQi/0PTurj/m1gsrgIlHVyZ0SyGVliMBru6T6jsubjkfzlbVn06MEkd47v4QXm3id3+wfTnHsm2JtnrxrfVAdQCrtcgJpzEaurRzoNVE8qW9Ncu/cA1AHozowfj33A+WXy84FETX764geV2+HRx0TdhMEY936WuOV0YCzBbSV6K1rxP3HdvyhWX4hu8rH2I+Schzfo+MJ7THjLIA8AiM/E1pL3ymrboEM6hry8FNqnB7Q7LBgU7f2d6ab65ZU336LN+qNO3UN3Tu/Gw5alxMRJ7O4tfix0/pVz4+rarw6KhcNveOFgB7uRU8Yy0oTEHhEPxiNhe1vTrr2rdlYmNzVFsa85ie1Xp1G+B0AZgFsxTmy/pK21Z8AN+qd9y+nBXh/K2yd+kWoleita8d8h+JUAPQswmIDlChisATLEN6kf+jzavZ2HfugaHaZyCwcjnm7npmU+CViBkryAm/RB+xqmdJi359JJ77wqxz0+0T/1wo784eV1NJMuZn/EuWrauPHOigcbLreGd7zbal8SRBMDQgCuB08I2BBwq2rhxVMp48hKEmar2bxrcbwRa00fbBn3C1aA4JV9zfbeI8F44GrQ7c94rURvxf/VWHtWb9xx8QNoOigLTyWPQNG5fbAsNRefvngvxi/oilPO3oLC2jzU5l2JrTk56HQRgR4D+C8A7gDqXszu3Ph+4wjjYrDs3v9omY6VSGVHORSCA4EUhZEULodMSsdrk/H6XzacO2wdPv/u8IA9ds5lHk54kmZ/Cm4uKJAftP3Ov8wbNKg0UvKaLi3uywxKCkmOp0j4CZOQBmQUC7KFgBJGG/heCun6eoBkKpiOb6nZWrHaKgm/fsnGJ+cfeNZ6c8a5j4tbOk/zkgWbcWvWPGzXg/HaCQ9i50JGYGFvfHT/XEy5aAW6N96F7XQwVvV5Aid9+QuOGTQKY8bU/S6fmWodtq3472LTZ93x2UvH433nTATKDcp/cTFhUC4q0yNxcs18AHdDYSEYOVglgU4MAcDogF2yYqx7emhq48j2PXuMTmrK5nAQfnYA0DCafXaNJvJc2CpNMtYs0rvKZ3Xpk7ca6+pR0DdXr33/Sel3mIOVNIqf2bAIy3qupuWd9FBdlu4lQ5ZKpz2OsE+eYrgBI0OuDcMaMEk2zExasBCCwwWFJIQdqC7f18lNYVPn5nj1PvsE9PPbygNXPKEPqmyPXQOXYHHvk7Ap1g/PJAiBBAMvdMMpH36ORHgVdh5eiGfHn4FgDeOnAZvw5wP07/aZtUqAWvHfxgknfqau+/QpcQWes+N5wu4x0lL4iOmmrPPkvUVvSIhPhYdsG/DkMXGf+DtHAIBY7rZp23PIlQX9h52YjjrZOi8Cy7BRTExWQjhMUpIlREiLiGHybVsE483LCj54dsfPh7I9+Ml3rZ/vaBT97j3d+nbRxNDQHsN545jz+hT1K7nBK+7oGHaNrZhABlL5IEhoZWDbDNiKjLIo4JCw4EkQc1olEPZMdTshHn6/I9bcN/MG+4ZXz8Ra81d+47xV1k+DjTMxeGPoAnNn4POl60QtVlq49avgJ2dMktc9epe9Tpary6ZdIGN90uLmlyeINy8vo1ait+L/nPVeis3yIQOtj9Ydj/5h3/tyim/OnXELTS1/I3BVfJKCuZ8tb4s5YN8H5rFShbntzhabli/G1jgKfLhZVkABRFqQhLCUEBKkpATbAkYSLPbYdxTbxBXt29L3039egHnji1jRNzr0UcBgVZW7hT71Ku4fZ0TMGhpjqyQYcGArBUkEYSsIW8JWBCUF4Ctoi2AcA077UOEAa9uXcldtHe/bdV8/Y5Ykah+w7z70g/SXwwr8UfdeTzu6nWs+PuoJ/8ZVO+n8su/0u35vU4BB3htnrdE5C05D7QH9cGbXKKYds0Y8NjKIUz54giZ8tM5uJXor/o/BBR+9IZ9fN1nc/9or/MboHnRKci0e2PaIM7/rWMq/aIWXPLiMRrjr+OnvzxZHjTlfzB/n0J5BB0JDFAjhRS1HgC1LwLJglIBQDEDCWAIUlFCKSNugxJZ1X9lf0Yrj3v7EEds6ms70pX/NMW3MoN4vY8mB/VIXzJrbhgvC54XLOkQt7WqQFlISpBJgNiBhYCmGUQqWINjSA0cU0uSzqq+PpbfteuPni7tNX4pXhfXS7XxY5EnzXf1GuvuCJ6hgR4jXFe+ymj+PeFNGSPuzbDrmK4EB5//Uyx+96wv9VU41jtsw31T3uEufVDxFXPxkWzoJk7mV6K34PwZXmQd59cBO3uzHs3VaBuUxW2YGyq5B8trvvlTzHx6blTogDx9/8hOP6g3knPOt+PSw01AICNuYPNvSCraEkRZYChiLIGwCCQuWFBBSg6WEaq6pTjnWHEBr3rGPr/ghit1fvCdeeitb1hSNAChNAyLOeCca7e/AN4AvpACkQ4BgSItgKQkiwA8a2ESwNcG3NdusRO22nd8Gu+Glyx89p2YfDpeHH6H14s9PEU+2E2b9M9eL++uOF73eHOtvPD/Ixb+YMwv8rJcjbTq8/RXRxOrBwcKsDWH3xhnPB07ceLy1rfQCevm6TqZ+0bO/W6K3BuNa8d/GQLORD3Znib++7Vp/qoGZccCERPkNqn/o80UjO1uh6elFiYbkkmtU3TXfaq5tVqvyR/o5Rxxh291L+6lwlvTIN6SUkEIBcMECEMIGfB8Ghj1pwezdviTiYEZdbpryLoanwyfKjusrqWbsdtr9Wh+9ZdiqHCMDp4WKS7K9VNooRxKYoLUBmKEEwfgMAYYV0EimGEHYHBSSUnsrN0Ta2u/2W+pumnXbX+zRyR/8My/4Stx/Vjbo09sUfxfUM5c2yyOx2X13AMYURrKusTq0K7FUtE1SmueWL989TUezXv7rx1csKzjthxBFPtaBo+5Tmw7y3UCrRW/FHwnN1wCbqyQQY1x20iswO4Hil/bhsDc+BBTo4ti7aszZU/VJ13bHrjOtIx0/66lYSZdT9ixLxUt+OQlc2Eacv+ErsuuTBEDnebNy7dz8XhTNFkYIo2wFqQzIImhBMJJBiiAcCwg6lHaiy9vOQGPeB73p3KtewPSPRuvrb9rhP//8OYYXtpNtegfGWsUdDgYMS4cEpAGTAQuGZUsoJUESUI4AeQbSFkxhm+LlVeVi665nhhyrvrrkljutb85OokegRr5XVs3PXq3MvW8buvq68zg2+3u3Moz+nZH350jXjn2VCrCKJ3VxWV7U7lJ6FseaHpyNrIk1pz2fqrs/j38sPFDo9nH14qqDIT0Xb5/YCD5gEZo/DcKbbuGzQYuB8hmtFr0Vvy9s2wkkVAioA7IaJKgJOKJyOt6++lK8deppfM5HHyZ5IYKbX8Q12ZHQ4XZZ/5GKkh9VrN5aB8SVnerIDdlS6Cqfwgt/QnUxFUR8jkipwBaRZAC+BygC4ICYYaRgXzCZ3eu2ZZelZoxYOVsdMmABJs38nsbVtTeN4y4SD49m8+5scg6MWafndS6IGtdjIgIZwBBgsYLRmZJTKRg+MQImyEYZSpdvq0BN1eyyB/M+p0tr3eXPEjVd+hLN/UtXcdLZf6Y3nnhJRd/p5KHjdvPDQpRs7pj1UKhr4cFKS99PQKZCQhid4pz8doGsYOTwRH3DgK/o/Q4f5M94Nrs20XTRgy/bTf2/h91YjwnfbgeKc1ATzUXR9mY80m0dkDqh1aK34veFXu2g8k2zhTxYjRFjIR/OrJIJ1gGffOFEYx/q1EPotONd9Vh++27Xhg44dCxQx9izbI0H6Pg7Q4w/+VI8kH0xP9J8O5pveBBhC/mk3PZGCkhhyEiGtiRYKUhB0IogLMNhJhi/edHN8NZaA8boe+56SHVpIv/Qpu/52/hZ2HA76WNfEiMibUpHeAJMtiQiCaUUlJIQkiGUgZAGSgGKfHhBzZYAdCJZYeXjgaxLayt//GiQNebyXfjz2/tQumgxf3z0ObjmxIV4ijtSqku37HYd8bAftXvLQDaEMcIKGiLlA44iICF1VkSqdm0L8ovb3rS6NvHY0mPR4ZTbLnHHfrvBSWblBOaO6CO9vFrVLrbPCRY1WTd/cRJhSU4r0Vvx+0LBt53NfVtv0IGvU+aFoU1+1Ywobfu6Pf18fl/3qC7ou31P6PpIt0MvDRR3K05btnDJStVU+jutEqDmy+8pSY3cY/562hjtzlj4JTRzlpGQQmTUqRAMIQEiBktAKcFCOZSM1zfkBjD75RuQnEdv8esjTvGGHTKVzik8ih25CTgZYlfajKVofqllCYLQIFtCw0BIABKQUkJKgpQWSDmGpEvNu7fujNYlb+/51YAtQ46yzM2XjeJ7Lv9BDuvQaH/S6U6x58VHsLH6E7f03oG0btPm6ypycg+Ntu/QztLMZCkBAUgACgxHKXgA2IBN16KcQJs2p8W/yZ5S0j48MD5+Vfrmyffy4J2zpLVshMkf0qxfW3ip+evjV1p9Rj9PrURvxe8KjRu24okfn1epkwI4ekJXu0oWI/gJ3PrJnQYnVOjuNt2GTQ4FhNDSN9LOhscMEUZqaAWwsV+1sFccaKx6j6s6DdS3FUGYNvndRTgvRJIYliSyFEgJCEuBpIQAGaEcSser1mxviM9Ce+Bq9BPXHXk8qoumiKOHn2V1f/IabzesQ6IlOaMDtgOLPEjLgREaUASyFcgSYMmANGD4rGyHqaGi0W6qeaY0cNn3L0Skrn/pYmt0r8f90Z2exfgPn9RzR/Wlzzx2qi9+lAc+//g5ojT3spxOPTuFpCBDGe+DFEEoCUkCKdJwpESIiKTrwmlXkBXt3f7w5ir7hdEIHvDwC39JH/RwkTi9ZjKNXbCG3j3mRZ5//nvml4JrWy16K35nUdodhlLfHsZ7vi0RM2uO5b4Xbk6tu9EekAxnX2t3HX6CkxNBWtrMIgApYshROlYq0ABm5LPNLz61mN1qh1ZH2+sreiIUKGzXX+UU2iDjCyGJhACkBKQAlGBWCjJdFw/Y/MPZ7Y+qIWY8hZ5U/fqzuMl6AjuO7IruddMkp73DIu17DpXSAcPAUxbIIkhbQkiACRCZCYRF0GakGqRVG5u5O5/ee67Ns+6nDz0mt7a/mbv8lBD3TP/ED28+Ui9ZOJquPGl6fFYPjOPuefdEO3YuttllAQ0IA+FkJg8igCRBBSQs9pFWBsK24bMPPwCOdCgeVJMbfPXNMPr/cuIhqaa92+yJOQfx94eAb335QH1L4mFuJXorflcwFuHWvjN1Tec2xD1yzd6LxMC2St4U6TroZJ1VIBIuwdg2KduHgICRwt0jkASAhgMjdOORLsSmBgZgAp2RRZwuJClBUghWAqQEIAWEFCCCkcGQdJsrKsSuyun77v/Ku3XaXwQHtyFUzvTIpnVq4Pkd3C1v/dA71KPL0VooZmIgGISRACkFSIIhZCyvpRiWgi+MSNdXLlG1qUc7Mu87NpqvDjjyXvXwtXfz42MZJ13/Ht3d8VR57ctPpPaWWv0TRXl/Rfv27QwEkwJJi6BsAVAmoq8sASUBhg/f1nAkQfgM2w5DGUUUDauCtmUHdo+2e2tJNg4+vv/XafuvXSXuIvHa5Nn2q8lzW133Vvzvh6ObUTZ1GT74DjgCBud/ewdueno4zr/2DvChKXPaGYN4QPeVaP4oHQ0V51xBHYefQJF8h9mHckCWJChB7EmCZ4frq5pREYVHjTKPxLW24IiigaYcvkAUrItJKbAQEEqCpABZEhCChRMUJlHZGGtqmrPdKdlRAOi6wtnik2QfY6fnmjVxqQPtq6xAuvlwzi8eopwIwVHsCwFbakgSyOhoBaTtwEhJPoFSuzetaNpb89fCJf7q5IHh4EtZY/3L4t/zzU/11h2+/YBz18y33nzkQndLyulhIt4t4bLCHr4tDMiQkQZGGggwBDEcW0GolsnEUrCUhLBbnJK0j6BlgWCAgGOaU7HSmpgY+fM1MBNmXUafl3SQNVjCdck8ripkgBNwLcZ3+BjfXi9wgZYo3eO0Er0V/xlEU5vhhRMIBARyQDBch2BuHDlNFrA9yMdkrQkUe5X+niVJwbn5xU5OWYiNq6VFgoQCoGEkwHYI5DimSzPSTRfanA44ZCRI1YP6V/6IeBoB1jpKEhBSECRlrLkgkCQWlkVwG9hJ1s702/asPWrG0/a7hyzBKczioWH3yQNmn+lt/sv3naMH9DvTcZSwyBhXCFJkoISBEjaUVCAhASHhMxve+/O6fN3wo9f+gC/mbB2YvT2vp3fa8y+L65h94h3i/W4XUOGKEnfW6GHtuCZ9kd+teLQVDqgwFCEgwJZs8ToIFmUUdp72IR0FAQUigI0HP8DwQ4BGCm7Ap8S+9RWqoeGumGNeajy8KDB++gae7B3uNf0wClxIBAMAQVgeIGEQFQwbstWit+I/h5rAAKlTYZnyjL0BIJcLZaIxqCqDRuhjSVzlPeVXWsUmJuAT/NqkiLOwAhkSyDRI2XBVGBbHYCmn4fkNqH771R+sg39Y7Dt9IKd99rnu2aadLOtFnW1H+loGQVYm2u5ZAEQIbBH7ygfgbNpVba1oTAgTWfMNx51aWfFSO9W98UvCTW8Ls4UOZDLdEYwKTwoE4IJIgVUAxvIAh2AEwdg2HNEstI6tEnmld/WfuiZpVQVTQ7N389jqkPryoBvUeV9tFm9uYWy/sil7yNYlFzjdCs+xO7UvdqFFED4pI2CkhiUJjiAwazABliRYhmFLD7ZmQFoQtoCjiLWQMBXb1+m98YsK5l336hUJrrvvlltNXtdX9d5Jb1Do6anatIuT0HBaeCcYQmmLRVq48j/dG6JVMPN/MWZsD0mrw1BvfH4Zjeq+gubmPiTyj7V48LJxkDNL8cFTx3HqB8BJwvVsO+4qi4xHAAFKKmgSYLaJdIzRXL3tno1IXlw+z5r0dQX1PX+p/i5vBC/6S6F9aVH3YU60f3fDrk+CFWkblhCASrOioEw17Wn0t6ye2ueSDnUiZ7590HOe/2VyL7sruotdLx3nrxlpF+UfOfBCJzc/N83sa1sp+ApkAA8KgA/lpwAnysJLaFSsW1Ko5FN2XUXjL491Ue/2H+p3WHQI3pt0lXf3PVfS9T8PjR5QMz++9aRpx5m84vMK2nYoSqTYWJYlEr4HRQ5AEjrhQUkLFJLQBiAp4ad9aONDBMJQmkzKpCm9b/s+UR9bWFhPD/YEVtAhj6saa7u94qjxPncNiylWXORFzzSJbaeISXSzl5fOUuMWrtNHnr5cr3v8AVzw8Wh88/3I/2igrtWi/1+MY5qTGP/gcWLFcSEufOZWcWq7dmL0e1eZ7OO+A/y9HAo7CIzchV0b4GuhmkkAJAWTBIQKAtKwsCxhjOvGty9bBYBD/gJTeXQ/M23zgajeCr4pr85R2rSFZRNZDJIKJBwoGQDbcUNSwZLhdCObZXO/3d5kV3n2qxK89P2uYvbYfczb56CotzckTLHu0nFISyFIAJ6UYEuChQY7QZBlGcuxiMpXbairTb9gT9FLcJJRBzSfyy/t/kaMbn6Uxn49jp488lvauSTZsHXyuOPt9qV/LurYvqNMa2NsR3gkYEsBrRiKCY5jwUiGFplgHFmADEjAtiGUr430Bfbs3ek3NHxghQqv7On6K4AVauoh0AV7O/knTp8ncxK9xTkHtzMHzs5iFZhLu2YMk0+91QvKOU3eN3+ZeD03T2zalMTehnSr696K/wz0gDO9BcFGnvV2pbq/cLDZ8FWApz5yCSiykJdMSGP43nl8RUV76rgRvg5EGyEkSDKTZLCUYMUgQSBlsedQ4kIAXX4h9dyWu9E1KMXAA4CBddImmLZaWWDFBGEBFgHEgHRII+6RG1vQEIlum3D0fWJP+35+5ZT7RUW5hS+PPsSU3rwgn4qyTgzmtclxoVgJUEAaSEEgqaAkgeCxccICzeWe8Xjm7ZsO+mB48ge1VTv8/nsJc3vFALrjhuF03oIvRNv21/sd6tUADX11oHNZR0+lTXNACkgNWxookcmVEzEgGUweHIsQVIDwPCjtG0uQD9JSVOzcZSqrngqVnXL7wO0VlTe+eLl1651t6ayfvrPKsj+RzS9e7r+Ys9QVC3Zj1t7PxZCbnyf3TNDZl0z3Zw6a6Y9/axVw/TRcyKOM7kOtRG/FfwYy613xpzuOo3WDBe7cfBPdcFGu/9MwCassJRcPcsSlG07hu1dtJwZYc2If+XFPKCGFEGABsJAQwoCV9GFz02sA8lds0ANePgnJAm1eWk7oV+OFtdssIQlETCQsGEvDCJctmS08uKhZtWjqzAlPVL1S+Zzq13W1eXjuHUJ0ipqPQ7fj8I51g63cjqNS4bKgD8k2EVkwcFRLAMsJsJTElKiM+fs2zFip2zy7bPUCf9F3I4V3ahqndX5I9vmh2F+77Xn55kGvaz4q0js3178lr7BLT6MFSxkUbAmEhUYYAqwElABIACwBO2hDwUBpg6BQbAciAoIU9lWulvuqr029MvmFQXkfpS9/5FL1yLtbzZxbrhCT0rfSY87J5ug+V4msx1nSqpQ868y0+vGJ090I4J7wRJNYNH6cOOa7SkZkEJ5dOkb+pxPs//vW6CURoKIZWHkRMOB5gP7APfKrzgEKzwQOfhFY8Pkf9z6aCMITSKCJeldJ8+UPO3PRoYN8vgNXD65bILodlkPizs9xAoC6Xb9sLXbEHlEyqBP7rgFIkMg8Q2FUOkug4eYZjKMFcfbgT3lCzuvIee9RFMeSPd383j2YXMOZMDsMaZASJD1X69ptX6cL8za/2Zf1lr0V1mcNL3P3SNp0O71WV90gc4Kl2ceK/A5tU/CNskgIn+FqG1IwBDz4rA2cbCnqduyJ1sQfeXHqovJ5x42h2MXZCNYWYd5j+eq6KU/5TR/96PH3WcUVe5snRzt1OsrL65htJZJwpUZYe9CkkVaA8ABPeRBM2L8Zm+/7cFSQU45DNTu37Q74ZrPeWX5T7wqsuG9hJ8XXD7RecF7yUzczzv2J/CumCKzuM5LKcAoO3bCK/Ou20dSpP3rHfojxjcgK7bx24mevLPhSdeh1qBKnPOZPvpvUL/MtBjzzx7fof7ef1R98x5uQAhAAtP/Hvo8zOtLsi6ea7hXEg4MzeNYer838hegHAMEtaRQWNFBArcFnAFSa6yW8eEbgIhhSA9ICEYMkeSGJ+IaFQHY5xOvHfCZmZp9PCUOIc6CdHy4uFPDYkoqkFNBCQdgCxDGSuzb+FC4uWJtXviz4fQze0/et9B5feg01EeDnRPuarANOFk7QtlQKlkgBSsAN5SItFITUxg7akpr2NbqJ2It2dd+l62mALtM/8h1HP+t1p03y+6yjjBtpQuL4T+S2+bGznOJeZ5rCztkJirHvGPjCRzoIuLaEtgPQAQFHuBBCgEQmFm47DruOTbV7N+9sl9j7hTu//MwB5bxywLevBx5/ZIgp3XSs32PEu+qmu4HJQxlzptWj/51z9ct3BvjLdwd6Lw07OTSLXrupQ7tub5X5ZnLH46nsnH4Fpk5paQp9gZ/hR2ab/6hR/09adNq/m07mN9r/u7DYZw1iA5YA9B+OIAwSMMRCgv+2x9/f3+8fAbPf5MGLPrGb8L13Qf48e9TWivEpBcNE371dXkLes2eZ7APWAgAai0gXSmOMEBCWBZCBgGCQTxap1EJG7ed/AWa+3ZPb+EnO8xt9V8EK6HgXFj67FpPtRwDVDBYOpOexkdF0VVv1ix0lb9InJ4qm4mb18V2fessP+9is2idlrh05kfMKi+MEYxspjGZYKghbx6AtyQZhcpvq43rr0ie3Dxzw1k3nHCtnrXhSqDPSJCrL9SM1vcRPlxX7dfMv01vPfnJSpHvfm0V2m1zhuyYERxC5gAWQCcJAQ1gAGYaUDgy5kDoI36SMtj2h9+3Ymd9Q88TCa2/+sNOFj1R9dEOW1Wdiri6Z1YSyofXCODN4bihXeM+2pSte6cINap569Pyk17UrBjUuwRX5XYrO8vMiwdJQ20PDX2y/dMf04XdOLBupfzrxW6YfnxDAsxq09Q+5Rue/yw1WxQEAkRvmGa9jCACkA2l+8z7+OPGCC39g8/olhld9u5/k4r/c7x8AqZqR3Ft8YB4qedYcOe/OQlEy7ETV/cQxVwBiZ8l0E90ZoofnjJEAEASnrYBKCCkAQSDIjOBFKEAqNCcQu+s7QzuPLGF3Yj8uVJV86SM72LeQAyFJSAGQBosAJKUAocjd+uXbHQr8le+cNETVbR7vT8ir5h6llfb7W07UXWENTEVD3SAFHCIwWYDtICl8BKwAB+HCM5bvbv7hLRnR77U5f3HDc+l7qLTgAG/27P7mYHUGHbCJ+KP5c/WeSzocE+52wJ/DJWVFQqZNyrKEkQSjgshCAIabELBTcHyCrWwYEwchYLSThmmqrnCX/fKl8WpuuGvx98/96bTTKu6a1dfesrBM9xy8y/vi5kmYOyyFOqo283Ib5BY+jTdc9JkeufZmu31xepKotJ/M6dfhzFS7nKAlYOJEtlaBMSYSPuyZoR3dQ6f8EMiuuoiHbGr6Q6bX6DdfGXueoTQ1f7+Jzi85Qmg2+lR0599Y+t+9NbRabkd+sFXkXLgvEEy6FoHUP7n3PwRyuFGMe26wOaTuC6dTr+hxbnZRXyPc8NUnIK8Ql3CB2YWDDtIGAEwSrhYqyQCMaEmTKQYLYtbx8n4ldlPfMQKHPjnU/DBrLE7GX+m2HgnHpVgAZAFC7j8eASII1DdpL7VkY23bfScHlqt73oOxz5zrf59oI6rnBqS206Op28hjiASUkkKRgpYetJJw4bOiAIlEZbmyzftil944t/rkrPA23wfNVc4va6wHO+7VY05cl958GQ1ySstujRbmtzO6WfvKEpalYQRAMlOYEpRZgHDgWnFowfCD+cYKsLBqm2oSu3bPa5birqCHj+d/9Dbs9Ffi6bjiWwpCaDj5JJUa+KYMbwjq68NN9PqCdX753Xf5m3tR9+teuv3Psrj9Y85BAw7NjuYFlZcAa03BrFyEOhQfVNYcP2LorlVWdP0KM+u6JbSse+0fMuq+37qZ/YRXUIAQBICnLPnSEJHoPXKYRCjEEgJQ6g9DEgkyDUimkjCugvLboBD0t8/yD+O+e57iNqILFz+TLA7ZwcNEbvscJ11tRw5AJKZvQW5DM/ToX1jzLCTKkTTCaRSSQEKwkBJCQhiT1t66GR8Vn9HW7bWWqM+Urtxh7FnUF6sROijYhvO79oZUEFISLAUSaZYyaNzKr79WNea7/JtXyYRl3KNwvXxv6WHiqdC+VGiv1c9q222cQ4Ih1K+LTCUFAsqAlRRuvGKfvWne/fmXZy/KHg35076j0tbxrvxk8iVmW96E5EEztpjYufmdo2Rd5UTze6ZEhNnJFgwNEBCUGo4x0LaFZiWhhYOgFWYtSHu2EsmGPXXp7Ztf69FAN2y3/BVNQ2zr3s2l2P3cDygev5I/Odl1Hnyshtp/3Kjn0uPqjfh1/mFTZgdf6oPjGoMlLzl9Ci7N6ZhXiDRzUjqklA2yLTJ+ErbDvpOVNd7ZsnnYWb9sTK4InCmB4B+S6L9dr7b87EsoZRyhji4tLH6mpKDohdt/eONaJJNBAATfp0xHgt819k9EbRRwBQFXMbiHgAJnJrM/jPvO9wPaiuhxlz1n/Lz8I2Ve30GQzFLL7GzbCd2kzoQK5qDSShGjC7K+R0IGQ00kCaQEQxAgBFiCja1SyFLprJqgovJLeEBROQQMW3mB7lbhgKEkGEJI0oIhBVhLR3gyv/z1FWN2NwZs8WbtyeK2LU/Q0jk9mOkg9subh3DpwDEWgsRStpSHeiARgWA2yquPxcvnvexHCz6mmxrc67s8oKpHXuR9GbT9yU/0oLPP/cI0fdstO5XTeGlOz6HHqaySPCUIHiTZyoavwiBouLaEhIWgBQR0nFOSiCO2DFWvL49v3nNL24vbPUJrTEXw6PPsnp97NKn9w/BSd1H/nQfxyUPWpOdcPoDfPvY063pc7y3vi7Lh3a++xM5t92q4S8eRVmFZRBvNMuATVAosROaLkiyzQ8q0KR7SqSkxutueH5zXBuTwZe/GBf/hiK7Uf7HQtlAGxuSnjT/ZduzJkUj4krzcvNsFMFTDsCgskpYxGIR+QBbBSWVuuz0VwcMH0PgTAKAL8qEgIEEQ+y8fCu03UVD1jYAE3sfh+BY3YR4ewGzcDh8+kmiGj7/AwEBjBe7BQbgDp//dW78XR0HjW2iciiRmw8cszMap+AXfQkIQAPjgDo7tPBcOBJ/W0EMJZLJgCQVFasL5pDEbzeGbAQDBxD0ZVgH4SJwNBsPA4FmcgxdxMXz4+AgTEUcNNuErzMClOBRHZ1LE+M9UNPGnme87dlxLe+boUjeYGqzz+nZnGAKMSJt0ZA+A5Ozh7BVfhTTS4syN8FJkJRkMEhIkDCAk4Bht+34d9iSxrmaoubfXQ3TgIpd7zqoCSb+TIjasAJICALNQYeLGDWvSDakv7vniIXSoi3ppLGe1qIBvmd7D4L7lHanz8LNJSm0kmAQgLAVFgEdGa6tQ6JpffqguCH0Uvbu63rkwIZ8Ychs3TADlv3C49QDdYPw1djitt1xi9xx6CeeU5HpkjBSagtyMlAjAJgNfBMEkQOwBLNjPziK7cU+12bplsRHl102dza9NOSUSO//nx5zxN0/x9FbHjLp9KhqvPIzHe9XgqWSffdmHdNDbJf7aw3B4ILfwhZK23e8ubNOm0HhpLYViZiJPaDgOYCENEhrKUURMLEOOCeWXnLhE7unZ4dIBbvEj3QgAissOAAD0f+QZYM/VYExHTfS932nUfdiwTJX+jz/++v90ibT3fo5tO7Qov2CwlNIlIg4HQ9l19XUnA5gnunQ1XlUlSxqIllH+t7XxVacBHwEoB7ajDt179IAQAtlZWaipqcbmrVvhKIV0KgVYmdTd6ZgD5M0BhiLjFVU9AARaFhNz7wAA3IODoH5TOSRAuMueibv6zASuB/DCh0AgAOxLARs+/PU4A6RCoVBaWZZoTiWbqlAFKUCpR1OM64eR7DgW2AmUtG2DRiV/nU+j7IBAQDaA2wB0Bi578pXMe1r0LhiMjfgM8/BF5rj/sHfScc0rXBe2R1HpuONJsGFhDOV27mAdFh2RxOwllns7LQ6NkqEdo3hRP3hOMBInQWAWTGAWJEgqNrZBnDrvxvSnfLr01XmqbgR0/0m7OHl8tMiWjtDwACMgpTBGklQNP6/burtuadaUGDdVFAYuKah2Yz/koWjgLdyY7Q1X2R2GKxGUxtJsXIKlNVIqYiwhJSpWrOBkzfNzbjx0w9B7Dlav3JSkOXWueOWVtbpq9pX6/KPm6L2326dEeh1+u+NEsv10ml0nJJSXgHQCCPtJaNeHdiKQngtmbSxApCp3Vzbs3PaJk8QLpdP5l2k7Bzmn37g+fX6fj82N0dvEsUlP//B0E1699AoxtLiDmvzM/em7TrwsUn7LM5OCHUuusvJKevoyiJQbNzZJqTNVMFCegUkRmMIglYb2FCzPcDCcJWLBZE+drjj0ULv3huk/l6UhniJubGDGMehPANj7nVv0mTMJX3zx25Hql4aLA2A+xrbtIqWUrbV2HFvJsuKSkwEc5C9aoIdbh1j8XwN5wE4Aif0kYwghwMwwxiDtZj6MkG1D7NtHkPJv50oALoAaAjUDgUQAmdYIf1tuZzqWAQQSDM4czxFghgCaQwins4HyzMFnov/+WUEYZssYYxGRcOFjnIno0PtR2F0vM8gkGFCxpxxQJOB6BAAbUZ05Pw1gIYDnAZEkoDlz/Dt4jBiQ/4Tk4t+8AMksp/x4fsTnQTJUUAylRUCnjQ4Xhx22ejGg1NeSb3t2iHmezwJ+BnRApzRZkCTg2Ra0AizfNlXZaAQzZh56LznvXaxXnfUxQ0LYJp2vIQFSENKHlIJ9qWBK261dM/awph1dDqfcW65Gw6ox9qjD6jTZXjsKygGCkp4FBWk8SKFhlNRkQ4jaFWvSNYteeeMEa9EVO9eYmX9+jFeEV+oxH6z1vxxSSEcef6ypu4dGh2z/eCuSm50WFru2TZItODIAxQJa+uCAgNSAEILJCYpY/Z5yf9eGZ/3syL3VM7Bm5ced1Ao13o/dB5vHrbB6293585INFj+o6ccPXuB+H36fvuXkib1rtjU+mN2tze26tKQnHNuwlzBSKCEkAdJAESAIMBZDWBpG+AiQQdqBIL9ZR8rCdk647JRIm/eKvsPjaDKGMhbyC5BhCXZFyygWv0+iPz9RiOwwCCAHQRsAf12+4PDiwqKTBBGPGjUqcdhhhyW1NhpEZUKIMwCIrj64P5KAAYvvvvrVG8idGRxvN8n7AJQCyN+xdduj27Zsmbtq1aoVFXvL/wpgwJu33kWmT29BX34JAGxBRvIaQsOjC4L3BxZbX1rrrF+w3CwMrHCeF8CoD3GtKBKn8c9UzwBEEAFTVFBoSeDw0Fr/udCnao69zlttljZOl43i9ghU2/swWv9GAMTGGGZmHSGr/7dW8jV/RWqN3Gl/F6iVdwggHwDM5G3AfftAgLyap+uuyI6olDwv8JX9kT3fWmv9Yn8TWG/dZAGlk3Ajt0dnjMf59A+Zi3+rYmpvS7p263JEvHannkVGG2IFEo7whQ8pkqH2F8B5+4AKqg3W84+fVWkA0Du//pFS27eTFbBZkGEiANKXTmYarrR7IPvZl83RU0/mX4YjX1uRqJSZphBgqVmGlW5YsjRevvbryzZP50mdl+nAmBf8FT+fxNem5sp9uX4P6njEGTLQKeSyZ4SKEIRjyIoIVbdtg7t9xfuqKP+rWfbYhqqb0oHV/QwuoLuxp1t3/nRhld5+9ZH9fWOdKrsfOQGa2UibbEHIoiaw0UhKCdhZ0BxhE9AshSavfvteXb7xdnFIjyd6vNyv5rUFD9szpt6hnT4Pcte2FabHwZv04D9dI24v3qHx1Tvy2LmnBSrHYGI8VfBi5LChk0VJfmk2OZzSRsBWQhKBpQAIkCAQZbrogDQsGYaEAlQAbEmC8EWT0b3aNWzqdFsW4ZoOEzmx/QwCgDVXnUdUdq9124MFTFbC/D5d91umGyJiA8hSOH5tWFrJdGqUpVRufWNj3UuvvXoCgGbHsmd07NSprNDXp1bXVr+/3apa8LNbKaFZu1/cK79e8bV/yeBz/NySorNkvPmcVDpVAG2G5eTlDjTawA4EkEom+9bU1p5+/F23Tu6S3+aLqlNOggfAgz4zLfmlgvx80i2qPCklPM8bXltbc/TZ/rN/6pTV/u0NDdssCTIEYVfWVD8UdALn5Obl5WeyfmBlqX4NDY3HJpKJnYe4r7z7G/2PDAQCqXAofHcqlczPz83raCkFpRR81x1dUVPdIeDYN/kvvB4DQCWA9kS4aKtpejIajZ4UjUYdMCeFEL1jsdgoN50+Laxp0gD/1g0n4EgBwHAmnvlvj+aXBQEkgS5h1DXWfzQtFLr0OmIBLYIQikEmVWA6IXgOlcSn1ayU96yZId4DDOrSdVSU1kwMKRQMfMAO2VkCTUVwUZeOGawjdRqx/8Qn1Fa2P/V0EoBhn8mEAMTSUqRWV++hjcjOpinPXC38y8utw7OmJnvNqe1I3UpGW3Y4xMKQtmwwA1oISJEmmW7e4c8OvJP7Xe2um65c4hTN+tE/tLaPuvClsD79uGZe9EBep/yC0BlWj9Hnkh1ytNYcMAxBGmkrs/2TxYS0axknYITftKepZteW7wrCje9e92rW5+9s+ZmKGirVX5fc5E6aPx43D0+bW66cQsP3zcbB386mFYC5/LQj2wwieS3J7BOzepR0tFJxKIQopWyAXAg3DiMCMJIhDLek8AhkMllkzR6EJEgD+KSEZWk/2LGsKFVrHYl68+Nb29+hTuVNFA8THnhoN9/65976qQtK+fbZ9wDf/Q6JnkPEMUgKQXAFmk0y7g8pzM2bGLBtU+f784KR8NJkczwFYHEqlTrOGF3CzCNquWlZs8go5bhKQMjM20un025OVhY8N3CZr7VfuW/f+17GmY/mRLMOK8rPz69pqL+jMt6w4sWHPttz9q0nAKC1yVRy8669exZyxvlvAFAsSRxbVlbWe9ee3Se5wkyDo1RbzkqW+03nZwUjZ4TC4ay95ft+ArCgZdHQvqSo+FQhRaimrl7st66e73OWbVN+bu7g2lpeVllVORsAKSH7tCsrG5qXnTOpuq72y3BW+HOvOWl7LPx6JG/Lzso6hSTF9+7b+xwBPzLQ0xLigtKytkN27t51WzGil2zHMvMbbYH5t0fyCUx/AvguxCCxjVO1+xDJL/WMT5YKg9lkJZvtIBj4ZeNQOq7dRgnA5xQSQhofwgCQYPJgvJqNFqGhqpYot3cpx3crFK0fjsh2tCEpiQkgThsRzBJu3eK1YuPPUzrews2R+XOU+9c8s23wKX7ugVst3rCxTWDgcRPhlBUY02yUpYTwfWORpRMNC1ap3T8/ta+Jd11Y0zNwcv5Gb06nU6nk+/78weUX0NrHKFpkFZwtux18pRuIBo1hI0gIuB5cEYALAYEEO65lpErJdHNVEzYvn+IzXg8/wmumzSXFa6dg+cE/+T2PmCdnnFaJU92LuN/bxnbeQOLLlc+Hej87+RCRm393QOQMdELFWZpdkAggISVYa2T7GjGbQOnMIpAUwD5BCALLTJICwgODIF0D8gU8oUVEKg5UeKMGJyryDKGuaftaFY5fbW65dz3dcm8fH6HXKHHZ7H+Z6P8R171RSqGhkYUAXNJOyAkcGwqFyurq6vxEOvXq0HNPS9sApT33pZrq6kQ0GkXIcc7ZbRq6FWWFNHxIe8iFBkTYxVUgIiGkRHV1zaa9lRVXuuPvnAjggr/2OeLshljTK8xGhpzAgc2p5JCJtxwPAORArHXIuoiB8wDcDeAJALdaSq1lZs7OyiqoSdTmoDDqAbBd4x9dkJ/fpr6mZocj5C0AbgbwHIBbKqoqT6yrq1vB+DVyxyQEmmIxs2vvnpeSqcREABcDuMg3+ta62toqIgowcy8ZsERh5zKvgf1OjmWfEc3KQn19w2MAbmDgUwAPgvEmM3N2NOvQBiS7cyYK89uuI/+ZzMu9gFXlfufVfTSDJIy0U4aZQMyuneWGAdAMdSxStRaBGdpBCspKoqUlFBEjuXvaBwihedSNFiKWyy9XnMHPFb8O5VOxAUlk6rhZSyZj56eb9qotRGQ+6j5aBgceyI+c96Gf3lKbZ3ftdTKscICNZ5R0SJLHUqbgpXZVpTf//HhgRN7iT94aJd01E/SyjtX8w+mF6qI33nC3HLJG5Gd3v1R3Hn4jom1CguNGS1tA2NCWANsKQU5ziGyygyz9WNW+pk2L7s0rDD3V+Rn8fNeHdzoHbOpmHup4BdaXvI3BeeXygsgU9cq+cZbzBRIVZ6Cw9wOTL3acvJeyirqNtHLbZyWFZJsdeLaAJBdh9uEHCFLYEMKAiMDUki0mAxKZ/vVaBJEUAoIIQQG4nOTmcJJSBdw7xyrszXQdh7e8oPtsKcWFT9p89s1z5NpzHhH2UkO/yzU6a82AoHzkGA3uEAwEzyLAT6RT87IiWat/fG6KZJDMCoSWe5631HVdN+AE+sR1+kit0wECsZ4zC14yvv8GNTPDCgRWA3iJvrnP9ERp5Ma136allO8bwxXRSCQZdJzh+ZFsOyQdjEK7piR78wHABvoAOAhA/5TnGkspalNYlNuUigGC/L1eY6+C7NxuRhsm0I9po3+Kdi5w+lBHG6QCAFYDWM4OmV8994xoJCilnG6ATWFEIgTYUohfLKnKQ6EQRyORkmQsKYI5EQaJETm5uXnQurnFU+i3/z15bLZYSvm5ubllafjDRWY+Ef/guv/PngUDjSPn45qWaOaFehBWXgbwZW9jRqoHrbkIG5PBQjcNKaSyBBlPc06f7mpk7/5lDVtQ0WUU5+50GQCqgkgzWXFDBAYxKYCzHIXjkLjlzGuon/cEZ/WM4s4t15OlqJBICJBgFkGhkxVVJlb7nmg8vU5YLAbZhTQ1tx29WTlOlu7Y1UZHckeacNsisoxhuEQiyp5QItX084epxoGzaHBtQ+cVCfHl/Mf9J3YWcOfQtS6PnexkDX91jIjknyryO0bTlNTKzhK2n0JKEaSQkH7CkBMl01y1t7F889K63Ytu7ris67P0p/iely87z/nzo/d7j5X8SNOsc82+rZJlivWRsc/1Kwd9nd7dlw5MFxY8HurU8+5wSY9OPjlGC8O28kirNGx2EVGAb7lIGx+KM7vOCMEgwZlW0QItUmFC2LVhkwMtmX2CiQZyJNXEm3TC11XG7gKsEO3OPVmvy4J6/aJD8e7Do+CdfTyrpf/6RP8fVMZFTAq+JRjHSkt1SCYSfsp1H2lqbtojAJ/BflMqUev63sOxWIzz8vNNKBA8vyERy8kKZxtTsEfs2LwyM9KFYMMGmk0lAeH2MoTdaE61syKktW4m0K5wKBR0lBWsizfRqLw+vF3WSgG6CMAbuXn5b3dp3+HjTm3bTW9X0maClBKJeNyTIEbah886PysaLXEsm4h5JQARu/gEfy3v8GD5bssSR0H/OrESZ4Jx0FoHbUgRR3OaAVcbY2utXWUpyolmKzeZ1lWbd0OSyA4FArZt21ntSkuf6ljW9tsu7Tt82r5N6dft25Q+LYgsrbUNoGQVqjJeA4j/HRr6LCb4EKhjwBJeS+2gwUhnq7r+iwUy2Fy/UHgrlxk3R0oyPkdzS1OBvE7XzL6UK5dnMz5yjQRTvQOXlJMimdkShSQgpeeCgSMr3seo75cS574h0m3n2ZAmR0oiIsEC2UJ5jRXW5sWz8p59x7/qg9uUfsLxL3/lfH3/5xvscJd+pzrRnl0YSd8TWpIIclp6IlW7+BO1b887be9eUfV9/an2xFvv0NzYwSa+Qb6Xe6Jprl0wzD2g+Bwrv1Nnj+NaSqU8JggriDDS8AnGkVnCJHfVN9SsmFW54efrO51/8zSS8/0nX7oZxx43zbSdynKlVYCnF5/Nc45ayegA/XbZ5V7tRJpkrKx7ssu6nx3Mb5fLFJZSkRAyRmmpIZQFIhtxIeHbFkLSgmCdqQMQBKLMd1BLdzhB0FYKRHGWQUleIuklVu/eYnZXfazd2rOoR/23Q38pV/Pr5gbOfQL++mItrhh/kbzBe07+O1j6b1+jt8jgCGjibYhlhZ3A1Xk5OVRdVZUGcIsCXZeZYBgWyPhgS0mZsm07RxJ18rU/viCn8J3m3GZ9ycS7aPLZdxMRkRQCikiCyN+lE0D3LhTftJWJiEAIaGOgmSWEcNsFC6yv9Iqbc8LR6yzLyq+Pxfa6rrfPsEmwMdoJBqIgIQwYqGwCAG2M8QwbCCKXGKbd/T+JnWDc7R6PDVhvPsBmtn2I1N9ksCQylYXahTYOLCsNL+PQMJPRGmwMhBRINMQQEEprZmit442x2AwpZIzB0oAZROBUIu2n0hrAov3pehfuv6MiTsI4RoCJAONDSp157jrr/N5m76ODyP8k8QOX7Dw9EBo1xPebiQC207F2A/escWYdUe6t7tDXaBBnCaTZsn2QglQxkAkiLUQVHjS4vetnYlW/jeIEdb535TJuZ3U99ySPbChDmighvEioakGq3a74eha3PX4M1W7q6zfxI+qKp/aUcTh/hAiW5sp0s0+CwcKQ2vnV57x3xxtBZ8zPP1VScEQpUl1mr7fOWx8xwGN668ePD6M2BZcFSo87LgUTcDyXFbLgmgRYpiEJYHJEqrmuNr33p/cs132j9/O8Yvim9tbac1+TvS+Yn9550hW07zmg6cifReyo0TRxD+mJ16PHzotxUSgYHRFtP/hAAhntuTCKhNA+mB047AFgpJSBIAmR1hn9vyJok4ZkyqjgWEGRgSsYLhOk8sFJj+o27VzNKfOVVZl4f/vQ8J5JS7j2eCrDyrIiQX4z3nwA5o0HJff49kcsPC8O5P4tvfy7ITr/5hsRThJSZhtjKCsnJzsYiYyh30TAiQhaa0gpkUqlUFJSEvT27Ll+647Nn+BxxPbetI8AGM/zYNkWSJs8UtJiz09j01avJcs13AD9aurq3OZkYhGY+ZVds4pDTuD6SCSSV11bPU365vZ6r6kKgGuDXgSok5CCGUAoGkEyFq+EoKRvNHtGD2QAX3W4GO+Lh+nP+nrQ+lGmJYf/65pZEFFGup+xth7+VpsuhRBKWUgiRUYbymzTBQghYDzPa4rFpp529LHffPDlDPlr+uxgiBeOf8q//OZr8JuUGres1c2/QHgevlXgvYG7WQNi7uaxYsfUJ/id70pN/uY5tHOKY/btDteU9Y1uJRk3goLMJInA2f0YcmdWUbr68kJZ3xynfXuQor5KZzSpBmAFY6j58dsAfqcT5asNIDDnhlGoZaQYLACpLe3F6kzdFy+vWB1LnnlmmV3c9ix93BfX86V/6Wjsw3qdJPMOP4S5wYdlhCSL/MTeap93fBv65opvJ439mEp33pguXfKu/VnOWhxwOtwbHgm2R5uCC2Xn008jNyks0qwpSL7bCDtkc5pDpFONftitbGraMf+RYKN+96nPsfezg/oGD2qzxys+v7f3+eePyaMu+kSZ7+vNps+n6QkfDNTl1+AYadmXBvuMOsYW2jBLwa5mkpJIazAIIAkfEkISLJmG8FMgGLBQ8FggAAtpZTGYoLRHPjSMIKj6yprGPZXb81h8ULzVnfaoQfloQJ+zNI7upWfa/ZDvzWLPJOlXARd7QQewAdr7O7TovzHsYUlicnFxcXZ9ff2e6oa66RapNLNRAPktVp2IhO8ZP5ybnTO2MD+/i2VZXdO+N4mZn7/0ykspMykIqaSEr/Vo4/k3Ani5RXYyUApxpWPZSKVTcWZe1OLzHuAEAgEpRTzt+1MBbP+1kAOQ2hgWUjKBUgBQaGeX79qze2P7tu07Kcsa63rugK3Thqy6+JErcNfwn4ArkQegnQ/eCGQYrdloMn+rXDMZLu+f5djTPnzPJ4WMhNmw/nrf3r17iosKywAc+8mXMxYAiO0/574LnzCXX3BNpKU+P/Ubd13/pgz2fwKz+LGPZafVuSYOkkfLH/R9p/3VlN6dlG+dCBr5UaV5/YYv9T0fjZpmDlBDZf5RhxgmeCYpHcfY3TmW3FAngdDNVupgTkkzca9Rrk9kEzPBYsReAHCsZ3PX8mZ5xmILKuoVsUkKy4qAdUozp7akdjUvur4dOLlvn/zs7q/189lbufdXTvekExgdkhHFutxoERLK164b++njPdtK3+/1+XPpHxasVG/0bUdZu7TpeA88f1qXsKneemaozcSLtU7B2JLJMwTyQYGg8ckT3FQbx6rPXpEBrHYi+Dh0M2IVq4cH7l2b9saPZT+IH1SXV3ZZc7f1NE8cdbDmWSMKlv/JudyWoSNNm2EHarLAvidIa0ARsQ+QEGAFwDeAJSFcFxCAkSG4mkHah8Ue+8YyICMtEFLCg9+0Z3tiXe1CL4Fv15+rPnv6UbdxOQ6mce/sEG0e6WUtjT9oPq/owys770N+7FTsiciMOVFAQ9sSBOyf/z2q9H97ZZcQpI1hEE7Mzs5um06nver6uilSyru8IAFJ8/fDVhpIT6C+seFWx7bv69Cpk71h44bzfd9/sbRte5NZD4Nd10P37t0Ld+7aeXfK966ylFXh+l6niBOwG2KNOtbcfF+/dj12rps+BnLYazorKyukPS8FYDiA9QDCEnR4KBweq5RiN50uZPDBAL5PmnSjAb5Kuekj27Rt26WquurtS0ad/FZUiKrmb6rD2dnZk5qbm5dCmxt/DW4IoVv0/PofqnjYZ+NJKf1gMKh9GK5as500sNMQPku77pU50axT3GSqne+7UwDsAZD/1PX3Dc7KyhrU1NT0GoCZLZcU/6I1x0PPhYW87C9o+OFoWj0zl5/ckmZ9GHL/UnW1Punki2MrZ84Tg46/hv+yBpsw0Iox+QRhsQjmt4m031MoaUvTsKmjOPHYnyi48z5hNk39mHqccTQHO5fBxNNMqMlZDxTW+0zBRhNtlEjbyIaQAkqCfKZ0w9RXps5/ovwkfCrVsLtS1yUbxVd9XyAr5IwR2QcfwZzWJEOsfNPkVXw1PbSr4vleV5mmLlge6DZisXf7woXy0cLb/cm3fhMt3rP8jEBB2SGeZWkLUkI3k0EYyiQ1CSX9RDzm75w+xY5gOq7GnLEDnxQLhs2VlclcfeSZ9+Pb89+UDXIgAl12pS68YKBYexX1a9M5eq0p6X9WOtxJUXMzC07ud9vAvF+rKDJNkiRDaQMIgjESALMliSFs0lqRldRSNsd1Q7J6s7+zcpYNzHpwR+7XH1C9d9+EFbacPcXakfe2GHLcGX73s5/RFubJIxGioQC+JABYCcLzGXOyGcBx+H0S3XYcJJPJAgJdK5XKTyQSdYrEDF9rCde2uutOfjvNvAMeRVHC9f52uROVmoi+SadSV1VVVpYaY/oCmLxy8cJnAJCULVrxcPiXwuLitU1NTYNB1CFgTNxPp1fGmpvfG1jQdcrK3Rs9GTkMaTe9fu/evStysrMH5WZn36qUdWksFoum3LQdiUQ2Njc3i0QiUSZARzB4fty4hoApFVWVBxQWFFwYCUf6RqPRR7Qx8FwXDjFc1/0omUy6LaR24qmUI9JpAMj6bWBTgJTveQX19fVKezqUg4BVVNHJUwCn0+m/NNY3lubm550kBB3nUOg4AsHXPqI52WiKNQHA6795Nu6/2rnmlslx+UwybZKVhTTq3I66+b4dYSTskRN2z1wx7uyPm/J2nCvYUkacdGg8reNzSFcNteziXJkzdISH2h4SZnP1vhNFOHEnAdC+rbQthPAFAcnV8yR7FZN79RH6m695O9r6sNiyfM8yJIVmDePtXpp27N3vHnKaf/nci62a9neY7ZUH+6m/FnY2dsFBNjmsjW+EzLF0fPZGe+f2t1ekVm+cbhEf2wR/+Xs38OC2j5l7itcE0vuWjzVFXU+gkjETDAXgmjQCnmQtPSPtHKmbdta7uz5/icl+J1SRWnusf4V9zMqtePWjbdxp6SLzSZc2sujONJyPUm4FOueIJ7YfS8XtJ6m2vYZyoEhqr8nIgBG2K5ECAzpTPy/YZAJPhloKYVIgCQhDxockVkqY5jo2zdXJmFZbeOeu9/xKfN3zaqxMXAXE3u8YGDUnJOf+pZ/G7AN8F9X4y/PdxfjLB4ncqiq+9oMxIhBrh3vwxn+ssOHfTXQiIgagBNOrldVVFoDygWj/80rs0uqYfrRpx2J96IoD+TuxRMHsMACMDZtddlc3xJou5xg6trjH+2QLw7U2nm0Ls2jRwm+ffu7FGy6ZfGlfAGUAPMrMe7tX1mwhJZXgTKR6t2/0pcl44rrcvJwykLBSSm3zXHdueWXFEgBXAKgJwn4xmRVPIAYJoDk3mnVjdU3NMgkcxr5fpAEkk8n65kR8PYAPJEhosBGg3clU8rqWe16eiatmhDQWVMz1/PtramvzBbC6J4o0HUH73fAK4eHSvRXlMyLh8GFZWdldpRApz/VEvClWW1tX+wOAn1vIrX9j0cX/VAYb29hXp/KMaDM8hgdvb89i3dqIjLldO+fsqYwz7ftx3rF8x6wnsWvUiUQvX/9hwcjiY1SwbCRxANqS7S0orJ7Wgfs/m+kG5MJP2yDfCAUTX/BzYDPVje6lKKfjPfww/mw0e9nUZcJ4paKOa3yPG2a807C9eIU7qU7wn1fpWf3e5TPjsLWp7mPlHn80SEAq20p5e+t1KvFZBF2XDLtqnVkzN6j09NH+4G2NouKc+1XOmj8NDHXsfa6fe8hRiqPG5wYS2oexi0n7NeQ2rNrk1Sx9JStkvfvlxGTFxvVjQ1/ENqe/WHqPOOH42fxceUj5Dqh9Z6TileFuVLL9vGCPoRc4TlmRhCWa/UYmSKG0ByMZZDJlpYIzZAczWDAIDCMsk4KTaYhRv8fzmxrq4/HkUr+67uOaOBaGf8KGAQDekfcG2n34CM3ctdq/8NCDDc3ao8cTxDs4HtklCsf9xPR5zXb9aJMlT9kzjb7Oe4Mak7l8eqKOeXJP4IaNGFRwKFZmtQXovd8V0dkYAwAVGuaF/S+uwE4iEHD7nyEXLKF3VtxLDhwdQICjsFCFJspIPjH9txcbffyRYvlPy1iQsIWUIpqTk3/33XdEAfzS8gUGMB7drNWqQVf41bCbBlKLIH1ZwOXL9lRUhAFQEEjqjDoOowr63tw30if17I73vVGVh4q5PE+LG45XgcenNwF4uUDkflxRW+NkNPMwACp/E3sQlHG3n/yHNKUHgNLwmgC801LlhnWoEkHhUNKkDQCRQroGwBvN8fhHzfF41m9c8zh+LW/5lej/smCmuecarvPAaLOcug8+yHKn+m52j1GH+k48r2zm1sVNsw7no/adp7B2l7fwmw7xNm75Uvi1BzDl5nkinRW/fzDmg9ExbXHvYfmIzYYPIh+SYOysIHbWpNrLasLAfbBTSZhCk4Vwt2EEkqws6QSdZOdJldVjN0x16LV9+HPTPd6wPS9kt+086SZSWbkgwfAq60TVrFe5ZvfU4y7eksh/so6ebHeFfuHYjyihvvSyt1idRNfBN+ncg462jW2MTogANGBFyPNrXK79cWbDjo1vtanA1/gLEkWTw9YBI8i9/uxmRh7pzduyZFn7rT6ji950MUYWdIqfnd1uzJl+uH047sZZap8tLUlpASMcaPZaSpwI0BndOgkGEzNLQUJYIhhvQrqifKuON/wkdsbe8wXWzirC7i3fAvfgbPXsPRbdPuJOr2niRDP164dE8McTUFF1mHjhowMxsugvNOiwvvoeQHd8/3q1/bSNdMa4r8wXzUDaaqFkcyMQADzb/X267qlUCgAoD44Vg0AAzCei2AcAOXi8Tg8ez/rquwjQnEYajQBs2PsHsipGSFRmcgnm20++1gBEVV3NFtEoVrqet9H3fbZISs7NFX5dDSuAixHS0sQNAMqedRmj5G7UV9TJWqRj+wNeSQAKYaVI8tyaX2Jza35BT+ou5vjXGnrwYXBuo64YdoAQi9eKSlNf+5vgHXKEIxtMmn9DSiKQxZlVm/5HaxtFwLIhqRZxrSCMa35t221sYQvfuKKF1M3/JRX292ty/leJXvrjSJp5pM3P33WjWC7yzfGdplmc3bGb620Nb0vVlQaYK2/6inHtXYuVX3paI9etmqWzu5xoOUV5nE7nui5w+Za+ojbkKQCeXY8Gt4tIKkPQTNUrHgL1axjKy1eG1Mijehu1WeQnqQLC6g2q+WgqTHoBALS9YbzGmw/JDYuLTLOHgZbIGUESbNgj7VVva9S7P6gef3XVCcfEcMTNk9HjMDLVVKSj7+4sU+2Kr1VZB4z1pFA+p41Figi50Drtevs+fb0uXDetfa83FlD9ufqKbzs4b199iIn1fNefdsVmddNzKbFrRMD1juveLaZxRMdxh9xIgYI2nsx3yEsaxVowCBAW2PjQBAiyAfKgYADJ0NqFEYCwiNBUl3Ird61XOv19cHfiA+NiU94uNGxPAafkjZRPTDtYPXnBgW6q4XhES7sSrdwrYZ3OfPoEjfjR1ukvzTffdOhlNvIcWYg/0cPU5L8M+LjZKRbPp/tJbVYDqIHtCOhMK3zA+P9qYdN/TDBzPLq525BwG+Vn3qcYzfuj0f9vA1dB6dHo6raQx1+9aBkD4JSbfiKRTI72ff9JAuIea/h1Nb4AGR8wb2LV/g+BU92B6ooq7MZO/ZuAlgBAPuJ+khv3v07r7Y3mcywBRo8GKYf5gauNyXyof3deg0n/HZl9MDPYbZkHTIahEgA4DzloxBSvBk+4b+BI7cMw/abRbcK4pmVpQgCEBRIWhLAh91vxf6vcdfLB8+jI7+axlO/gdRSTzIJNnK5V2Qcdmt2p25FpkPfkhCUcveo00Zxu4wmjdoCcOiYDpVOKGmFHu9ic1xDmmw3DZqQghUcQEEI2h9JgVZuNvHLi/H3fgZQJSiibGUam1yyrOzC4aa1x7CtOn2jyCthtjOSW2hGnF2RzgpFNnm6u8RM/PuYtf+SXhXlPpecMK0TXIcTtX1qii6atLqB8nGtyho1gpzBIxtUSjiBLMaPac3e9+4BfXfdw7bgjF+KByfxozQ300xGnpuddO5Pfe+oDdcZz3fjTW4rQfJY9pjkozrX6HHUH53Tr6NnZDgFskSuUHQArhTSlQZaGbTHYeAwFZkUZg25FkKzas7ly9aKp7u71t24S9cfPakjcWbcTS2rPQcP0EVfJbcNHy+FvPicvOP0l+08NJwUmHt9f6jv+zJd9PNFMvdDm1KXSPvmXl5C6HnrSiRdxN7qKtnVtwl39MHhZF/nI96/6b+b2HjC1vVvXF4A5ZOL14v1XPsW1t/1VD17b5V+uXvuP9W5yEEQUAFNOy3Ia4ORv9pf6J22sffj4GOv+0W0lZk61FKUkf22vrBQM2BAy//aafZlr5C8EAAzFUHCGkOZLTDaL8TQzGNVYi08wiVusMX7EnpYoYiSjIkMOGMzVeNcwtDkPo/g0dG3Jc/2vOahbyFyHBgAFaISL8/B1ix9u/leSA+OBjQdjXOj/iJ79UIalc9aKsLPYKjIjUJuHsE8m1xbZtm/zsPSXVDwgkeT0QZWW+8tlJPO6VPHOaU/AVNTIcJe2kSPsItG00jSyZSoBcAHSUkofAlAQ8ZQD9rRL+xbcZHaVTlY6r22pJSMh3Th1KlVZ8586P8Er4g7Nbt9GXocGRFDfQZVOuiXllETZ1NaK+lfuSa9s/HYhf5XWd78mLv3pLXNUaLGpPOKqUKrAPS6QN3SkzOrSXxsYKcOShee7u9+ZGqt6+0rTs+GF14ddt2vQ+pnu3jm7+MYPKvHJUc2qKWskn3H1dyL+cqeCrm2bTvHbHfJQpO95d6hIUYknPAZpJo4RCwXjJ6GMC1tYYEj2WGgOBMijNGmSPtdUrm9e+NXTTtP2P5elk1cVvZx++uCnsfu0qackO7fpI/HKE/L4E5/GlrcdLODR4rmFHydnDTjaNfM8rBh6vtrWcUvgrNduw4a3jPvxgbtMGnAO2IOyazupMxN29JNdDc6UQIdeVxcd2Gd8NOjlmiLOA4DKirW0/cudfPwzB9GUvnfS7851348XsRQvgvAbHQm8UOCfHuvi13UIu/DlP3SF1ZSpGf37gJTvZ+pI/35nCCRHjgAA7MG+f9Kl5erf/Px2JhMPAMPfbbnwJ2j6tS8DAEz8H86e4/7udw8e/v/CVDrQDx00ByoQMP3f+cUXZY7wqKpKcWNnOzLiKJTVfz1v3uEfp/sFXJMolNDpBsuYHSQUqbwJpzn+5qfdrOv2vLs2X6c6gFIuUjbJFJEBSas+DKDiu6Ow+NUBuGo6MQ2efL6wSnOF1dyYes9b98bbG/iZp47yx5U/anZ2uThbRHuNJEsG4Xv1uvnpZ6xKfJ+zles+uzkncE7iVv+QxTWGZ2+24jxltCoYcYYOjxyn/ITrK8tm3eTpyhnvNaarplGH4u//3PtadwJuow1rVqqVNbvkbrmPDspJpbnnd6L+4TFdqIjOjrYZebyX17VP2o8bSwdFQBtoToCsADyfYFmS2dOsfRgSAaWkK3VzdcLX3o7Eqm+nShur2+TjBzQgRm18cd7Xz8p+9e/QU3v+ylmf+9QQvI4fxXN8xazh/MsR670rOuyTuVk5fHWvW+n90851/4QfvG/QWa0Ko3THoX8ZED2s6FS/yR1i5UTLZHFptp9yAddHmgEppZ+KZRjTLeqifPm1fB+uFZnODr9Tov8LQhv928DXb0iv/0kjhj9UH/X/PzBj0WIzYxbA83enflxWQblHDytPyDlPpDsWv+RYPcqSuraL2dAQXFoWSue0e1EhVgBTXF7Ffu1PwgofgaAoSWMhYtHjMYRiVnAbmtEvBCNYk23VeAC4x1ShcY5vg/IhmkPsV+yxhFi569Vs3qV70gGRcuKH2hE+/rDEDDr1Athdc1T9S29bVfa38WOP3fDTS+eLdwva+cd8eaZaO+pQ7l0/ZVC4y2FXejkjxwm/0bATsJVXH0/t++aNmKl4I/v4q1cdM6OLOfT8CWLtqlvNyDeuBnefK3s5nOQXDsxOXj7mULvH4MnCKutIdvseMM2GLAhjGqFMFoiCcE0TKxbGE1JygMj4RngNFQ3SwzZr8/fv+BZ+bHNIj7Xln21MDBvQQFf1PNRuvEiZD965SE7Zt9WnPbMBCvKWtedgjPWjRPIdxI99B8M+YFRnve0NOO9tbDyiqH1uVVW3is65R2X5gVHppNvJatchL8gWZHMafirBBhIsguRoDaM1yAWDCMHnL+anDryRMWkxcOV8PID/s4jOvyHzP67n/7GzLP1DwQf/X8tmvwKQUwC6DYjaQCzjIVkArk+fQVdOmIT6c+9TyRlfGpw0rz70edmKhnTFJ5bd/Qo7+4QTk8O+WTi4S2zhrJqfOR3IktQzv9Jb9uHzwQ43HwcRapeumwdr02tc1PcbMrfAExN2/czh3IPZ6pzIxRZU5NaLJclFYOKQENHOOr18qbdg9xffn3kSvy9Pl50u+sFH4WFRDBx0ugi1aeO5a9dwbfU3NDa9kM8E9bkU1NSHTLADUpy9azDlHHm3Hx4yXiCpYVtpU//LChPbtFhs3vXw7Mtm1R1bM07Nqu2u7951Na586GjH/rTe7zkeibpnqV0yD2PkgJHXqZx+/QxrpN2UkW5I2MYDSEBLDcNGQ4QkW7Y0TXtdE9u7iYKhimTtT++l1/H32a8cXVk84MvkV2uarAmlne0jf56ivz7lTjxX0V0tPbW/noXLRXTDh/qHz9ZCfZgvXm26zFy05s/+qIOARW8NLFh7KLqfnkCf7FBiQqJP54PdcKRQWUHASMimhDaeR0khyXdCRK6GIIO07QM+k8oGoRqIzeqhLxl0g9jrA18l/3Wb9nu06L8SXkAYA0P/hPDm/3py/12svvi/vBSOAm4MeGjk+zbmdUi/fePTeP3hCSbIE51zP+he0eeCu5/nds0FIuvY09OJz3rkh7D05A2rXe5eJOuppDnUJmqL1MKPdKpe+gKgPnuouW4exDgQ6j9ZpEVFB5L1DQCQJ3ei3sRARcF8cuctJx1fl/7h0NglZ3+c5nqyjsD7/L6YnxsOXXKupeU+qn9jiruv4KvO+FktntKfO/7lQCe69vBEPLCyh7AbjuRo18OFZTR7TNg7awb2/vxxdS7m2JeNadq67B1Zv+xWP3D5gxSbPVidNWZF+skPD49kfYfBkfGH3ciyqJcK5neG36yFJwkCAsqHr8EMB7BSLKAkNTU1pJq37gjEq3+0Vu+dlkxgY9vXuBYh4ueO+FKdeRms1OUL/WOHt6ELnz2aOg7sSOXrc/i1Y6f6NZ3+JN4f2l7e2e1Evi/wsV/8A5A4Db2rYhjabd6qQ9O9eoyjNBVrx3EsKwyT9nyTdIlZCpZKSjawtAYRwxecKYjRAooE2wIU4cdwwievqRmpbXrjWeeZy9059MK/ONbV/0YC/93+ZAQiA8MZcSFRCDYn4UL/bc0tDIz4J1aeAOBTXMMn4inRGSVmGyp+ve4YdMV32CIAGAEijRuZ8Ogfkb5/p4jjln//GHdgMCSSLU0F/9aNxrLALkD3Nd/jP9XtLPxy9pFUHXhV3UnDPOfye2So4KhtTQ0z34zIQDi7zaXXb1z70mJUZ69ZOrRbMLC3SXQLmPmmfn4HF4gIRtYZ4p7EXyMniSuaYBCS0I0LVqXrsQelgl7veI5hwJbRZFE69fOudBIzwmfku5U72kTvsq9t/nZWfrbJx0hTP/NrWHXNCuI7ddorjcfc0UYcUH+xij3/Sqpi+4AOxXUNB7pdjj8BlAsYKRuT0970E9veK+5w0KLSYQuaZi4437nzoCl6UuRcqKldnce3bE02BXqWBAJzjkkXjzyZsgceaZGEduPGgy3JtqF8DTZxWCpIxteI+4r8qoXTA7HKxbyo4QM7H9U4FY2hkYC5tG9w42wLJSMGux0wX4w4fJp4xvsThep3iqzl0BcMfcXvvAz0yjLSaxoL9X2pj4uqizBq4CkY4nXueXSIgp2Mp4O2kwUYgk77jHSKBbNii2C7BloAviCQJpDJKK2IAQkLSY6zqYPXjLbo+12CCya8jgnjmnVk1lt44XfqusvfKLp+m+b6dZ3NmYg5SRKk2XDJiO60ZcEa/rtA9t+79H/3+ol4CgDMNlQIixQ8zgTnvsMWs3/AG3CLzP0PSfK/I/r/a/vnDsWEY0pZQpBIGngAe17m/F6BqTyuw2iUzDzSzB/wPO5b+jPUeKgFTijd9+be89IXLutrc79j2gbRb8Oxfddkd6p0k+WNghyrQdjBZpl/0a3Z7jPvF6zdGyvsFlMAwGxSdljZsrGT1yA284FZg+V0N9dF/gUnEyo6162at4mabL/44Lh+kB6ha+JPBvN7jDvNCJHftPaby6J3vbTuy5l/EtblVYQTqlxv+dJoMH/VID/rpCttq/dgQjOlmz57Lbxn+4s/HHH1qhCe5gO2dXAmPL4z9Wm0LNyjb9g7f+mi1AttC4eIui0T/KwRI8IFA8aSn9balzAICKk0s/FIQ8Oy8uDXLlrtxjatCMjQmtia3Z/W7cO+tm/ABTOwMahq16Xpq3jSPXraTeh1yjlU+tGhyGvaaM3u3ca/YjJctAf4HaC2ggJb7kYf260ZXVsTGRXo2m24kJFcnyQsnQbbCuz5xvgm02dGSWIwSBuQEBAaMMRgKSCYYGAymnqjwdCc9pACmikd6a3HHr0Dj1x7hqyiFwwQ/l1adPObfmcSAKtM7bkog4M4bBGDB42U0ZzJs8nMspKiQCABqBaWczCzZTV8wAQAkQJ0F8CrAEycgz4oaTz+W2ifmUFkyRCUKEJU98mkuNiBQhq/+22Of7u7LP+jiIb5f/mszaePfECPT3wDP747EwDQsSOwfj1witqkTu51vG4eUacjc9bhwXHNdLK90/955U6Z+8i2ePFSnu7YL5aEXHQo7rCp5+eDLtpw7pIXgvAFgb3V7C/8zomhqDFXbh/U+AvTbCBpkLSVX5OMbpWFxKjYerX3tXNjNqdrd7ChOQUnJFPOyedaVv7F8QuHX2+J/nnjPH9dlZeKvbMmu3jrhkXT/DZr19rv9Nlqtr21xHmvetUQ1emU6ygweCiqPviAY7/86DR738B6dVs2pujHK09XQeRofmYiCHuTS2eR0z+vcJxX0OPCUPbYE8kPGh8JoS2tpXCkdCWEjoPZ83W8bmtV7VsfpUN6tVfrf9/liEW1l53aDXcQi2eWPW1N2DrMn9TjOT0QV1l5zTtF/+p8s7tvvTVixMIkdyd8t6ke83fDGjAKHdJ3Ro9oejAyLD/b7sltDzwQJpMlFqkk2PeYhA34PjGRYCEANpkmkZRpRAGRseK/FjcTZ6riWAOSEApGOAyUb7n7FbyQaMbslw+FLqsyC14ZxTj89x2M+9WKSwjyhUEX01bNw1YXAAogIzXQeQBK9/2yrU9uNLu75/ttg0AJwEEGPGZmB4QAERk2iAiRrNBmi23bCRXWuxuBDS0VYCkADWOoXQLw0wn4egdSvzGRf4jNWv9R9koAjG3b7JKLi5bcjFQq+V9O6pybiyNuPp6P+XHir0RfuxOMdmVIbu6YRtky8dK9d9ATo6abvRQ1jzHp+48skcnK0Th26Fcbc9dihg7g+FDM63NE8rONVSaP/ZI6Kl2O9dJethI+Ct+/8XT0mj2DAEBHRRqe3mflGuEBovuOp01W+2eyfAmLXKzfc9XjydfGFgS+7Xq/Wb3hT1l+3wNPZN0/ENrwyheLj3o0HV72sTWsYIJXgS7cJGmA7HTMbdLudqhu+ORDz1s53ZkZ/AJVXtPEF+cEBm1T8qGp3XSXP92nH4g956R+oHZ2dpfzTTg6gHLHT/CQAttJdvwQlMdSezFfSxM3OlWZ2PDOK6lcrC/egR+3HovGrmN/sHsFKgNX67PczuOVuOdmzY+N+UL2GtddHb9nvD544GfcY9oNGkAycU1BcEdHRM5/LHBI/IqCCfG43zla2n9UhG3h+2kYYcFzPfheGpYCDGxK+gxbEKAzCykmzmgof+uQSgYZBpuWv1GmEg6skWhobmhWaDgsEJIbh5zKfZtsipcmxZpRS82/Go+i/6Dr+XcRcUnS0kHhIeEBQDsABwadwJhAIDAm5abb5mbnhKLRKHzPy7ThIQKIwMbAsAFRZtMGKQR834eQEp7rorau1pVS+QDtsy21IdYUW57W3s8A9gHY2x+9K1djnRuAjRTcP4LLjr817mgpkwTaKsgzCosKw/gnVl1mGg5ScyIhGpsaF2rwTIuE5bHx686fRKs7jeXNd16knvuql/9ojyp56OauVuCK+e7NN8CM+eRr6nnIsXbpZf7FMo5ssSrywlWnBBqO212DcXugvSI6TkjKlR3Nm0tdBLfdWJE85o62I1SDXyj3Bb9JqjHuY4d+Ya7fiYEWYXQw5rzxYd9U3eXJpfZ1gTG4ZX3sRBlEb78B71TJYVut1HKau3CSOO3qKS6vQl9kj72Hogef7DW/N1XWbXpLpHospBEbYhfivNCEug/pxcBNqVmhezTPpyA0hvvZfS4SWUecKRCB78d9CBIQJEyiMiZcr1bGti2v37nk05jGig4XDNyCb1d61/71e9mjfRnFIt31xY+R+qUWnFh/tclrXqFKnkohVrTURNLkd/iQac1EKmqfj7JIPsbURnuMlNHcEXZ2h1x2CdpNQ+gUgwXI9wieCxiC0YD2PAg20L6A0QbsGZAG2GOwb8CGoT3AGMD4DO0DrAnaMzCGwUajauHP347UOLa840HehT37iUu3XU2jJ3zGl9/xJ/0u8e/Sov92K2QC4GjW6SwnktuUaDwlPzv3AiHFMMdxKBAIZDqvGKM9182oYkwm0r6f8MQAGw0hBHzPg2VZ7LkugoEAykraWEJK2zemKwFdpZTHuJ4LJWQ9G161pnH9nQB+MtDyH9b9v1f8ml1oIToTUVleXu6joVDwf/lhSyXhGQ3dxE8DmKnBAhc8iMhhT2HUD0fh0Tdu0buC99NBlgx4PSvapl+mmkcCnRvueHaW6Prh8JR17rLPPSt1abJvYsAtaP4u5OdJNNeBiNe4HWh0iBifcRsGAGV0E1sI84ahmi7/AoM8UNBGhBmbv+6bqh1zzWRrrHle31aF3HQQ3UVMLrDaHLijrGihbtpUEHiedqdOW4pSKiw8E4H+R6aSc1+p3bXpybzwhbt7j3gtMbR+i/rT6g264+Fxt/4i4JMjqMjtOewyE2g71rEKhzApz+hGQ3aWg3Rj2jTtWo34xoXNuzZ8apWhPO/ct7fl0SR/wwGVykYXC9naf+e5RdSp/CuRK+E1PHugzOm1Ug0980f3q4lA/A4KDV6PHu6l1JnHDL0kTdyzybbDwXCXNjLtg11Pa+OSlFowQOR6YCJoFYTvZwyQsBTgu2DyM+44AQzTYtkzj5VIQAiDlqu0uO4ZrSexgXJkAru0e/HdeWrmly/pVxc8RWsnL1B9KwUD2vweif7bXuRWSzeYg5rqGy/Lyco+PT8/zxFCsM6ACCAwSzBnTmwh+P5tl4jo122YhBBwXTezUYLvg4jYd13OFBLCZGdlEQAIKXPjsdihppHbtvCH/kgkb1mTC2Ta8Oic7Gxf638uk2UARhvTsnVzpiKImfF4Fm2YUM5lP1mBMW8c5j41YaAV2bYyWdNu7ElWz8adaF7+bv4Tr6h2n3RX6DJ/V2KL/EoFzKC2e9S6dKdENXViVM1sX2132e01rxkSvHHfcB4FkF8dpGBeojE+cZlULjxhI+oCIScZ2nrUeKB87Mc0Lcxab5NDHGMqa/x2P7XxFmi9V1pf9ahJ35c1tzCVwJEBN53H1tL3ahfNu6PtaVz9/TpSD6ehXsg+WXcc9XMKX9wYOi/6WB+d0+NUkX3I5VKGIvAB0gTDPtA0b47w3LWV6xa9mFuKxrnl2HNCFPii4Sbbmd/OdmZN8tvf/gA91WYsc6/zBKa8KdER8tg1S1wUQLsvoU/3q9C2uH3XE62ubQ/zk34W5XQsI7JguQYyHdPSsHCJpBYWJBMkp+FJB2x8CO3DMj4EMwxEJgIkBJgzLZ5BAhA609vdEAxxpuUnASQoowIn0TK+fc6S3HQTAysazyJ+rog2wuXGs77URzWBb/u9CmYIBAdBSlPSZeax2ZHoy9FotJNtWZqZteu6ItPzUUBr3dI1U2QkcMZkKkpa/gZmqBbiExFs295PcjAzMTNICCIi0dKZ1ViA8bWO429C1z8SMkMgMxlmNDG+T0T0T59Xy64y5jeFOAgjRPGdM7lX41i4K9hMPGupeKD5LfNF/yQtqfzreju1dSSEWXtxzkOrJp/5tpr+8gXW3O+ji7qVNXbVnt9RrbHKK6zjVWJ7IE0DsKC506oOamvOJgDwCt0GK4wm+fNQE0hvp26H7Ao1ZsPNrszfcsUL78nb++3zX3uqrDCZy92w2fq0eOhfkk9UDAhwiUmMaZBZQvsTpEI/+E3zaMe8b0XHTQ38w+Hi896bzGmHR8xp35cab6MsTbd5bLAT6nuSFZlwOuAEYVxwauUinazdJiE3iQ1L3vcC2Fd67gNJ4Dx9wrBSa8fX3RAf8rR37JajuHbvMypvtRAT+69kbH9Tw4LGdBT7p2BAVQN65ATbDCkdPmK8kqJI2lFwBPDdlBZejAgCWpHUQsBoAvmArxUEBBy4maokaplajQGgoWh/uyHKrM+FARsNIgMSDEkKGgYWAJ9NpokBa4AJzCA7h34+wUBdgDt4/WuV1nXbu/kvH7WL2m/dBeCQ3x/RBYgMmFNIMICx4UDwzcKCglIpJGvtC633y9fxq5XWWkPITGdbEgKcISykyMx41PLBCiHged6vA1y0/H2/9ZdSQgjREgaB/B2Kgv6/f477J7r9fvx/AxYsIBzl0rXdqXKz1KFBMfG0PEH3M6tlVmLFYoW2pcmQe2qgPln5SmRS+e4lRcFUQCcTDr4PGQxEcbK0eOe28i2bNksQKg10WQoBAwCRIr9BJiDtG2/X+HI85zTk+35hbS25VrpTbZm84Lk8i45pPMBxsWyZ3an8kKUC7o5uSZoRkjn3LTzYWOjPCXwHO/9rOrjG2/vJ2TL7wF5Sb2vk5k4v+ViMXjpHHB1sc91dwlCAVcDyUmtXWomVs9GwbWXqK8z96/2ovJfZJJpAuOlKuenKMvXj8gn8afo+fLNiEAGM/NOHELBTN140yPYfRQ93A4ayjZ52+zPOLygNRFl4IBm22PXZ9T1D0GSkkQYCwmMQE8AGkhmyZcNrZoYnbWjOuO8sBCCZ2TBYa7BwM76lAAkhIIQFkMkURCkDzQwPBN8IECRY25AQ2L1x3cpQo/4FUPqhFb3scDqXvpl4hfzs+7368q8P/peFYf9+EoQAk+D9g7NbwHZebFNaWgpjjOd7JIQg+ZvdUPePX6XU/tdYZDZHYK31/jU7fK1JKQXf8yFExrf/O2/gNxOHMSbTW1sI/ndvUPi/1azz//z5sgAgclGdhNj6+Iuma+oCvOpdhYvEM56IFNTTrtTHAU4frjtg0t5H+zz79WNrE2/M6xsY+Ej27tSfFnXwpM6K/vn2fe2sq3Vdbr1mnxraNvkojj4PtRkp/DBWs5vPiQImual7iotqK0Irc3Dj4dfJuuMai3WQ0talL6066NXrea66BPLACLC5fJwEhqYb6ZNok1mIYTAfPp1lnXL1I9zUeJlJr6VQwsuboPLbDXMiE68GhaTRO3c0Vr37QsoSa2t/Svx0wIiBTea+Ffzn+04SF/hkvZuCKLhuON9T9J5Z3eF0w0QGe/8qMeJGlbwC+al8a3h6fH4Pp82QSUG7tBf7BIgAafahjYDQaQYEKVgSRkH6LZMrGRihwfBBrAHjg4VmAx/kp1nBZMquSQgQE7fs9OsLB/DTgNcMeAakCZqlYRI+p5tTvGPzOpFCg0jTPq3FVteWOxojqqpjx9g2HhPZO+LDGG06K83Nxuh51y/l6c8fJ2pfazR/H7r/PRCdAALxkeERcmb8p1ts2y6RAHvGkMxsaQzf9yGlhJQyQ2LfhxACtm0brfX+Xh4Zi2ZM5m+WBaMNLKX2E9v4vs+SBLQxAuJvVi9j5QUyq6E/Rl7tP4LOzwP6EuR2e9e4x/fBYYtHof3zQNnE6tS7QHIM03tUgfMKrll3TKpBzLD71no/jitS3V/rvsS7ckNw8yeTxMATCjhraxfX67IjdvdRGuvHfwPqxd5igHrHI/KjXlWmq8lK2Z7yvn52OZ13Kbl5TAKvdF6BNy5JcHqckNYsE9uaGOrkoaddi48jQf7l/GjEunlTPBi+GukFuNxPb7q9h10y4FgRGnaNEOFsNk176vY9dL9IYRlS2Fh6OJKlbTsF0LzS3qKLzOKd2ZyVPNXsXD9NV58iMBk3KDHjDKnvg63n3djXf777KZxMFeQGu/X0o/0PBHvw4EOTC7DLYAHpGWIGCXgZHSZlct5GaCO8/X6pYQ1mkhJG2IrZQGhNEAawGH48Bp2Me1IyCbCxvWgTJ5rr3c0rl7sWvLSLSu1hu2SUN30R+LkndF2AUQ+6BEAUmP8hPjlwF9o5QKcDY+KwDt/wi7d09FZ/3UOuDRzGKVUEvTP2L9urfyvR8xBEHSWRC4U5yUWDcrKyTy/Izw/vT4exyVhby7Kgtf7V1ZZSsue6fn1jw//T3nuHyVEd3cOn7u3uSbuzOUpa5SwBSiiQQQhhchI5J4ONMMFkjE0yJmcEJomcgzAgIYKEEAghBCjnuDnOzk7s7nvr+6NnVisR7NcvfDa/V5eHZ3e1szOd6lbVqVOnTEMajhSiBoyIZVlpAHAcRxFRvuu6IQCG0rpQaRUwDRPBYBBSEKQQ2nYczcwkpYRWKlvAVP8XbZwy5ZgzxW5igXmUOuSDDzm3Ryuq3muiz6o388Ru74oBZ73Ehw+c8MztJ/bc10no8Scd1zgH5TfKi8Inq2sLStIjEQfeSyMHd7ivrHyYj+tWB7IC2PuUhBh7G/NSny3O3BxUhLNR6H7kRpZ+BtljI5364eRaFJLrGimx8k97o1scu1hJVd64kZ7t7udmvHGJPGm/6dbZE6Yk5i94ykI4OMHMbxvnBPc7TruNc2Ltb77uZ6wuNio3to2vTRVQkwTulxd3u9FZ+lI9Fac/p1dfOlrxtaT78ivGCxdSsN+uKM3ZdeAUOjA4CrbOFSUTDyQp4KZTYDfNApIMJSHZB9ZMWjEkBVnrtOeaSTAzeZrdZo4pRBqsNAQpkKMAxwG31yaF47qOpA7WSLIMJOyWTcvTKzZ+Ew4gaUikm+qxyoqjrqiub40Ytz6BOmBLEfDNP4BjOUnAVRi5bJnsO13hlWf+oWtHb8GCQyGOSTf5yuKT7LkFs3HeUSdq+9g/MY8fzFcWQH25m5XRCf0vMXTh9Z9THkyOk3NqYWFhDivlZcuZ6oAQBK01tNYwDANKKdZaU0NjQ03StmcAWJzRg6sHEM28tZudje6NUkMPAH1Mw+xTUlI8QrlqkFJuIJyTC8uyoLVWzFqz91p/lhP+r8e97cCs84DJLwP5fiCS+nkuUK8QsPEx4A4NXHHqL2vomdO94IsKXp4XwZCLgJX3FzHck/iV5JtyJfLoM9ynPrnyCosUf26tsXo7L1HVJVVLNl3J51pNX413fPMO5PaLbhdP4gGeMmS2mvbEwXK0byXmTwtqzAcnpjjuTPcQOkHdpvetT4o+ZZNwctmblJJJrDt2Cw1z/aqP6yuIKQQDrebn3Uc47Ys3Hx3oO/9ge+Ih98T3/vaFAlWJKSlKDHc01iP5xiX5Njb7Hr+lbtOhk3VtaIyY8ELQXPTUlWJhfhv6H3kk7sdbmnGMg6F7FbW/jYJVX9Bu5rkHHZKEqESg274wCyyLCdpxlEppEpqIJMDaVtplCE0svXoW28JngoSU5EBoF8waSjNU88qtrqMkQySYjagQZqvW1JDa/NnnbitaI2nUGC7ixWk0VQxHG95ADMO8p3YugEOYAUwzLn97nW/EosX6oBfy+Jgr36VhM1/QjQdP5Lm4TecAhN+Ox0PvnkZ33DuJJ31cxL8b9RmtjebTa3Pv5776Yp51uTSmvnyXOnnYFf9dOToDBAVOQvnTyhmvtWZTSm88EW9DiLNhORExa01NzU1LXdu5GcArO+aoRITfM9ODROsBrO/6e8d1jNq6ut4A+gPoT66eqInHgVFcXlGJVDJlASjrwtL7F1f4p51lhunH3+uS9Qqmyguz+D/ZXceZpr8xE2r18o/3p2Pur5KnAVzx3QvI+XpX1Ez4jv/0XT96btFLTCa7x1Wdv/UFc7p15GsPW/MX51He1T308I/+gpm/v1E0WF8h2LGO3chS2bJYYf+mfI7e2i6uOH6qOP6eB0Xskvfc4acPpcSyu9QF5SMxSIzTE7BFrPvNei65Y4RTe/DJi8q2POlGVvQJjhzyRvLF99J84iqMsXzpAzUjllJ4wQ35NpU1PtKEYWc5dv9yWe9MFaviAUTGThCH9H3C4b+Txpahod+vpUIl0Ut3m7drMP/4M8FGufaVVvrYAmnFcNjRrgagpZQKzEIrbUgInxSmBksNpb2cW8Q2dDjttetswCVQG8hqAXwtzqZ583KrUZ02kUYHImlGZG4NIkd+CNUI4IsqIGcLMBDAQ3ctE0WBGyy3WAmpUzhtabuumdaNP4kU6QnvL00H5wIHnnWB2IJT8OJ3j4i114+ghQfcyKfv06YZy3Di3zpwZ8jCZQcfnD512S5mW/gIfcTrxeKEyfmi+BYllveJaAT+94/Rz2rodoZL3ga7sltFZS8pBDFnzCE7eI4I2hvDxK5SlHZdO55KPQbglVDOAHOYacruMl+FZR5PGXQNH1x5CNzKUyg31B2JeC2E9wwLxZpevPtF+8RLT1ybkbpHUzTyQsbbj3OBU1LJxHgvEUK2K078gGhF138nH0xOAwTNHnnR0Tx21xFc19SI5tZWSqSSzJ747w5RAmPHyMFn+USfqirdVN+AllhUdIrmbUPZfqjX/mfadL3PaB2VZgBcd9tWLrvKYlmgeOiCodRYPgX7VN9Gr42ZYt8+/ffy1X7x1Cshin3wGczlnw123vvwZQze+BDtbx2rPnr5S6SP74fUihr3oCO6Jov3q7mXeAf/5+nLAetCICeIqf0m6kH3zMExc4+k6qHR2IgZMWG3B63QkA0JrA52P6r83X24EAFqFXPF+m5LiuTWjnCv34jop2fJZamg+JZK+NSDP3M4RkD9bDiLzW56f4xs2bjcye1/4iUmBQcbyvER9SrVkLA5roR2mLSQggyTyM4olhDY8AGJjbWqbc3XDrElXW4z2BdhDjRFIus/o+q6WiWQSDagI70IscFzkP6QV8t9igc6wQFe4hdcCNzMLF+bd525a/1jdGH3JgEH7DOhS9YdxMnNBW7fpUs13gX6FIM23gcGE567qgyHXt1fXLXf4+iW8ImFZZfRJYf/xcRHD6bXnO23zIpz3N/dczD/7t7BRFyk0Hi2g+DlzNOTDDMmcSAQP+gNNbeH899l6Cm4nm2AdzFNMyzIC9OFEJ0ls2xe7rouS9MkBuqFEAu01sJNVtOC2Ecp4CZ8iCb6S8PzmIF+PBELRBqtUGCtAAmGC4BPvPREAQCShFSsFYAmAE2hy8/4pv3Op18GsH8m7Df09uqqYgfmnjcazSuoQHTvRrq3ZgvM6bgNzRqmZSGRSuYA2DUTQXQDUJj5W525lg6B6hi8BcDStJ1ea/l8iMY6wIBGPE7itEeh9zqP8+FHO1JZPXj6pbx/4dc+BoAnrjb4iatt3n8CuPnzGTxi1ldYGzSwR3+g+U7h5vydEPhsDCqqFjh7bF4A3HyzWHndcbySrhdAmw6cQHRn94AGkmUEHECgIQz2Zfrq0hL4LMeWnzqLLk7cZ1xBZ/2hlGuwlE/HffT0bhcLC3AaGjAkmJMsx0Ys9PVHPXJ1BwZtxXc3jTZO2WOAoDOYOUh62OgZONE6PIQ67Jr0YzAZrt+vDzusqO+gsSDkC2mBJUO7aY926boS2gWThG7/+B030byViZShRZtA8WYjvrHantO8MpJCwkghtawUamIpFA84wcHrL2HdbkB0AjDnBuDT41k6VdB87CGW0xTTqT4bEXi4WXzwbTdu+8ufNG1eTBev/dypQz7WcS/UPv8SYou+BAr2IewTQeSNFZLTPlj10F+298W0fpNQg2NJFZvo6HG7+Dju14/0raM+V49Ss0YeL1aOeEDou8s0U4Oimqs0HMPjmPlJKT/QES/4WZ6Dnzt0B2yAgRARkda6M/xmT++9M3SXhgGlNQwhNDNrAKwMm6HGg/h1oOdJhCih8MOxjE9zNa6OCaTT9APgmlastQkhAJYMxhFvfK1eAFoAvJo5R+X1EnUauN6B508E0hpMDpS8qqZW3VoDpHABER6pXLJ8xW8YfIQpjX4VlZU9JZHJWstsDb/L5gUiYpLSjUajba2Rts1r1qz9ioGX84BF7c1I6Gc/BZ791IqEYCO+3XCGn9vYCZ6UtjzimSrly3F5lxHgj+ehSorEoPmt1XHJZEoi4SqthRAUCGzimi3KeIPkRubr1kvyC+3xjTgJ5Dm16alSyuNKCgqrgsFQmAhwHAeWZSEei0Wa2lqX+RKxlyr51ul1iMeELyS+fC6JF4ISx3bTxsfBXTevHtB9w5+7fZh6lJLihNNfNvOePsEpvn6R+zCm4aoVZHX4qZ8MzBpvHthzoAgce4GfzUKUJpOspSmkMJhVSumUSjc+8Shr7RBRTDmiBkQdQRVoEG01G6PfoOWBa5H6MwDmDYym60CrboG0ANEKHPAnoP9TLDA5bL0xCHhtluSJpSb5W4GNTxtUZmox3ZfrfB4ZxvH370RhwxbVuikPu910D/apvFX0vPRwNcyJ4pjiCO1TFBXyuG+Qb0UFBQnXKKH6+E7C5eWPgStI74fPvbtRCqARLv4A7H/vLaBvGZyaJuvb/eLIK57SW4NlgHsU+rofAZgIFEhECWhd1Qte5v/zNFH8LMuEEA60FsDxVVU9nyFmyzCMznp59mumCsYgongikaxrqP8dgKd2m3WT+G7qE4Yxtpi5IsRCjddOUTWJlnaopn01pl/G/+QcuIu3pi50XPyA3hxgCAJA0oXWYOqPAlqD1uzv++RK6xRH0mmlxcV9/H4/ZR9qx3G2I+oopTp5ANmNjYjgOi58fh/q6+tjtm0vUHb6vrR31zp6ISghgrxJN3vHHbKAuN31/ChD82UhxOjePaq+/DGcIVtujMfjorax4XYAV+YhbLUjaotwgHxRh5Nws9DtGQV5+U8VF5fAdb2QUCkFaRgwpERTUxNi8djd3cOl19a01dkOoE1pjHWU++fiwqL98/LyLAI8fbMMd4G6RG4d0XanORJ5V0rrQpt13ZCXzhVnrX2Izj1HIpxS/On9M/S+t19sAE2kEXNwyyGB5MR3S62qnvsKsgeoeF1E5p5/EUQ4l0mmXSey3ql/9AnTT4br6hZTo5mSqHcb0exfhPa1f2lzS3AneGM5HKMUDy09Hn85JAsYsTzC/UjkGXN5f30TjXcge7nQ1uNHuGjuRkv2mk8t7R26jibTkRse1g3dfbBTYUoPrqRd8r8zkQKlpYCyJa8wpPtyvySqc4CXsm3DtK3TJH0AICVgzmLEvwGCI4D3icz+BDPZEz4dhEh2p9xRS1ktHIDccCjYPzfiC7TWW8urN9Sv6FNk6eEtzi+G6fyshm5ACBdaE3BCz6qez1qGYWTLaF0NgZkhpTceNplMoqG56TPHdW/xAZ+ltx9qYFiAsAGd6UjpKiHFPwj8b/ud6NIPr3cw/u0CEQnhTeUGu0bAlyeT7vH+3OD1QcvfPS8vD65ymbIFK870EGfEpLHDG5MQXpNyNpLJAI/MjKbmJttV+oNYKnENgKWno4RekG0ERdqBs2PTzf/W0H3tiKYFIPwwdAKumdGhP6OooPCpwoIC5SoldIaIlDF4x7Qss72t7Z3G1pYz/JCt0jDGxd30k8WFRVV54XBIewR8Am2TwlBKZUum2rJMUVNbi2g8vh+QMwfnPCn2XDWFDxgt5fVHFFJiv2uVfc+jfv+JG0qlL13BUaObttwyn3/fEUbaX2e3z/zOICQEowEWGjmGqJOkZLqSbS4D/AqwfAARU9HWM3CrfEYO1H3p49WHqTb3GvT9PEzNla3UOPQCDGtdIkYM3SAGlJFKri7XqVofD8zfJCBzRGrjMGqYfb5ozQ2o3LKJ3O/aIpc84/VOaiSAXYBECbC+A9iyGDjky1oAFYgdRLnaD8M24IMLSxvwKQWfAqQRRH9f/+E9nGgiH8opELZdmHScImL2izh6mymmDtc2zMryMrvFSLd/snq/Gy5qXXj7B4XGkC9/OcGEn7m8JgCfBqVRm7bTHZKoIMt6yzLYsiSZzOgmzsnJIWaekEynXop1xN6AcmcBWA1gC4DWbPUwawESsAQJEDMHIFU7XAbAFixy4DB7nDDdJRzW3xORtCTBVqDY4Yz9v5L0VQN8LF3XQpWTTP+pqLDozMKiIuG4jrZdh7yBchm2n6BOIyfyWmkoi8Ujw3sWXsuS9qiQcFmBQFxeUWE6jnMoNzYOiicTN63p3eslZ2OTMoQhDcXKm72tf9ZMKsz/4FjekURRyexdRc6ENkTMsLJGrjWkECSYIYBQ98puZqI9Wtka77ijtLjEM3LXZUNKUq4LmYnUhNci65GgDAMd0aiyHeeTQNC3KJmQML5eIj77BmroeKnlvnty7vy/+CPd23o6fnSHQUH2u3U5LfgatXOmX/UdkrddCoU2AI0AegGX2DcYe9Y/auRHA2a/VTko2mMpL4rvxg+sLiTrk+5UVDhe+oaslf3lYmeR+QTqp7RjY7g/1YYiMPIG4KLX1ttrpoAHHEOMKQAKoYEY/MsXoOfWBeg5x7sWsesg+SgEcSQMhOBfPxSF2oERcOArsZDTfSz80UePHK2NYB4OH1eqbeUjx86FbecZjpNHys01XW0xS0JuWYnhd8EKIM3wpxWIGSlpIZFIIFc53BFPuoXtzU/3DZrLWnoljLlTh2icvAK/Co8egoW4z0Zh2iqKCvVZVbdug0TGc2vtSWsIEp0/ZzvQhBBsGga1d3QgbachhVxnGeb66oa6pQC2ELCGgTp4/zdlP+9kVOIVqjcdDwDQXQDsHQUlebseeVMAjgb4W8jDzxeXf1WgHmr+pE/MTf+trKj4mLy8PDiOw0IIge37wkFEUNqTBQJnGPW8faGNupQHs9488/cspVTMbNTU1zWnUulbhnbr9ciymo22ePoCIc54VHUxdDJNM3sc/3OPTmFfO0fT0M8KDD9TFy+3zGZPDOCM0sKip/Lz87XruiSEoC6FACWllHW1tcs7UsnxAG4uKSq+oCg/30zbNkspSWfOnZm9jYw5Q4bSWpqmaGmoT0ViseOPO3nPd155fgn6cDtvIAJfMIaGJhbSW3f1DPYp2mrZ4FYXQK4NkI9x/Icwjz3gEV6AVSQTS40enMftNe36N88N0db63pR3wn0ororBDbdzTpNW68qZ+k0G38HAGTOIOxTQxwTcJiD6BlB4hxd9fUEkUhMRGLQfQqV5CJGFnJSNoK0RCBkIpWMA9dt1nJXXf6BORQNQ5GPb9fncVJ7tast2dUgptshlLcPdK4lMuIoBrcGuAhRDKAa7yiPYaA2VSjqsFOCAtMuAq0krDZm2hXJNbZKg1qbGSNOyjacM3X3Q+w+VneG/+rYrUyD6dRh6DnyI+dLEaWZLGB9WVVUdoJSCIaVnLEpDg7drQ+1SM2fDMJg87yIAIBaPwSOyUpNpWdGmpsa18XS6hjyPv3SYCH+1Qkdbst6+iApFC7frjP/fsZS27cMyhm7uMl7ozVs5nGgranPi95QUFJ5QXFwsnbQNkoIcx0E2rM168CzwprbhDtzZN++d1HYG6LpuZ0QjhYRWCsKQWmuNmrralpRtX/T+ZQ++cuizb4MaP8p6dAYgMtdICyHG9O5RteDfydG/Gc00ImFyYIW2ktA2gNNLCoueLsqE7szbte8yM1N+fn5s0KBBX32xYMFoKWWuxz1CJ71YZUBWmfk+k4Zp5bqipbVlfiqZPHn0+P6bP5+/XsjBQ6GCpPlrjXeX9ZWHDq3VjC8Ze34kU3+5XrQf8DW9iN3FCvTkPdHh3IO3eQhyxd/O6VDxq4BAL6DKyDAobMB9HDDu6mulpq2XmysQMELI7QUEHQcGHIQkECYDYZLIQ/E+o6V/wEDXTZqsdZDY9WlXWdrVPmhlGC77tCKHjZxyMnIBVwGKoDWDlAuvUYUBRWDW0HbKVcpl6Wqwdkm7GsIFsVLQriIoBjQBDKFtF3C1J96nGForkE0MLZFMJClds+GFxlL7wk/OOil1jXhKtw8tcfMLmvhXEbpniSIEgsH0YnNLy+5lZWW5TjqdGUMqtms+2eFhJdebvsJE3kDUcG6YMm2oJQBKCgsK+5YYBlylWDA3La+vWyWATRbEO2UIvV/NrfEueIF2Palo+h6qbWuAINSSL0gDug24oLS45ISCvDyZTqUhhSDXcWFa1rYuukxkIog6f2ZmCCLKVhVICOgu3XhEtF3awmAILwIQAHNlRWVJbX3dLb+5+6Jv2cpZbW6/IWlBRMq7Tv92PL/bohTQG0hum4HVCSxkqyLZc5FSkuM4SKfTOevWrdvPzGAE3ox6CcdxskIYndGYZZqUiToolUyiI5F4jplrFn6+1gK0o1Z+x+jdi8jahH2HXsZj8Y58D1+iYsbZPLJwk8PEOJUJkfw9ZPkD9wdOKYMpCjqCfD1y4ox8uxbB9jSCIRe5SsHC6Qipb9YHrMN/f84ANiwobZCrDAmWrFzJyjFZawliCQqGXM4BmTkgTYDWMCAA6XlkkgqSNbRSYNt1tWKQYhAzNDtewzhrYu3NSidmw3M8Akwyo4KUgYSIvUYYzkhFMUNkXsdQYEhoYRC7HZA1a77xtaSeGf8e2p/oMdSfPEDqb/P7cZdg9b/b0JOZ0UOl8CHC6beTyeTlWutBpmmy1pr+WTdWZhOgDICWbdFkAJqI4PP7SQjBUmshiEq7V3YrlULsHY3FJtdE29cZWrzkQD8BIOGHgSQcocBqB48uDTK0C1dqD5yaXFpUcklObq7hOI42TEMox4U0JDhjCKZpwnU9nERKCTuZdOubGqsFiWYCbfB0HnSuBve1DDO/sry8PAukKaVoh/AdWmlIQ5DSrCvLK/rW1tbdnkp3HOMCrs9roCcArD1v+79i2NmGBWx0f7B2t2PXXxZUSyQSHIvFtGmaggHKbG7s8/lIa01ZgFVI6fUsMGvTMKQQYhkzf5yZQ2kBIYaRpvKNDAXJt9JpNPShxw3zGKpMqE2V7VuRl6wR+bmNVFKw+o4A2Sql5G59yDfpGILMCcFGCMpEwPRDSxgsvBqzVoCwAO1ASxcuMYg9bIQkIJgATWDlaoajNYMEaQj2fIjXbqrArMHQ0FIRkza0VGDteK4qbWZ0hGm72Ne7Xj9+O4QQ0MoFiay0DIMh4EmqKIbrIBZLfdw/NHD2rW/1Dz2Rd1n6zn0P0Raf9YsyJX+RXu1GpAWAZrjOjTU1NX+vKC/3Q2spMp7j30gvqIuhEJjZzTyUUgjKzc0tzS8oKG1qahpE6dQZruP8qaSwaLYbTdgRpWQHx5SHmnve0RP6gdq91zD/tzWrjzMMWWAIoTSztG0bpmlmwcJOPIGIYLsuNm3ZspyADyTw5G2rn1526QCPsz7xqP2xx1sb5a1q8zHrN286JTc3vGdJUVGBIGIiomxJDoIgQFBKA8xkWBZM09hHaXWgUup9G0xdNOOyyq/y377B/yKOu0MUQlprmQnPWQqBlG2Tk0pBkOgwTCOptIZy3TyllM/v9yPa0cF1jQ2vmsAaBzByYDkRxAVccD0aGVD06dU9aeiEXKe6jDd/vcLasvfKXFneuzVMQS6FXxXCoBB4aU06uXKFFDIEx9Ukh/YVwSOOFUgQs2uCUxKsJVxXg0mQtoJSmN5G6oFA2/ADQYK1IYC0y1qTgmLBGsyKNBhsml6NyDUgNEMoA3BNQDMUuz8tsf0jSxJnjoEym0l2QwULsimxZuW8Vn/OMzRrlW6kvZM3cMp85neDxNTAF/avy9DTgAmpHSiRa4bejKXjBzQ1Nx1XWlziZ2bzf4MLdCGoUAYn80g3HhiE0uLiQgCFtfX1z29srXugMlRw54j4+OinmCkNGNpBtk7JEoC7cNOy0RXFJUeEggG4jpMRCsiIYHSRrlJaw3Fdt6amZimBLxMkPknvp3Dd8MOlaUPd7ztW/rbbq/r5wKlMyc2v7F857q2PahdcJ4S4oKggvwgabJomua7bCUJmQnpybRuVFRV5G9av/70Gz6QfLgP+YrmbyIhtZtuGu3IBOJNStcdiiLa3L0ykUx8C+BTAhsyfTwCwfzgn9+hgIFAH4PUD0I9mYh13MRIuK7dlQz3UiX+IS8e2rU2fjneXGTnq64pJ6s5Rlzcxr2rCYYOBwxnGcAVjN+W1Ij0NWjfhm4Cv45s/FzJKZBI+QcixFfKkRA4phCg8cazhHzmGVUKQUj6hXR9g+4SrfNBak/blsZHvZUVkgSWgQdCkIB1Pq41hA3AdJiaWgCYmUhnlok5LzdAm/8md8CIcDYJXdWHpzQzVbJDTUZOEg5eCbmzJYW+NssLrFuvD8QS4bpJuHVgIfNf66/LoDhQRIDqcuF0ZyL+6Nh6xtOZjKkpLJXuAj/yfKqZ0zeuzf5ot1SmlYBomXOUx06q6d8/bXL314tp4GxmFi/+KVqS1l1Z0ncAqA37/RK8jjpSQQih3G/El+xlKKW35fKK6praWiS8n4BPF2qCPSQHQOQjigvRr+oINXkxnkDA+ql3g7tatz63f1mwI+X2+S8I5OZ3AXhagy24iQkrYto28cN7IlmhkQKa0SAA0SUmeTNEvI56hXQVhie1whK5VhmQikVRa+xpamu+1QA8A2LTDW6wFMD0a69gUjXVYAJZvkm0GFNy4TAsoaCFALfXe+15c1uy8yWRXda/HHwE4WIk7974cB0Y+8w+642+0q9GmChq3YMTql+FrC3C3aEz1G8jJvW5H+rM/ohWA4hcIVhhQ7YAcxYTDaDpO/dCHXvBzADlJgbA2ka8ZOToJYfbst5vImTiWnA6f1JxHygnBUX5Stk+4aR8cSrOvoBubBSZpDRfsAcCWBVbaY1uzy2DXoUxkmXHX275uI2N1qbJ6ebskAVsp7Xa0tqaqt/7DMvHy8I+AK66Ka6cEvtfvn5ae9cZsVYhW+iU39F9MZsmCoWwoWZuMNFUE8y+vS0Qa65saTy8rKS02TZNd11XMLLrk5f88hu/CrsvunkQE0zCzjTJQWpHWmruVV+Q2NDacv6W1cRWA5wyQocBuF635klAguFd+bpgdpVhTpo89k5dnlGlhGAa1RSKuEPQSu/iYg36p99hL586ehxQcinlajGzCgAFCml3XquhmfluzIRW0/E+kUqlJAb9/mGEYnFW3zXrSbDupJIHCwsLy5mjkN/sa/VfPcdcCpknScaCyJK+ft+HFyxwztN2M/FZnmsLMLKWklpbmrWmt7wLwmO09gybtMkTzkhWc1epX0Pq8p0798xPnvthbua5YpVp0CwPFxPDDT47WcNFLIWcNHdgxWrRHkdcjjfKACz+la9qa7+zdUPTupgT2ASIhIL8fMPMP74sxY86Vs/bYy9If76OmtubijMuGQoWEMWufcWpwuJ4/GhrG3Pw+Qr5/Ha1vuCk1VyDB46kleC/AI4CaZuAbBRz89Lr3jGlruflgysk7CLmyALmORsgB/GkTuakmiEDPoSOtUJ/Bwo6FyXHC7KogaadEuRAqpWyRW9lPWIUma9uTjjIAsPa04IjBOq2ZXbVtm6TMtG+Q0prJ8oucyKYGq913b9m8VAu9vdrY27+AToi8lT7ti624su0+a3L+W+lfsrz2Sxk6O1DEYLeQgsbQYEXjrhUDr5m5/sv5orFpqpBiQlFxsWV5deLO0JSZO0PyrlpyXb2MYRhwPMnnToBMQ3vyutoLmVzXJSmlKi0uKTbaIpdFYtEFFtP6NFh2uZRlynV38aohLLKhZldvDkAzkejo6Iim7PQzAhCaiMUxx3LH7NnbgWQOXHYyPfm+bj1dt77WjJ/y7Ep68ri3A4HAsHBODulMmaorOMeZCR62a8MARu9t9MMcdy3BcbRbVibR0KAsyJ9VJYey/wkC6e03z056MkA+n39OOpl4DIDYY9CBYv6q2c5Du86nC5cUsA9+SiPFJQjRs2e+BgV3AwC8WS3EUmjJgDoYN+DdwVfTFfvVieaHr+IL1zwstuR31znx5o5AIB1CLo/PszblqUrYklCX14raZA1a97r04Ejo74ge1L/aQRKgY1jwMRaueeYZNXfQ4aKi5Ci6UG+i7pvBzS1P4/xxd0ijjuT6esDnQq/JLaGKNhP1rQV06KTe3B/Ag+9zkolimII6aw/AcjwkNjcK4JJlM5cSGT1OREiXwc8m/Dkm8lQOfHY7Ar4+7cO0r6wfJWP5btotDDpOfiKtQq6LIKe1skqqhpn+HEPbSYAcmJBImTlQtoMg4tReX7c5mJRPlM2Lf/fxU78VBxRewnP3PV3NvfZ0/u00In9oC+d15KP91wbGZR4mBlgewv3cl1qXy9cHXG7PXP/lm9Fk/DMTGE7Mp9la7ec3reLCoqJgtj7dlSbb9QHsavimaXZKPme9/I6eXyklTNNUpmHsxsyTY+AHPQoF4Hj2WcJaF7NHWCX6vpGDMmOQfD7f4rSdrlVaa8STxL89/8fDYTBo0efQANOTx7EQYplhGHGtdUhQJm/rkoJkBidyRhOm+2rVYACA/5hTyW2tZ90wG8YvNGeDu1zfH0qTmFEHQOZRUM9f+a4CWbjg2XxcCCCNFANAE+LcZbaeLuumuR15Muq2C79xldv+mxhZt9xqhg9vciaFTTm7dGhcYVaEqtGASO8NrNqLONy+Cyk1kH09DvQVHn6UaP/oWZy4ahlyIHQ52tLfULW9CU2X1p8YKe6GNJK7A8HZ6MvD4c0+2azeqKijo8U4BqZQ6OxlQoxoFPtvyEGZHIuS+rk4jaSc87eHhNtnAW/a5RtyAkPFBW0vM8qEBt7TDuDmf4h2HI52bAQSo4D0QqD4LYB4w6f7lmww3iqFGSmCVb8LgrIZRqASAX87wj5p908ZobJoLB420nax3+byhJKlmp1ChpMjovEZyxpKH3txWpz2u/xRxvOXeA/sKwDOBKuwodpz8359qDsAobzkkr9GHRyt9LFf3GUIjyDa5AAft8VjnwEodJPpUam0Pd7Vag/NuqqsuKSbz+fzdQXFsh6QiLLyx5RRktkut9yxLu84DofzwtDgw5rbWl8DUF9cUULNdU0IGtYAfyCQrQv/MBFFCK2VkqZhfqm0juYDiBAB0gDcH+8RTguLoG0lBKC1XmxZVourVEh6YpX0Q0ZlGAaqelT1fnXrN+UAql1zqSHOGqjxiVfyxn9mWX0AtYETyFuymdoBRMNddH+2BwsZACbsCV701kgnR3xHOpYji1N5Cj7YiUlP5jxSD17/21m2fJRp8mvT9fvHnNGSAFryiNfab1PIHNw+1DU/aHH1VsMqufQRCAoJxbbZIweq8uv5OUNnzY6tMclKfltvLB5f6y5Am1sdr8Wx3HC06MkKEWhcyHLP/ZRRDdX37hb0rVggnNf+jieKrxMDdYQmbrD1hvMWiNVlvfUxD5yuR2xcw9e9cBqPHHeTqBuQIJfb0dC7QiRimzGool5/fNxv+BJcwPf8Birlktt7EJL4E9rhA9pCQEErAK5dFABQAODDA8nqHYYV+xwU6gZRa6FneTdqPXJegz3oT29i7xMuZwAoQhItzwSArwD0MAEffpWG3skzX4EmAgDbki7SrvD1KZbpQqmxqMEGUC/B78ZSiXczmU15c33TLop4NAi7uax7hALBypKSknKttcXM5PP5oF2XM+Uq+iGWXdcNJ8NiG0VEpcxcnxsMiWY0qfz8/EBOOBeu62bEhr5vfJ3hrNdoo/bd6yDx1rxZGu4/qVlp1gCE1mAJiji2nbYsKzuV4Uc9KIGkhidbxo1xiDF9uvbP/ycWZ+H1tM/4l8p19geQ5qwAcHSLXs9EvToKpENarajOtYe5sX49j0Oy7jbRMCm/yCEUGCfhDgq0jdVP5I+Ox7DmyxDWfFmdpB5m4pnlIpquyDP6jbECE6dIGnigzNv9IL8CEIgxBDPrVLNhvP6UXtTNxwKtzL4GmHm1TiWWrupA08xp4BsmkY09oSKAjn7rHWPfOWMZgLHu87+DNqSowexP3955Pdb0BuXlgtfV5dOtpW3cL/IVvuTdaX/nQnHlOGBe5ELNkbGias6DItFhISkDrM04q7uf00e8corGl8DE/rCxFjYu88TQDnmOl96FEnNK5GY8uvuZXHnPBvCRg9CyHTV1zC9+I3/JkUzbj2XyWG86vf5qQmOKxAKTtGlTuluIC9PPoDszVxPVp4rceiTxATSA3oC7Mjly0+ZNu7En+DCwtLhkhM/nK7VM02OpaQ38eG2eiEgrpYqYuQLAkmg01gk66Z8IXTvTBSkghJAAcMrUG/mtebPon5W8MrPK+aru58mXq19pr29qqq8oL+//z+TZGWxkdPFqKR1k96ovMtfwVzFlBgDw8kLieL/3+HyASwHHqtgK65KpQs0nxR9gbfQWGhlgnriwrvk7fzWWYcw5ceQDl8wYYszpPwSH9oDiHGzdGjC29ihulvjumyFu9JsXXf+u+5J/j+MM4pDwF5bANcnR/lIqO/NKgx2AhTfrTAvkh8Wbo3dNJsaAElcNCK+RpzbVOc3rlwXnoXllNeJf/oGSBevgdmco36NA9TPAZGZxLh4UwY0PiL4dKXL/cgC7cYfsWCnwO+DuE8v53vQhUhWFaHTzvRT1hymZzOGIKFR2iUFDh31MbcPD9Pzv/iSGrrkRIYDPePwRsWrReroJATxfdz09tMfVwD3/mfti/DJvapALV1ehCltoi5eImpIQDlAJXcb3M/MZ8SOFKq5kejDE9gEfUezlaeKE0ATs07oPL6WPKMouxVZ1129hxuKMYCQsy8prbG4aD+CM8pLS4/LCYZHlnP+Yp9RaczAQgO06g1Op1KwBgweoL5qaQSTUv7Jbsd6WU8+edhsj7CNE04xPbwaSbcCkOwEnAZAEZpwDHPJ36L6DGM214pPm96kDNmtml5lhSCPj7H+SFRjw2HPtAraTOUbiX4uh77cvpL+5u8Yp01Vw424yxWQlFxt63GdHOu7jy3TQaVzkxFrjtsAebjeMo634RiksGXr4isjQb4B0DsnFK3rKpXU3qjUfV+GWXfdbaoKX8X00P7r/d2+lBPoFc4+9QDh53S2RXw4zZDgAyE05mcskRMnEo7KbudAO2G5Ji0D+kkApUlWDZat1oNVsxFs2RK5ZOTc1HAlci8iiIyh69Qy0f8BwMBG4d8MWnDgQKFsNXDaS5bkvHScujdxNZdbHGr1YYAQUiqFxOPT1Ze/g5nmHClSAxj8/Wq95aquwq2rFH9Y8qlOrS/HCHVv0hwshOQDQx/8PGHohAmhFEq7XOiq2YMs2EbWUzXj6YjT9/g46kYhOPuYY/fzrjwAAOX/3lFZeAvglfA4w9DzchL1wPXUCPQV5wm4TUcCe2TNctmBrUwOIcURObo6Pt9Uyv+fOXaV0Tk6O1AQjlUph6pUX0xeffs5CkCmkhPqRMJzJ40ZnZmPZABAuLidE0517AApCXa5kJsny+WHWbCYXIPZpNwGnLBzOK6XMhLltnMrvL9MwXQCbAcAs2UOJvgM4+d4NnlT+r2R1Y1ab1vjIfe50KrvyUqpLoaixv4uri1bUTcMmsSyW4mEFWGp+WbLB7dt0qA0c4Y9jF7UcX0fzsKlmCjeOfJXsh5LPmf02l+HG9+4QLwzvJud3HxLfAys+x0v7r0gVvLZAhdHPLRp1nGtXDjZFcU+yepSDHIDSzG7agSbBzBCsWItSnwx3G2NoBtgGKxduMILQviUbtIZtuBzNH2O0zjgn1Gzf+Y/Z9qloPdZGq+UiYi9HbeAOig26Gs4mH/DF10DPOcDwNUyfjx4pgh+uNm4aeBjftBWM5UDjuoNQetdMfrh7sy7cOlWYnyfEX3//hvnuqRO4EeXqPyUY+vPnflZnWKuHYagwcrzZCsbfjiZM2YNYM18k9qDD/mEKrmDicuZZvutFvTUNbDI/imOJwbQbTqJHcTC1GQ8Qg/VhN37n4q97CNG/p7k52hAB0Z3t0QgIINb6p3MIIkh47ZiL3l8MAGiLtkej7e06E5bzdp108BhRRB5M57puTwA+1opp2hGEJz/w3tornWbTkizyTFjBkAeOJClMJOAUhnPD+R7KzbQd4r7tM0lrjbrGhpasR3eWzKMr7/lTRp1L/yq06TkBEEh/tHC9LloUNE4Z3qiXypJIPz96PuxbuQeQctY1jSHVlBM8f1Q4ZTyFVwmhp5MGDKd43zvyApPvGnYejcJq9IL/SHV1+XPOUrdEL/3rPCf1bF+aOWc/Eyd8HEkPx5p54/Hexo6vr2hb8c7ZVsOsu4yWee8ajXM/NhwDUuSaRAoSTHBMKbTLzO1K6Q7luspVynUgfYz8wX2QN2SQkT9kd19+v8kiWHoK99v3XmPohCcLd9n7eXP05JftM4+cce1D3e+KCvzWl8aUcDEm1OyO3gunUGDg3G+Uz024WAaFv0E/WNld3HfnfMboRfrCzSV8gvOifnbLqc5VD93nzBtXkf5PqgL/3KE7gcFlyC3sQLrfMmP5wqxejL7yDWDXYtlzxH28+aPZaoZ9Dk2um4wt2CJW4FkGNmEIBosVWKljWIkcDMZ5eI/hzqdjcBRWmVOBq+7R+uuLNNZuJgJtsUzfBoCG/IR6jBd6Q4EyZJWnXnxaTkCF+3m6bq1hGCIvL093KsVsk6EGu151XgoB23EGAgg+PfOVNPY/DWw9KyAGa0z7GLj1MOCddxiHTCacU8o4bE9K7lskDE5St2QKAHax7XReKBCAbdugTBUhWxLMVBRYa00d8VhLRs/e1Ju3qL94IKHKdOH9KtbVxDjmlJwS4/EpHS3nzXMPshoTvJLWpIp4v/Y2uc8eJTXzZdsR6cuWVxOuWKc3n0JL88JoKI7HAzpVU54cc9ZjIjb//b8v/d0nrsDGg3Kv2qTvmaUmJJbI4Hub7PPm3S6vT15p7OWH9I/iJrxATTigdkPTR7XTxQjsEtSRFaZrVFLxAUdrSSAzCKgIiIUUIDDZHttNSxYOacmaNWtoxUzETPn9ClTageWKkjQIjnJAxbvuZQb6pHOJHF8/2eFzRNSpW7N46+At630SHVHTrBfXm7Unraie++i4Ysai0UADgAqwN1UgoDxx4v/c+rkNneEA5QgkmhC7V7pUx+BHHeYPJJHA5MfUFgD0YhA4cRtYRzSamRkrK45laiTBijUVECEGygxdJnTPU/ROkcR7Hwj9Ijt0EvmVVj1AnfIPP7iklGACtNYuAPjCkj9vqQURNUshmpm5WGtPHLHTwzJAUnrIDsBKueOIqGdzR6SN0tVEY87RPMrPJXtegyZPVsk7l0evBh39LMv9ziC3sVa+5lEg9mYgx3Fdzkx8xY5endmbpUtE65g5BcCiYFBTOi1YqV9P3A5QzwawLEZ37P9cx6NFc9cu6H2yiUFGk7vB/7k/P3a8TNQW45PnZw48G/H41bfI5q98NOjwdCPf/dXfUqdiAuK2Yfj3OxsVh14k0nVLT3NeuNdYu+u38WFYU/0hUbc/QHX7aLPYy/hUXPDZyeZbY1bKe38ziPv+5vPWOfqSz5OPLlxQEUaVk45/Yat4r0Bh/zHsG727YAcEgtIBgDULoSCZhcsOWCgouIDDgGNoUoCj2yFIwIRgyEIJf5EvwI7Pp5I5LFCB4gED84v6QDdvqVO1Gz7JFe4de567kg/7aJpXXJl5HOjM1wAfA+gH0B+A4H/uTv4SoTt9h8aUlDKvslu3o4WUTwct33xLGFMBDAAQwFmdJTgGwJPPOoEIJM2e4w05ZoIwxo2VYuxgQ+y+qxT9q0y574EQv3/L5BPuBie0QycSwNhHCOGnzLDFH0HNmQTJluZmNLS1NAJA/Zb6LAuvnkh8qVlzdpx4lrDj0UB1p5cP5YQCEnT6dzOfBN//KRujjwOsSdQUvQEIhxnXXMkIBIH+dxATCX3ZdIkl7WkJjLQMc6xWalvf+g4z37NcAa2Uy8xfZg7d5URCdElJfi1gHG8sg7H2osQyDLZ3q1q2vnj8VTfxuPhk/xehWE1eK2aHDPRWR/T5rdpU3i9463Xq9cOPMxq2lub+48+MtSt2WxCq2/yQGXnlDuES4Bs+zir9/V2cLDhZrutxVVFPjHx5H8ja/CrnrpxVjm/PV2SvXlN0+9Gvq0POWy96HPVlOrI74nTyiWueWrf+bnd2/XXY+tkt9rpHLqX21d+SbTumE7dBNtlwyTYdnRaOtkmxJ3MmYBILCRbK9AnXkULYQkp24Mgkx+BwnEl1gFj5cuAkkrXN67c+Hs3Ju46a+Ntj448Ra4MJBHHWqyBi0G8AwkMgPvj/KY++bevQvN40zSE9q3pWCCEq2tvbR0U7olebhvltRzw2Ax5VoB5A8yF/ODYx84mXlLPgi67v1CUv3dL159xMx9QdZaWlpm3bTBkj+jE0WwMus1cSZqWNcgTdeiRaWqORd6QUhxQXF8tUKsVCCOrUod+GgnM4NyzjieT5u04+6wsAr1TIKtS41SaFb2ICtHHr3WzDlcjMa9eAHZaB/DjSU0tLS0eFAgForZm1pi5evDN0JyLU1dauB/C5ZVpkOzZj+7HJvxqnftubecr5a7urbNkkxqk9e8D31jm+mOVP5oZgdSzhlJCcd+BrJD8K4q+4r8eJz8bLimA/dOPBxtq6Nl0yDiv8/0jUBcfdWW/lX3Ybi9wi0fP31/uYwInFRxx9dvXH+kuaSa9gYbev2d5rDnjA5UXWfY2l7n13N2Pxg/fLa4+fStPPP4z+sGFGPD2HZix80W+OPn/2XA2M1Gn08vU4+mwfWQVaFPv8ZABKeXPRmSWxC6VdaC1hCk8EXGsFAYYSShsmy2C8KRFrTzZgybe39c3v/mrjxdVt/eevNl8YdLLx9tf7OP+N9+VnNfRWJAEGDsNAzKT1jdrTbQdrxbmhkK8gHC7VwCSrzTrQttO2ILHBZ1mLrxt7xkoAK+FpsWcpv4nM/2WZIQx5AHrkhnIOlUIcVFJcXJDxhvQT5TUNQJjS2AqgFQCsUIVbH6+TQKn2UcsyJ52uTqfTlVJK6irVnM3XXdclyYyK8vJAfUPDwx2xDplbEXxTVevOgWyHn3WMeP3JV90u9fx+SXKvKy0qOT3g93OGk09djTtr7EIIxOPxFBF94+G2nUq2yDTB8H+FR3fj/1JwwXu3G7fmXclX1d27VIbUSdH1qZHnvLz02xnfREGvQi6ZW7lqeK9Hz4KD/fn0Padd0kY3npR6fsO51x+hz/hmAr3+WKk44po3ovq7htd89XetQDj/eCtw4hmGqCghc/xY5KXHQuTvlT4ztax9HD057w1sOfLolrb6L4pU07wRlLzsTPnXD2/HXw/+o0KP78Qey3aVC846CRpXfMdRWozXCsrjy974UOUF9gxUTD493t4Bf6iohy+Q63OTMddRTGRY0m8rsFBwyWEo1pYIyjSnZKp1Y1Pzqm+f1UnM2FCXP3fjM0cYYz5ps9YuGaiuXXGTJkTw/7yhZ2Hud7AaJksWWZBLe+18ruMyiLi4oJAAtljzYBI0OJlMQhgSgsghIRpYay2l7CASUdd1q4QQSaVVD6WVr7CgEKanQMrZIREZT7od+SVrRIl4nNK2/QGAagDEj0wBnXmfwyotK0Vo2eZEdEYgGbowHA6z4zjf0yrP6tJrx0FFWVmRJJq2vHrV7gA+yZTCtr7+5KttAPpkNqWhphAnlxYX7xsKBhUzd+qydW3YyaYWQgiKtLbGDa0eS3vou96haPBvpVjZJp044j9L7C97D/WqpDqO23EgrsDs739mEODVA2mvZC3Wm/1bBtrLasK5OCQ6LLX5iGvQsvLrYwNL9qlLqo0XfNUv76mqEFccj/wj7iyoPfmK55vHNx424qjWcSOeoSXxlWbxru3p3Ym/rl5ITYW5rzYa5vijtNF/CEQwBzl77ik4vWd4SM4uY5y2dVufK3rUKUBzSceHm0oe2WQ/0ndzcOQH432jD1yQmE+/1xtfvpK/mnCl+LIj3xh7Vlu9/BD1IbPoi9qv35wRiaK8cuiQE5146VgRKBlMVhhuyrEDypUpLYlhCMOCtJurm2Ixe5Nd++3zpi54K+C0bb7vysesf3wwnJ/Bkbrq4cniFlzP9Dv8HzH0zCMphNjMGQ01SZ78FgRIEJHrOpzp59fQrH0+P4LBIGlmA4TurPl7yqueLhtrzZpd1xVZDyykACuGaRiwtx+soA3DoLZUKt2RiL0Pj8ZqiFPLlThNkoJNEv52v+F7Nhrr2Nfn9w+RUjJn0HnDMGDbdqdWXEbkkouLinJ9PusPAJ0nhaiWUtZJIdod1+2hNZe4WnX3m6byBwLacRwhhKBsj3tWKJIA2I7Dls9HbZGIa2s14+Juo+bdWfM1K6WoS9qRLfv9ZHmtq1BEtnc9gST88CMXuQyADJjkZqS+soq8+CeswK4rNeNcAsCF4Rzgp4bLDlzlXPsCZO4xs+WsrQcvJL/qFx6UmGjPDr5rhgbY8c/7+UZMuMle0Dz9rZHRV1kGTr3YrDzsFnf1O3fNWRtZjgkrItec9a1TMWKSfPf1adZfxmALPrKeiIfeWYrcYUeZ+ZPPFATHTGs2g/tMcN3m3cWIgWPc+NpFqRm3vCHLsKLwmGe2jgt9EX9jwz3GtRsvl7fufqea0uTTOO0Cmnf9q0ZyVFoOpmIV+KJ6yZA/37waf79uWe2KFd3Do0YeJ9gYTXn997VNDVAYZqS6PdWyeWuqbf1MvcJ+quduVRvXVm9JbqVR5tzdJutg+1dcaKzmNb9bxeOYGP9nDH2bK2rOWLMHPmVUYDJMti40chKKNZSjOkURM4bK2TkBmQeZMui62K7NU3uCi24XVRgiYkEC0Y4OEUsmXvVZ1ieu7UgF1mm6GhISQFI1K9NKIL0ALp7QjY3XVFRWFgop4dg2hBCQUiKdTsOyLPj9friuS8zM4ZwwEyHIwABmHsAADNP0ADYidrWWXae3ZFpxO6MDBtgfDFIkEkk1tjSvsIT/5rdnLHIxiroq1yKLGfwrUlJEBOUBiMKrvdvkh9+7ggATTAacLoxB/l4U9D2mXuZXldcegrbCQUgCuKR1oqiE4B8Vw3i3r+w7/GF63jqIuUJF3FpsdsI8joclG8yK7+ZUbBxo3YCBcmxxoiO+2PjEGvHpSElnXeKrys1rx6uv5S6it/46mut8y4hu5Dv0czXjck7d54v2Dcaxn+W9/3pjwLbjlH/IpSx8cHWTS8IUHKgabMjCPjR0t4kAdxz2weMPtnYMm5M4ba+VFfiOJzbuYV789d5Y1W0+3nBbeMsbE9T7h1WKs0u+9dGga21efV1tJVDLZy/+LjYAfRAQe8VbWsZTyhkeSLYsTS/veLJjVOWq/i/XtACgjZeSWLPhcKfDzAVyfXB/BYymXyR0z4SK/k7l1B3Ap+8pwKKLbMz3ftxWhsoi1V1bWZkZlGG4dYo5EFHKsam+qfEb1noaA1EB8gGwYQhilzWQAwY5+2CwuTxYP6050dY/0tZ2dkFBgWn5/dDeHDV07ZLLvjcIrLze8s7Bjd7EbSbF3Nlo01XEogvCzhACkUgk2djctNUvzGtSOrXh2FFj5V+3Nx7S/wPUnYSAFNvtB8Rg+GEhBRs5UKJtG2EwI9VM/6xY2vkCOeYyBi7HJHGmXonnfvR41OQN9KyYjNEIitYXT0/nR+pn8YmzGtp96B9pEvXdeq9albyHjFvm3iGve+uPNanlHS/ooi+GWoE9J4Xdq3fnkpmD2ufQnR8eydVHnzwMW3y72m//doLRO/1FHKv4W7RQI/qk65Vh7W4UH3EskwTcDiXI8NmBUIVirvD1++3tvmTzat/zrz39UXTel1iFFfdFvmmn6ZspDIi/PtGiB0+3eLe3/4gxp8+k4z45zNyyaCIWXj3VBrCKb75wZduSR14RNvLUMMQqnuVWBvGGB3r5fWe5vsp7uP3TyTd2mpAGUDJxNoLE/7W46S8WuhOgQcTKdUlrbxpptrT0b71tl/y2a0ifJZ9kjIm11my7rqiurVlrMN3y+q1vzz/8miMMgGyAGa5mL3CNcTsgFpOtOxLJxARfv0sXRNbJWCx2bGVlZYEg0lopIiLq9MRdALrM8cgf8oRde+izJbuMkovWzIjFYk5LU9MWA/hjip1ZORBGqyFcuNuPXUYXFdifVN7KvP+OQCSByIaH4Js78OWV3ibo8WOhe9djsbdcTABQR7PpUlyGyzDzB42dzp2uqcGHUV/vQZ+cd4je9S/pjgHAHGNhzioeFTOXP3a6/NulrD+r6SWBCKzTUt+kHyv/sy4NSGGOOgDWgb8LVCSNQx+lx75avHHpmMt7261T+8mnUveLaVPep4UTL2/4purOe3a7H3s6eDvJBYecIkVQOq4DUyltKIJr5PplUOzqH3r23clUw1onOP+5gLH2i6bDaV7JO5y+AsVABdThpOWf3xkgbhiwjnHYO5R8/Epj3S0n8vL9n+RhrzwcyTTkkvOS6fvjyD/pl393uNoyOpIgEDATQN4NAICjAQCT/o95dA20oB2VKDYz88O0JEI6nWYpZXYowb+97e04yJAzK5ObC1cp2lpdvUQCNzvQr996zQ0CgCsghN42HKGzA62DkwzA/1vnvtSh1pMXXmu/Hqmtqzu+oqysKuD3s1JKOY4jMjJT9FPG8YNgtTc7jX0+HymtRDwW142NjV/7hHFnWrvvBFEs4mjhR90FtMO8dE+LIsPjZ+af3CEFCb1DpJRRGYcEoFRXP+1tHPrHegSy6VNWX5+VJrWxFgB4TOg6IN3vRz26eOJ0mfwI2OuUFe5s6288FOcYYYBaxnbUvwuIXV6XIvV0LToqmnh/nOTrtvjdRG3TqUvT8Wfv5X6B7jI0bCCJ4y5gCuUMDPV+4svXxn057v4v0tf+/gZjUdlJVFgzQI/Y0gR+afocu2HtFsP4UJG19xGuREBIn084jjaSrmJhQYGF8Ff1Cw7vdSNal60Mnlq3sO203A+Sfszn1UYLF9wR5/59QIPXMt6GwCwQmsHFPRg98LF/y/SJevUXI+jDjXekX570B2luShG95lfoi1/d+iVy9MyTicZYR4cCWPosHwJ+v5efe+QUt4uM846TjLbFlzs+fVpzxqtylp8upSQiEqlUCmnbdhubmt5h8P0amDMN58nzMU4TzoL2hDCygwy7jisWfhjp0/QhcO2ougavX2E79uLW1tYL88K5e4GEzM3JgfJGC6tUKiV8Ph9lBC9oR4JOFuwSQmgA5Pf54Col2tvboVlHGpqbn88RwXscJNfnI8+MULMjWAj+fq9t5wikDMPP+KnNzzAN8QPgWnbMtGjz8upMJsUkDMM0fiouy+hvAkDrkg0sTjmLFF6jT5OfYDiW/NT9t+efd5yoqB/MkxKDcWHT0ZwIP6ABiEOMlMDRWq10PzSGEeTd7R9zzgN7Gpg8P+a7LfAx+siPEV1hQStD+4ZP8hehYpS1YDq/GvrHussTkZt/s1iO7VXBC98cYfTd/xpzfdnADViw7GZesmymr/8eJ+uC4Yex5ZfC8QZvMASsFEiThghW9ffJ/O56U32Bsxk9LKW+wMgr59P9wAGfbeIVqyvF2Kmz8eZlhyHyDcvL3xriLj4dfP7pllyElfRiv6u4m6jEAY9MJQc7Db3zASvRgfe2NjWeD2Bw2B8YqPPyBrmu29PVygznhkU2f++CyjE8L0MZlNvt+iBLKYUUkpg1U6Y/PJ1OoyPWASlkLNLa9n5SOR883Pec6Reuf9yZikOMk/AbPQjTst7txxiBWkIghBwY4TD2je5mzcG3L8kEz61O1B9fmBOepBxnouu6Zn5BgQgGg96YJBLQrLVSSmfPwTAMmQEQBQAZi8XQ3hGFhKhtbW1+0wE+ADAjJhLYSw2T87DMNdkQClpLSChsT47JTq5hZhVtb2/sWmPfIT8nACqRSgUESOlO2GDbGOk8ELd5FszpdDoeaW2LMmvjRzIBllKY2tU2AZSOxOEfei47uJJXqOWCcN+P9+J/MEns9lojPVJeJac5RbTbV+v02H/sRy99fDCdsP/77pC3mFbuvVwnzP1Ej/xG231kL+PGj87wiwvz9cXT771ODsR0n0Cu1shFv9MvUGrBkETPdHmoFrPsEbWrh2OIe6WxWBwd+IP9+exJ1oT0B+u3nnJuY94//t7qT8YdGei9O5B2XZWGLaSGCDQJtpKydv58Y3PtV/ChwzXQ4O9Jkd89EKRhFSF8uOgvGlc95c695BE547YDrHCPID3+aT/nxKtGqoP77U1/rDYw65mz6F3bwkX7Xqzv3mnoQKZsi62ItgB4AgBUKllanUpWAugJoNIUxkAQ9VBaFSulezDYp7UuBzIqiEQoKCjIhvkwTRPRaBSJVIoJEIIoKg1jg+s469o6ovMArLZgLQDQvnDjt+Jw9DPuxZFqEjp4NWbu6N2wIwklDRcubOLoFj5LTHZrdX9zDdbWAbg3Gou+6MYwFsAQl/VeQohhrqu6E1iEgkGEQjkyK2fV0twMBkODOqQU69Kp9MJYMvEVgBUXdR+z6IHqr5x8FBuHqiJ+lk9ShGtgZg5Kbaug8Y4RAjNvqm9pnvIvRFJ+E7JGe+/VtSTH+d7oKUjIT2LJxLGxZCL2T9B8KYFqCbDLTEo9yQCohZp/EhikSR9wG4BuAAZhqx5XBTfxdpFIl63HqFtAQ0s3oLpwKAfQlO4obqXc1y52Rnw41Tj82Vp13cP3plCGL5NzgMADg0Oonv5hegTKO0gVk4BrLfraifQbTEe7q9Tijv15jwNn2R+98Tfj9IOvjL83Oz2nxzPPrI+qbwcIF26IEHc0bDuJ5tJGxDtKEbf+iGTObwGMBpCr8fCEkMCKsWy+dhGfy8cDu/xDox5pVAHJi4leJGYAavPxp9CUP5cqokZeYfcQwFbeaejbHjqSnsSyTnpDcBsBfAsAtc2NIKIwgBCA4szfhL15OyACuvlMq5JIELPWpmmK1rY2O+066wB0ZGriLQAiANoy5SQAMJ4Wi9RSfY4LEFLI+15K8UMotts5M64KZ+vB+ib8SR8vTxVQMFyvD2kGgBlt7e2PAyjPsPSC2lZ9iSnP9bjs3BZt36y9ia9JAM2Zc44DwAMNXwkTZESo2X2Gp3Qdgcb6xyXhssfZBmDu/6DoAQDKhg0C6U5w1Pu6Jcsp/pduYvZb6cs4+38KprI3X3Zby53fllqbDhb3ASpUCB2Z88ptLmQIDQY5CAB4CYS1IAsA3lgZx8kAgA7y9OMBCxBeiqMr0AAA2P/oy9TWHk8K1D2vcdrJW09H/pZn1j2o214ineoB6IjHiWxbBOTuDkKhKbTrsIjCG5YmCUVIgOllUFFmehK8+RHZ87EcwUAjhgIwjRaNnR5920rjb+zDlU4ZAhSHLRwwMYFsD1NyM4hmNDMK+XsP2G3T78J3X34HX8CH/KIiXHHepT8GggmThBAs1MHY233C3Qe12AqAcDxSmPc/PG4fwgCAzxTri1Bir0Cr1GAKglW7Z7zN2dfmVIZnn3fRVDS3tCCdiuPRu6b9kOFJgwSFHKkicFzm1WA8g1iGdfIvugayIP5pLd0DH1j/UI3b7sRKWRggIfCv1IJIK6jMBlEOD723/qXCiwsgoSTYcMHnHgWZ8m/3mjdPj+IoAOj7HeLIQ7h8KyY/uwufe+cSPuZqAs5j4gEgMCC92YeM8tu1EHlIEyCki4sArDl2HTe/fRa/OGkQ7npoDzW9Io+mtzxM9mhDvvnWWeKoSY8ptxdQOgFcuyv4/l0c9RD1wQNnXgAc91eAGlCABo9JOEoDoS0YinYg7R3nQgA5uTmoSAEBXgHwaOxcP7EKMntkCBYEyPBGBpAhIKT3laSQhgG/ITEgRC/zBjr15itp6N7jBDOj3+5DCV7YbgqQFBDCgBASQvyCxUv6ga+GEFLCR3LUzUfSOXdeS7tM3EekmYG+uSQ9jMvIhMW0w7HRzifh5w4dvSLCoWBxKVichgzz+kOAzntg5wX6jz14o8qBbxsFSko16usB0yQaNpy5PQLjLzeRdcpJSL94oqChFWx+MgAwJavEZ6RSm1g9s4JRGwfiScAwCEIAts3/v10nT7+Z0WsEhR6/FOk+n5Hv6x4MHor0rp8TisMwX67i5IWnIwCLk7D/qZDkzvW/Ww/rEJVTXKzFYfr6xjdgP2LQ+Isux+XhezHMUDSQoHZepf/U5nLpmdjB4xEAmjp1beeLrrh9xo8Z3DbvOn36L32s4ge8+nbfz5vwDD6d8OD3jtP0cC76EaR/5/q5PLqn+iUb2iFuexbCG4kGum0a5LpI3s5r/kvn6D9+Z24HIvsR5q9ghHMJH8zW8o9XkZLAHut6k5JT4VgKV98yHH8z7wWkAngIBu3zLlaf2kK+U17Q6YsuInw+X2DKFI2vvgIefPCX8ppdCSycmTXmPV/mK3Sh+BTjFjoAanCB7xwwgEfcXUBqKneRu95xg9jp3X/me7SeWK2feoTYk6opEvKL+NHz9SrcyS/89nLemS39p1b6KgKvyk6jBGIxCmS+f+MoJgaDTQajhtK4lhLyKkpjOl3zHQP8GBm1c7b97bZplv+/hO4ZgUkCgCQe8I4VjxPjSsoOLkzjT+SBVpJ2iFh2rl/Go4MHLslc/+Xe19IG4nwmLmzZed3/Yx7dkttbZij0Y2UvtiChAEgYmfklklFSiB95/S+L+ezweRYk/9Ax/Ni/71y/0A5MAGNg5lpnrn1jaebnwp0X6L8jb/Tuh05v/2/uD5hIzRJkS+b/pXbUBIWmnU/Uf3TNzCiU7dxnd66da+fauXaunWvn2rl2rp1r59q5dq6da+fauXaunWvn2rl2rp1r59q5dq6da+fauXaunWvn+vH1/wF8tUJdxTyuVQAAAABJRU5ErkJggg==;" parent="1" vertex="1">
                    <mxGeometry x="798.75" y="760" width="170" height="93.16" as="geometry"/>
                </mxCell>
                <mxCell id="4" value="" style="shape=image;verticalLabelPosition=bottom;labelBackgroundColor=#ffffff;verticalAlign=top;aspect=fixed;imageAspect=0;image=data:image/svg+xml,PHN2ZyB4bWxuczpkYz0iaHR0cDovL3B1cmwub3JnL2RjL2VsZW1lbnRzLzEuMS8iIHhtbG5zOmNjPSJodHRwOi8vY3JlYXRpdmVjb21tb25zLm9yZy9ucyMiIHhtbG5zOnJkZj0iaHR0cDovL3d3dy53My5vcmcvMTk5OS8wMi8yMi1yZGYtc3ludGF4LW5zIyIgeG1sbnM6c3ZnPSJodHRwOi8vd3d3LnczLm9yZy8yMDAwL3N2ZyIgeG1sbnM9Imh0dHA6Ly93d3cudzMub3JnLzIwMDAvc3ZnIiB2ZXJzaW9uPSIxLjEiIHdpZHRoPSI2NjMuODk3MjgiIGhlaWdodD0iMTcyLjQ4MDYyIiBpZD0ic3ZnMiIgeG1sOnNwYWNlPSJwcmVzZXJ2ZSIgdmlld0JveD0iMCAwIDY2My44OTcyOCAxNzIuNDgwNjIiPjx0aXRsZSBpZD0idGl0bGUzMTE3Ij5IYWRvb3AgbG9nbzwvdGl0bGU+PG1ldGFkYXRhIGlkPSJtZXRhZGF0YTgiPjxyZGY6UkRGPjxjYzpXb3JrIHJkZjphYm91dD0iIj48ZGM6Zm9ybWF0PmltYWdlL3N2Zyt4bWw8L2RjOmZvcm1hdD48ZGM6dHlwZSByZGY6cmVzb3VyY2U9Imh0dHA6Ly9wdXJsLm9yZy9kYy9kY21pdHlwZS9TdGlsbEltYWdlIi8+PGRjOnRpdGxlPkhhZG9vcCBsb2dvPC9kYzp0aXRsZT48Y2M6bGljZW5zZSByZGY6cmVzb3VyY2U9Imh0dHA6Ly93d3cuYXBhY2hlLm9yZy9saWNlbnNlcy9MSUNFTlNFLTIuMC5odG1sIi8+PC9jYzpXb3JrPjwvcmRmOlJERj48L21ldGFkYXRhPjxkZWZzIGlkPSJkZWZzNiI+PGNsaXBQYXRoIGlkPSJjbGlwUGF0aDE2Ij48cGF0aCBkPSJtIC05LC05IDYxNCwwIDAsMjMxIC02MTQsMCAwLC0yMzEgeiIgaWQ9InBhdGgxOCIvPjwvY2xpcFBhdGg+PGNsaXBQYXRoIGlkPSJjbGlwUGF0aDExNiI+PHBhdGggZD0ibSA5MS43MzY4LDE0Ni4zMjUzIC05LjcwMzksLTEuNTc3IC04Ljg1NDgsLTMuODgxNCAtNy41MjA2LC00LjczMDggLTcuMTU2NiwtOC43MzM1IC00LjA0MzEsLTQuMjgyIC0zLjkwOTMsLTEuNDQwOSAtMS4wMzQsMi41MjcxIDEuODA3OSwyLjYwOTYgMC40MDYyLDMuNjgwMiAxLjIxMSwtMC4wNDg4IDEuMzIzMiwtMS4yMDY5IC0wLjM1NjksMy43NDg4IC0xLjQ2NjcsMC45ODM5IDAuMDQ0NSwxLjQyODYgLTMuNDc0NCwtMS45NjU1IC0zLjE0NjIsLTMuNzEyIC0wLjY1NTksLTMuMzE3NiAxLjM0NTMsLTIuNjU2NyAxLjI1NDksLTQuNTEzMyAyLjU1MjEsLTEuMjA4NCAyLjY4NDcsMC4xMzE4IDIuNTQ1NSwxLjQ3OTEgLTEuNjk4LC04LjYxMjIgMS42OTgsLTkuNTgyNSAtMS44NjkyLC00LjQyNDYgLTYuMTIyMywtNi41OTY1IDEuMDg4NSwtMy45NDEgMi45MDAyLC00LjU2NjkgNS40Njg4LC0zLjg0ODYgMi45MDA3LC0wLjM5NjkgMy4yMjUsLTAuMTA5NCAtMi4wMTIsLTguMjYwMSA3LjM5OTMsLTMuMDMyNiA5LjIxODgsLTEuMjEyOSAzLjE1MzUsMi4wNjE5IDAuMjQyNyw1LjU3OTcgMy41MTc4LDUuODIyNCAwLjI0MjYsNC42MDk0IDguNDkwOSwtMC42MDY2IDcuODg0MywwLjcyNzkgLTcuODg0MywtNC43MzA3IDEuMzM0MywtNS43MDEgNC45NzMxLC03Ljc2MyA0Ljg1MjEsLTIuMDYyMiAzLjg4MTQsMS41NzY5IDEuNTc3LDMuMTUzOCA4LjEyNjksNi4xODYxIDEuNTc2OSwtMS4zMzQzIDEyLjczNjMsLTAuNDg1IDIuNTQ3MywyLjA2MTkgMC4yNDI2LDMuNjM5MSAtMC44NDksMS41NzY3IC0wLjYwNjYsOS44MjUxIC00LjI0NTQsOC40OTA5IDAuNzI3NiwzLjc2MDUgMi41NDc1LC0xLjMzNDMgNy4xNTY2LC02LjY3MTYgMy41MTc1LC0wLjI0MjQgMy44ODE1LDEuNTc2OSAzLjg4MTgsMi45MTA5IDEuOTQwNiw2LjMwNzcgMTEuNDAyMSwtMC43Mjc3IDYuOTE0LDIuNjY4NiA1LjU3OTcsNS4yMTU3IDQuMDAyOCw3LjUyMDYgMC45NzA2LDguODU0NiAtMC44NDkzLDEwLjMxMDUgLTIuMTgzMiw5LjIxODUgLTIuMTgzNiwyLjkxMTIgLTMuMDMyMiwwLjk3MDYgLTUuMzM3MywtNS44MjI0IC00Ljg1MTgsLTEuNjk4MiAtNC4yNDU1LDcuMDM1MyAtNC4yNDU0LDMuODgxNSAtMi4zMDQ5LDEuNDU1NiAtOS4yMTg1LDcuNjQxOSAtNy4zOTkzLDQuMDAyOCAtNy4zOTkzLDAuNjA2NiAtOC42MTE5LC0xLjQ1NTYgLTcuNTIwNiwtMi43ODk5IC01LjIxNTgsLTQuMjQ1NCAtNC4xMjQxLC00Ljk3MzQgLTQuMjQ1NCwtMS4yMTI5IiBpZD0icGF0aDExOCIvPjwvY2xpcFBhdGg+PGNsaXBQYXRoIGlkPSJjbGlwUGF0aDEyOCI+PHBhdGggZD0ibSA5MS43MzY4LDE0Ni4zMjUzIC05LjcwMzksLTEuNTc3IC04Ljg1NDgsLTMuODgxNCAtNy41MjA2LC00LjczMDggLTcuMTU2NiwtOC43MzM1IC00LjA0MzEsLTQuMjgyIC0zLjkwOTMsLTEuNDQwOSAtMS4wMzQsMi41MjcxIDEuODA3OSwyLjYwOTYgMC40MDYyLDMuNjgwMiAxLjIxMSwtMC4wNDg4IDEuMzIzMiwtMS4yMDY5IC0wLjM1NjksMy43NDg4IC0xLjQ2NjcsMC45ODM5IDAuMDQ0NSwxLjQyODYgLTMuNDc0NCwtMS45NjU1IC0zLjE0NjIsLTMuNzEyIC0wLjY1NTksLTMuMzE3NiAxLjM0NTMsLTIuNjU2NyAxLjI1NDksLTQuNTEzMyAyLjU1MjEsLTEuMjA4NCAyLjY4NDcsMC4xMzE4IDIuNTQ1NSwxLjQ3OTEgLTEuNjk4LC04LjYxMjIgMS42OTgsLTkuNTgyNSAtMS44NjkyLC00LjQyNDYgLTYuMTIyMywtNi41OTY1IDEuMDg4NSwtMy45NDEgMi45MDAyLC00LjU2NjkgNS40Njg4LC0zLjg0ODYgMi45MDA3LC0wLjM5NjkgMy4yMjUsLTAuMTA5NCAtMi4wMTIsLTguMjYwMSA3LjM5OTMsLTMuMDMyNiA5LjIxODgsLTEuMjEyOSAzLjE1MzUsMi4wNjE5IDAuMjQyNyw1LjU3OTcgMy41MTc4LDUuODIyNCAwLjI0MjYsNC42MDk0IDguNDkwOSwtMC42MDY2IDcuODg0MywwLjcyNzkgLTcuODg0MywtNC43MzA3IDEuMzM0MywtNS43MDEgNC45NzMxLC03Ljc2MyA0Ljg1MjEsLTIuMDYyMiAzLjg4MTQsMS41NzY5IDEuNTc3LDMuMTUzOCA4LjEyNjksNi4xODYxIDEuNTc2OSwtMS4zMzQzIDEyLjczNjMsLTAuNDg1IDIuNTQ3MywyLjA2MTkgMC4yNDI2LDMuNjM5MSAtMC44NDksMS41NzY3IC0wLjYwNjYsOS44MjUxIC00LjI0NTQsOC40OTA5IDAuNzI3NiwzLjc2MDUgMi41NDc1LC0xLjMzNDMgNy4xNTY2LC02LjY3MTYgMy41MTc1LC0wLjI0MjQgMy44ODE1LDEuNTc2OSAzLjg4MTgsMi45MTA5IDEuOTQwNiw2LjMwNzcgMTEuNDAyMSwtMC43Mjc3IDYuOTE0LDIuNjY4NiA1LjU3OTcsNS4yMTU3IDQuMDAyOCw3LjUyMDYgMC45NzA2LDguODU0NiAtMC44NDkzLDEwLjMxMDUgLTIuMTgzMiw5LjIxODUgLTIuMTgzNiwyLjkxMTIgLTMuMDMyMiwwLjk3MDYgLTUuMzM3MywtNS44MjI0IC00Ljg1MTgsLTEuNjk4MiAtNC4yNDU1LDcuMDM1MyAtNC4yNDU0LDMuODgxNSAtMi4zMDQ5LDEuNDU1NiAtOS4yMTg1LDcuNjQxOSAtNy4zOTkzLDQuMDAyOCAtNy4zOTkzLDAuNjA2NiAtOC42MTE5LC0xLjQ1NTYgLTcuNTIwNiwtMi43ODk5IC01LjIxNTgsLTQuMjQ1NCAtNC4xMjQxLC00Ljk3MzQgLTQuMjQ1NCwtMS4yMTI5IiBpZD0icGF0aDEzMCIvPjwvY2xpcFBhdGg+PC9kZWZzPjxnIHRyYW5zZm9ybT0ibWF0cml4KDEuMjUsMCwwLC0xLjI1LC0zNy40Mzk0MTUsMjIzLjAzOTYyKSIgaWQ9ImcxMCI+PHBhdGggZD0ibSA0NjYuNzg1NCw0OC40NDcyIGMgMTAuMDU5MywwIDIwLjExODYsMCAzMC4xNzg0LDAgMS4yNDU2LDUuNjY4NSAyLjQ5MTQsMTEuMzM2MyAzLjczNzIsMTcuMDA0NSA4LjYxMjgsMCAxNy41MDM3LC0wLjA1NTYgMjYuMTE3LC0wLjA1NTYgNC4yMDU4LDAgNy45MjkxLDEuMzA2MiAxMS4yMzY5LDMuNTQxMyAzLjk5MjMsMi42OTc4IDYuOTczMiw2LjgzMTUgOC4wOTI5LDExLjkzMTYgMS44OTM1LDguNjI3IDMuNzk4NywxNy4yNTI1IDUuNzAzLDI1Ljg3NyAxLjA4NjIsNC45MjQgMi40OTkzLDEwLjQ4NDIgLTEuMDMxNSwxNC45MzE0IC0zLjI0NzQsNC4wOTIxIC03LjU1NzUsNC40MTAyIC0xMi4yODkzLDQuNDEwMiAtMzQuMDcyNSwtMC4wMzc0IC02OC4xNDYzLDhlLTQgLTEwMi4yMTkxLDhlLTQgLTMuNDM5NSwwIC02LjMyMDcsLTEuMTEyMyAtOS4zMjcxLC0yLjY2MjUgLTIuODIwMiwxLjk5NDEgLTUuMzY1NCwyLjY2MjUgLTguODIzNCwyLjY2MjUgLTE1LjU4OTEsMCAtMzEuMTc5MSwwIC00Ni43NjgyLDAgMS4yNzcsNS43NDYyIDIuNTUzNywxMS40OTIzIDMuODMwNCwxNy4yMzgxIC0xMC4wNzQ2LDAgLTIwLjE0OTgsMCAtMzAuMjI1LDAgLTEuMjQ1NSwtNS42MDU4IC0yLjQ5MTMsLTExLjIxMTYgLTMuNzM3MiwtMTYuODE3NCAtOC44NjA1LDAgLTE3LjcyMSwwIC0yNi41ODE4LDAgLTMuNjcxNSwwIC03LjE5ODEsLTEuMTUyIC0xMC4yNzY4LC0zLjEzIC0yLjk4NDksMS44NTY3IC01LjI4NjYsMi42NjI5IC04LjgyMjUsMi42NjI5IC0yOS4yNDY1LDAgLTU4LjQ5MjQsMCAtODcuNzM4OCwwIDEuMzM5Myw1LjgyMzQgMi42Nzg3LDExLjY0NzUgNC4wMTc1LDE3LjQ3MTYgLTEwLjA1OTMsMC4wMTUzIC0yMC4xMTg2LDAuMDMwOSAtMzAuMTc4MiwwLjA0NjUgLTUuNzk5NCwtMjUuOTM5IC0xMS41OTg4LC01MS44NzggLTE3LjM5ODIsLTc3LjgxNjcgMTAuMDUsLTAuMDAyOSAyMC4wOTk5LC0wLjAwNTcgMzAuMTQ5MywtMC4wMDg1IDMuMDIzNCwxMy4yNzQ5IDYuMDQ2MywyNi41NTAxIDkuMDY5MiwzOS44MjUzIDMuNDAwNCwwIDYuODAwOCwwIDEwLjIwMjEsMCAxLjIxNDEsMCAwLjk3NTIsLTAuNjkxNiAwLjc3MTYsLTEuNjA1NSAtMi44NTkzLC0xMi43Mzk4IC01LjcxODksLTI1LjQ4MDEgLTguNTc3OSwtMzguMjE5OCA2Ni42MjU4LDAgMTMzLjI1MTksLTNlLTQgMTk5Ljg3OTQsLTNlLTQgMy4zOTEzLDAgNi4wNDUxLDAuNzAxMyA5LjA5ODEsMi4yNTgxIDMuMDA4NCwtMi4wMTAxIDUuNjY3LC0yLjY3NzkgOS4zNDI3LC0yLjY0NjIgbCA0Ni4yOTQ1LDAuMzg4NCBjIC0xLjI0MTgsLTUuNzYyNiAtMi40ODM0LC0xMS41MjUxIC0zLjcyNTIsLTE3LjI4NzcgeiBtIC0xMzAuNTQ1Nyw1Ny4wNTc1IGMgLTIuOTY1MywwIC01LjkzMDksMCAtOC44OTcxLDAgLTEuNTYwNywwIC0xLjk4MTQsLTAuNzExOCAtMi4yOTE4LC0yLjExMSAtMS4xMTQsLTQuOTk2MSAtMi4yMjc1LC05Ljk5MyAtMy4zNDE1LC0xNC45ODg1IC0wLjMxNzUsLTEuNDM2IDAuNDA5MSwtMS42NzA3IDEuNjY1NywtMS42NzA3IDIuODg2NSwwIDUuNzczLDAgOC42NTkyLDAgMS40MDIxLDYuMjU2NiAyLjgwMzgsMTIuNTEzMiA0LjIwNTUsMTguNzcwMiB6IG0gNTEuMDM3MiwtMC4zNjIzIGMgMy4xNjc4LDAgNi4zMzU1LDAgOS41MDM1LDAgMS44Mjg5LDAgMS43Mjg4LC0wLjk1OSAxLjM5OTcsLTIuNDQwNCAtMS4wODg1LC00Ljg5MzcgLTIuMTc3LC05Ljc4ODMgLTMuMjY1MiwtMTQuNjgyMyAtMC4zNzk2LC0xLjcwOSAtMS40NDQzLC0xLjY3OTggLTIuOTEyNiwtMS42Nzk4IC0zLjIyMzYsMCAtNi40NDcxLDAgLTkuNjcxLDAgLTEuNDIwNywwIC0xLjQzMzIsMC44Mzk5IC0xLjE4MDYsMS45ODg1IDEuMDg0Myw0Ljg5MjkgMi4xNjk2LDkuNzg2MyAzLjI1MTksMTQuNjc5MiAwLjQwMDgsMS44MTMxIDEuMTE0NiwyLjEzNDggMi44NzQzLDIuMTM0OCB6IG0gNjIuNTU5LDAgYyAzLjE2NzcsMCA2LjMzNTQsMCA5LjUwMzQsMCAxLjgyODksMCAxLjcyODksLTAuOTU5IDEuMzk5NSwtMi40NDA0IC0xLjA4ODIsLTQuODkzNyAtMi4xNzcsLTkuNzg4MyAtMy4yNjUsLTE0LjY4MjMgLTAuMzc5NSwtMS43MDkgLTEuNDQ0MiwtMS42Nzk4IC0yLjkxMjksLTEuNjc5OCAtMy4yMjMyLDAgLTYuNDQ2OCwwIC05LjY3MDYsMCAtMS40MjA4LDAgLTEuNDMzMiwwLjgzOTkgLTEuMTgwOSwxLjk4ODUgMS4wODQyLDQuODkyOSAyLjE2OTksOS43ODYzIDMuMjUyMSwxNC42NzkyIDAuNDAwOSwxLjgxMzEgMS4xMTQ2LDIuMTM0OCAyLjg3NDQsMi4xMzQ4IHogTSA1MDUuNjI0OCw4Ni4xOTkgYyAyLjk2NTMsMCA1LjkzMDksMCA4Ljg5NzEsMCAxLjU2MDgsMCAxLjk4MTcsMC43MTE4IDIuMjkxOCwyLjExMSAxLjExNCw0Ljk5NiAyLjIyNzUsOS45OTMgMy4zNDE1LDE0Ljk4ODUgMC4zMTc1LDEuNDM2IC0wLjQwOSwxLjY3MDcgLTEuNjY1NiwxLjY3MDcgLTIuODg2NSwwIC01Ljc3MjgsMCAtOC42NTkzLDAgLTEuNDAyLC02LjI1NjYgLTIuODAzNywtMTIuNTEzMyAtNC4yMDU1LC0xOC43NzAyIiBpZD0icGF0aDIwIiBzdHlsZT0iZmlsbDojMDAwMDAwO2ZpbGwtb3BhY2l0eToxO2ZpbGwtcnVsZTpldmVub2RkO3N0cm9rZTpub25lIi8+PHBhdGggZD0ibSAzODAuMzE4NywxMjEuNzE0OSAzNy45MDU1LDAgYyA1LjkxNTYsMCA5LjY4MjYsLTQuODQwNSA4LjM3MjQsLTEwLjc1NDcgTCA0MTkuODQzMSw4MC40NzQ3IEMgNDE4LjUzMjksNzQuNTYgNDEyLjYyMDcsNjkuNzIwMSA0MDYuNzA1OSw2OS43MjAxIGwgLTM3LjkwNTIsMCBjIC01LjkxNDcsMCAtOS42ODI4LDQuODM5MyAtOC4zNzI0LDEwLjc1NDYgbCA2Ljc1MzMsMzAuNDg1NSBjIDEuMzEwNyw1LjkxNTYgNy4yMjE4LDEwLjc1NDcgMTMuMTM3MSwxMC43NTQ3IHogbSA2Ljg3MDksLTEyLjIzOTIgMTguNzQxMywwIGMgMy4xMzE0LDAgNS4xMjQ1LC0yLjU2MTQgNC40MzE0LC01LjY5MDUgbCAtMy41NzQ1LC0xNi4xMzYgYyAtMC42OTMzLC0zLjEyODkgLTMuODIyMiwtNS42OTAyIC02Ljk1MjUsLTUuNjkwMiBsIC0xOC43NDE2LDAgYyAtMy4xMzAzLDAgLTUuMTI0NCwyLjU2MDggLTQuNDMxMSw1LjY5MDIgbCAzLjU3NDUsMTYuMTM2IGMgMC42OTM0LDMuMTMwMyAzLjgyMTEsNS42OTA1IDYuOTUyNSw1LjY5MDUiIGlkPSJwYXRoMjIiIHN0eWxlPSJmaWxsOiMxZjE5MTc7ZmlsbC1vcGFjaXR5OjE7ZmlsbC1ydWxlOmV2ZW5vZGQ7c3Ryb2tlOm5vbmUiLz48cGF0aCBkPSJtIDQ0Mi44MDMxLDEyMS43MTQ5IDM3LjkwNTgsMCBjIDUuOTE1OSwwIDkuNjgyOCwtNC44NDA1IDguMzcyNiwtMTAuNzU0NyBMIDQ4Mi4zMjgzLDgwLjQ3NDcgQyA0ODEuMDE3OCw3NC41NiA0NzUuMTA1Niw2OS43MjAxIDQ2OS4xOTA2LDY5LjcyMDEgbCAtMzcuOTA1NSwwIGMgLTUuOTE0OCwwIC05LjY4MjksNC44MzkzIC04LjM3MjQsMTAuNzU0NiBsIDYuNzUzMywzMC40ODU1IGMgMS4zMTA3LDUuOTE1NiA3LjIyMTgsMTAuNzU0NyAxMy4xMzcxLDEwLjc1NDcgeiBtIDYuODcwOSwtMTIuMjM5MiAxOC43NDIxLDAgYyAzLjEzMTIsMCA1LjEyNDIsLTIuNTYxNCA0LjQzMDksLTUuNjkwNSBsIC0zLjU3NDUsLTE2LjEzNiBjIC0wLjY5MzQsLTMuMTI4OSAtMy44MjIsLTUuNjkwMiAtNi45NTIzLC01LjY5MDIgbCAtMTguNzQyMSwwIGMgLTMuMTMwMywwIC01LjEyNDUsMi41NjA4IC00LjQzMTEsNS42OTAyIGwgMy41NzQ1LDE2LjEzNiBjIDAuNjkzMywzLjEzMDMgMy44MjExLDUuNjkwNSA2Ljk1MjUsNS42OTA1IiBpZD0icGF0aDI0IiBzdHlsZT0iZmlsbDojMWYxOTE3O2ZpbGwtb3BhY2l0eToxO2ZpbGwtcnVsZTpldmVub2RkO3N0cm9rZTpub25lIi8+PHBhdGggZD0ibSA0OTQuNTY2MywxMjEuNzE0OSA0NS40OTQxLDAgYyA1LjkxNTYsMCA5LjY4MjMsLTQuODQxNiA4LjM3MjQsLTEwLjc1NDcgTCA1NDEuNjc5NSw4MC40NzQ3IEMgNTQwLjM2OTYsNzQuNTYyIDUzNC40NTQ2LDY5LjcxNyA1MjguNTQyNCw2OS43MjAxIGwgLTQ1LjQ5NDEsMC4wMjE4IDExLjUxOCw1MS45NzMgeiBtIDExLjg5MjgsLTEyLjIzOTIgMjEuMzA4MywwIGMgMy4xMzExLDAgNS4xMjM5LC0yLjU2MTkgNC40MzExLC01LjY5MDUgbCAtMy41NzQ1LC0xNi4xMzYgYyAtMC42OTMxLC0zLjEyNzQgLTMuODIzMSwtNS42OTAyIC02Ljk1MjUsLTUuNjkwMiBsIC0yMS4zMjczLDAiIGlkPSJwYXRoMjYiIHN0eWxlPSJmaWxsOiMxZjE5MTc7ZmlsbC1vcGFjaXR5OjE7ZmlsbC1ydWxlOmV2ZW5vZGQ7c3Ryb2tlOm5vbmUiLz48cGF0aCBkPSJtIDM1NC45Mjc3LDcwLjEyOTEgLTQ1LjQ5MzgsMCBjIC01LjkxNTYsMCAtOS42ODI2LDQuODQxOSAtOC4zNzI0LDEwLjc1NTIgbCA2Ljc1MzIsMzAuNDg1IGMgMS4zMDk5LDUuOTEzNiA3LjIyNDcsMTAuNzU4IDEzLjEzNzUsMTAuNzU0NiBsIDQ1LjQ5NDEsLTAuMDIxMyAtMTEuNTE4NiwtNTEuOTczNSB6IG0gLTExLjg5MjgsMTIuMjM5NSAtMjEuMzA4MywwIGMgLTMuMTMwOSwwIC01LjEyMzksMi41NjI1IC00LjQzMDgsNS42OSBsIDMuNTc0NSwxNi4xMzY1IGMgMC42OTMsMy4xMjc3IDMuODIyOCw1LjY5MDUgNi45NTIyLDUuNjkwNSBsIDIxLjMyNzYsMCIgaWQ9InBhdGgzMCIgc3R5bGU9ImZpbGw6IzFmMTkxNztmaWxsLW9wYWNpdHk6MTtmaWxsLXJ1bGU6ZXZlbm9kZDtzdHJva2U6bm9uZSIvPjxwYXRoIGQ9Im0gMTk5LjEzMDcsMTIxLjcxNDkgMzQuNzcyOSwwIGMgNS45MTU0LDAgOS42ODI2LC00LjgzOTYgOC4zNzI3LC0xMC43NTQ3IGwgLTQuOTM3NCwtMjIuMjg2NSAtMTQuNjQ0NiwwIDMuMzQ3NywxNS4xMTE1IGMgMC42OTI4LDMuMTMwMyAtMS4zMDE5LDUuNjkwNSAtNC40MzE0LDUuNjkwNSBsIC0yMS41NDQ0LDAgYyAtMy4xMjg5LDAgLTAuMzI0LC0yLjU2MTkgLTEuMDE2NSwtNS42OTA1IGwgLTMuMzAzNSwtMTQuOTA5NyAtMTQuNjQ0OSwwIDQuODkyOCwyMi4wODQ3IGMgMS4zMTAyLDUuOTE1NiA3LjIyMSwxMC43NTQ3IDEzLjEzNjYsMTAuNzU0NyIgaWQ9InBhdGgzNCIgc3R5bGU9ImZpbGw6IzFmMTkxNztmaWxsLW9wYWNpdHk6MTtmaWxsLXJ1bGU6ZXZlbm9kZDtzdHJva2U6bm9uZSIvPjxwYXRoIGQ9Im0gMTc2Ljk3MDYsNzAuMTI5MSA5Ljk5NjEsNDQuOTkyNyAxNC42MDUsMCAtMTAuMDEyLC00NC45OTI3IiBpZD0icGF0aDM2IiBzdHlsZT0iZmlsbDojMWYxOTE3O2ZpbGwtb3BhY2l0eToxO2ZpbGwtcnVsZTpldmVub2RkO3N0cm9rZTpub25lIi8+PHBhdGggZD0ibSAyOTUuNTc2Miw3MC4xMjkxIC00OC42MjY0LDAgYyAtNS45MTQ4LDAgLTkuNjgyOSw0Ljg0MSAtOC4zNzI3LDEwLjc1NTIgbCAxLjk1OTMsOC44NDU2IDAuMDA5LDAgMC4zNzY3LDEuNzAxIGMgMS4zMDkzLDUuOTEzNyA3LjIyMzgsMTAuNzU3MiAxMy4xMzcyLDEwLjc1NDcgbCAzNC4wMjM5LC0wLjAxNTMgMC41MDIsMi4yNTg2IGMgMC41MzQxLDIuOTQ4IC0xLjMyNDMsNS4zMzcxIC00LjI0NjUsNS40NTY3IGwgLTM5LjM4NjMsMCAyLjcxMTMsMTIuMjMzNSA0OC44Nzg0LC0wLjAxMzkgYyA1Ljc5MzIsLTAuMTE0MiA5LjQ1NjQsLTQuOTA2OCA4LjE2MjEsLTEwLjc1MTIgbCAtMC45MTk5LC00LjE1MiAwLjAwOCwwIC0xLjExNjYsLTUuMDM4IDAuMDEwOCwwIC01LjczNTYsLTI1Ljg4MDMgLTAuMDEwOCwwIC0xLjM2NCwtNi4xNTQ2IHogbSAtMzcuNzk3OCwxMi4yMzk1IDI1LjkwNDcsMCAxLjY4NDQsNy41Nzg0IC0yNS40NjE0LDAgYyAtMC4xMjI0LDAuMDEyNSAtMC4yNDg2LDAuMDE5NiAtMC4zNzczLDAuMDE5NiBsIDAsMCBjIC0yLjA4NTcsMCAtNC4xNjgsLTEuNzA1OSAtNC42Mjc4LC0zLjc5MTQgbCAwLDAgYyAtMC40NTUsLTIuMDYxMyAwLjgzODIsLTMuNzUxMSAyLjg4MTEsLTMuNzkxMyAtMC4wMDEsLTAuMDA1MSAtMC4wMDIsLTAuMDEwNSAtMC4wMDQsLTAuMDE1MyIgaWQ9InBhdGg0MiIgc3R5bGU9ImZpbGw6IzFmMTkxNztmaWxsLW9wYWNpdHk6MTtmaWxsLXJ1bGU6ZXZlbm9kZDtzdHJva2U6bm9uZSIvPjxwYXRoIGQ9Im0gMzgwLjMxODcsMTIxLjcxNDkgMzcuOTA1NSwwIGMgNS45MTU2LDAgOS42ODI2LC00Ljg0MDUgOC4zNzI0LC0xMC43NTQ3IEwgNDE5Ljg0MzEsODAuNDc0NyBDIDQxOC41MzI5LDc0LjU2IDQxMi42MjA3LDY5LjcyMDEgNDA2LjcwNTksNjkuNzIwMSBsIC0zNy45MDUyLDAgYyAtNS45MTQ3LDAgLTkuNjgyOCw0LjgzOTMgLTguMzcyNCwxMC43NTQ2IGwgNi43NTMzLDMwLjQ4NTUgYyAxLjMxMDcsNS45MTU2IDcuMjIxOCwxMC43NTQ3IDEzLjEzNzEsMTAuNzU0NyB6IG0gNi44NzA5LC0xMi4yMzkyIDE4Ljc0MTMsMCBjIDMuMTMxNCwwIDUuMTI0NSwtMi41NjE0IDQuNDMxNCwtNS42OTA1IGwgLTMuNTc0NSwtMTYuMTM2IGMgLTAuNjkzMywtMy4xMjg5IC0zLjgyMjIsLTUuNjkwMiAtNi45NTI1LC01LjY5MDIgbCAtMTguNzQxNiwwIGMgLTMuMTMwMywwIC01LjEyNDQsMi41NjA4IC00LjQzMTEsNS42OTAyIGwgMy41NzQ1LDE2LjEzNiBjIDAuNjkzNCwzLjEzMDMgMy44MjExLDUuNjkwNSA2Ljk1MjUsNS42OTA1IiBpZD0icGF0aDQ0IiBzdHlsZT0iZmlsbDojNjZjY2ZmO2ZpbGwtb3BhY2l0eToxO2ZpbGwtcnVsZTpldmVub2RkO3N0cm9rZTpub25lIi8+PHBhdGggZD0ibSA0NDIuODAzMSwxMjEuNzE0OSAzNy45MDU4LDAgYyA1LjkxNTksMCA5LjY4MjgsLTQuODQwNSA4LjM3MjYsLTEwLjc1NDcgTCA0ODIuMzI4Myw4MC40NzQ3IEMgNDgxLjAxNzgsNzQuNTYgNDc1LjEwNTYsNjkuNzIwMSA0NjkuMTkwNiw2OS43MjAxIGwgLTM3LjkwNTUsMCBjIC01LjkxNDgsMCAtOS42ODI5LDQuODM5MyAtOC4zNzI0LDEwLjc1NDYgbCA2Ljc1MzMsMzAuNDg1NSBjIDEuMzEwNyw1LjkxNTYgNy4yMjE4LDEwLjc1NDcgMTMuMTM3MSwxMC43NTQ3IHogbSA2Ljg3MDksLTEyLjIzOTIgMTguNzQyMSwwIGMgMy4xMzEyLDAgNS4xMjQyLC0yLjU2MTQgNC40MzA5LC01LjY5MDUgbCAtMy41NzQ1LC0xNi4xMzYgYyAtMC42OTM0LC0zLjEyODkgLTMuODIyLC01LjY5MDIgLTYuOTUyMywtNS42OTAyIGwgLTE4Ljc0MjEsMCBjIC0zLjEzMDMsMCAtNS4xMjQ1LDIuNTYwOCAtNC40MzExLDUuNjkwMiBsIDMuNTc0NSwxNi4xMzYgYyAwLjY5MzMsMy4xMzAzIDMuODIxMSw1LjY5MDUgNi45NTI1LDUuNjkwNSIgaWQ9InBhdGg0NiIgc3R5bGU9ImZpbGw6IzY2Y2NmZjtmaWxsLW9wYWNpdHk6MTtmaWxsLXJ1bGU6ZXZlbm9kZDtzdHJva2U6bm9uZSIvPjxwYXRoIGQ9Im0gNjE4LjIxODc1LDExNC4wOTM3NSAtMTEuODc1LDUzLjUgLTIuNTMxMjUsMTEuNDY4NzUgLTQuODEyNSwyMS43ODEyNSAxOC4yMTg3NSwwIDQuODQzNzUsLTIxLjc4MTI1IDM4LjYyNSwwLjAzMTIgYyA3LjM5MDI1LDAuMDA0IDE0Ljc2ODg3LC02LjA0NjYyIDE2LjQwNjI1LC0xMy40Mzc1IGwgOC40Mzc1LC0zOC4wOTM3NSBDIDY4Ny4xNjg2MywxMjAuMTcxMDggNjgyLjQ1NywxMTQuMDkzNyA2NzUuMDYyNSwxMTQuMDkzNyBsIC01Ni44NDM3NSwwIHogbSAxNC44NDM3NSwxNS4zMTI1IDI2LjY1NjI1LDAgYyAzLjkxMzg3LDAgNi4zOTcyNSwzLjIxNDI1IDUuNTMxMjUsNy4xMjUgbCAtNC40Njg3NSwyMC4xNTYyNSBjIC0wLjg2NjM3LDMuOTA5MjUgLTQuNzc1NzUsNy4xMjUgLTguNjg3NSw3LjEyNSBsIC0yNi42NTYyNSwwIDcuNjI1LC0zNC40MDYyNSB6IiB0cmFuc2Zvcm09Im1hdHJpeCgwLjgsMCwwLC0wLjgsMCwyMTMpIiBpZD0icGF0aDQ4IiBzdHlsZT0iZmlsbDojNjZjY2ZmO2ZpbGwtb3BhY2l0eToxO2ZpbGwtcnVsZTpldmVub2RkO3N0cm9rZTpub25lIi8+PHBhdGggZD0ibSA0NDQuNjU2MjUsOTEuODQzNzUgLTQuODQzNzUsMjEuNzgxMjUgLTM4LjYyNSwtMC4wMzEyIGMgLTcuMzkxLC0wLjAwNCAtMTQuNzY4ODcsNi4wNDU1IC0xNi40MDYyNSwxMy40Mzc1IGwgLTguNDY4NzUsMzguMTI1IGMgLTEuNjM3NzUsNy4zOTE2MyAzLjA3NDI1LDEzLjQzNzUgMTAuNDY4NzUsMTMuNDM3NSBsIDU2Ljg3NSwwIDE0LjQwNjI1LC02NC45Njg3NSA0LjgxMjUsLTIxLjc4MTI1IC0xOC4yMTg3NSwwIHogbSAtMzQuODc1LDM3LjA2MjUgMjYuNjU2MjUsMCAtNy42NTYyNSwzNC4zNzUgLTI2LjYyNSwwIGMgLTMuOTEzNjIsMCAtNi4zOTc2MywtMy4xODQzOCAtNS41MzEyNSwtNy4wOTM3NSBMIDQwMS4wOTM3NSwxMzYgYyAwLjg2NjI1LC0zLjkwOTYzIDQuNzc1NzUsLTcuMDkzNzUgOC42ODc1LC03LjA5Mzc1IHoiIHRyYW5zZm9ybT0ibWF0cml4KDAuOCwwLDAsLTAuOCwwLDIxMykiIGlkPSJwYXRoNTIiIHN0eWxlPSJmaWxsOiM2NmNjZmY7ZmlsbC1vcGFjaXR5OjE7ZmlsbC1ydWxlOmV2ZW5vZGQ7c3Ryb2tlOm5vbmUiLz48cGF0aCBkPSJtIDI0MC40MDYyNSw5MS44NDM3NSAtNy4zNzUsMzMuMjUgMC4wOTM3LDAgLTAuMzEyNSwxLjMxMjUgYyAtMC4xMTY5MiwwLjM4MDI4IC0wLjIyNjQ4LDAuNzY3ODYgLTAuMzEyNSwxLjE1NjI1IGwgLTYuMTI1LDI3LjU5Mzc1IDAuMDYyNSwwIC01LjIxODc1LDIzLjQzNzUgMTguMjE4NzUsMCA1LjIxODc1LC0yMy40Mzc1IDAuMDMxMiwwIDQuMTI1LC0xOC42MjUgYyAwLjAwNywtMC4wMjk3IC0wLjAwNiwtMC4wNjQxIDAsLTAuMDkzNyBsIDEuNTkzNzUsLTcuMDMxMjUgMjYuNTkzNzUsMCBjIDMuOTExODgsMCA2LjQyODUsMy4yMTIxMiA1LjU2MjUsNy4xMjUgbCAtNC4xODc1LDE4Ljg3NSAtNS4xMjUsMjMuMTg3NSAxOC4yNSwwIDUuMTU2MjUsLTIzLjE4NzUgMC4wMzEyLDAgNi4xNTYyNSwtMjcuODQzNzUgYyAxLjYzNzM4LC03LjM5Mzg3IC0zLjA3NDUsLTEzLjQ2ODc1IC0xMC40Njg3NSwtMTMuNDY4NzUgbCAtMzguNjU2MjUsMCA0LjkzNzUsLTIyLjI1IC0xOC4yNSwwIHoiIHRyYW5zZm9ybT0ibWF0cml4KDAuOCwwLDAsLTAuOCwwLDIxMykiIGlkPSJwYXRoNTYiIHN0eWxlPSJmaWxsOiM2NmNjZmY7ZmlsbC1vcGFjaXR5OjE7ZmlsbC1ydWxlOmV2ZW5vZGQ7c3Ryb2tlOm5vbmUiLz48cGF0aCBkPSJtIDI5NS41NzYyLDcwLjEyOTEgLTQ4LjYyNjQsMCBjIC01LjkxNDgsMCAtOS42ODI5LDQuODQxIC04LjM3MjcsMTAuNzU1MiBsIDEuOTU5Myw4Ljg0NTYgMC4wMDksMCAwLjM3NjcsMS43MDEgYyAxLjMwOTMsNS45MTM3IDcuMjIzOCwxMC43NTcyIDEzLjEzNzIsMTAuNzU0NyBsIDM0LjAyMzksLTAuMDE1MyAwLjUwMiwyLjI1ODYgYyAwLjUzNDEsMi45NDggLTEuMzI0Myw1LjMzNzEgLTQuMjQ2NSw1LjQ1NjcgbCAtMzkuMzg2MywwIDIuNzExMywxMi4yMzM1IDQ4Ljg3ODQsLTAuMDEzOSBjIDUuNzkzMiwtMC4xMTQyIDkuNDU2NCwtNC45MDY4IDguMTYyMSwtMTAuNzUxMiBsIC0wLjkxOTksLTQuMTUyIDAuMDA4LDAgLTEuMTE2NiwtNS4wMzggMC4wMTA4LDAgLTUuNzM1NiwtMjUuODgwMyAtMC4wMTA4LDAgLTEuMzY0LC02LjE1NDYgeiBtIC0zNy43OTc4LDEyLjIzOTUgMjUuOTA0NywwIDEuNjg0NCw3LjU3ODQgLTI1LjQ2MTQsMCBjIC0wLjEyMjQsMC4wMTI1IC0wLjI0ODYsMC4wMTk2IC0wLjM3NzMsMC4wMTk2IGwgMCwwIGMgLTIuMDg1NywwIC00LjE2OCwtMS43MDU5IC00LjYyNzgsLTMuNzkxNCBsIDAsMCBjIC0wLjQ1NSwtMi4wNjEzIDAuODM4MiwtMy43NTExIDIuODgxMSwtMy43OTEzIC0wLjAwMSwtMC4wMDUxIC0wLjAwMiwtMC4wMTA1IC0wLjAwNCwtMC4wMTUzIiBpZD0icGF0aDY0IiBzdHlsZT0iZmlsbDojNjZjY2ZmO2ZpbGwtb3BhY2l0eToxO2ZpbGwtcnVsZTpldmVub2RkO3N0cm9rZTpub25lIi8+PHBhdGggZD0iTSA1NC4xNCwxMDIuMDQ0NCBDIDUzLjU0MTksMTAwLjQxNjUgNTIuOTQzLDk4Ljc4OCA1Mi4zNDQ5LDk3LjE1OTIgNTAuODYzNyw5NS42OTM0IDQ5LjM4MjYsOTQuMjI1IDQ3LjkwMSw5Mi43NTg0IDQ2LjI4MTUsOTEuMTU0IDQ1LjkzMzIsOTEuMTY1IDQ2LjMxMzYsODguODk1NiBjIDAuNDQ2NywtMi42NjY1IDEuNzI4OCwtNS40MTQ0IDQuMDg5LC03Ljc4MDggMi40ODE0LC0yLjQ4NzQgNy42OTE1LC02LjAwNzcgMTEuNDQwNiwtNC4zNDgzIC0wLjM0ODQsLTEuMjU5OCAtMC44MTEsLTIuNTgwNyAtMS4zOTk4LC0zLjg3MjIgLTIuNTE0LC01LjUxMjIgMy42MTI4LC02LjU5MTkgNy45MDA1LC03Ljc1MTYgMy41NjM0LC0wLjk2MzUgMTIuMzA4NiwtMy41MzExIDEzLjU3MDYsMS4xNTIzIDAuNTY3NSwyLjEwNzMgMC42NTU2LDMuMjM5NyAwLjQ1MzUsNS4yNTE3IDEuMTA4OSwyLjQ3NSAxLjQ2MywyLjg2OTYgMi4zODA4LDQuMjMxNiAxLjI1OTUsMS44NjggMS4xNjksMi41NzkgMC44OTM1LDQuODk3MSAtMC4wNTMzLDAuNDQ2OCAtMC4xMTgyLDAuOTM0IC0wLjE5MzMsMS40NDYgNC4yNDM0LC0wLjYzODQgOC4zMjMzLC0wLjYzMDcgMTIuNDgxOCwtMC4xMTQ4IC0xLjI2MjYsLTAuNzM1NiAtMi41Mjg4LC0xLjM3OTkgLTQuMTk4NywtMi4yMzg1IC0zLjk2MzQsLTIuMDM3MyAtMC4yMjg1LC04LjA0NzkgMS40Nzk3LC0xMC42ODAxIDMuNTg1LC01LjUyNDUgNi43OTk0LC05LjMyNTQgMTIuODU1NCwtNi4wNDgzIDIuMDM0NCwxLjEwMTIgMi4xOTE0LDIuMjc0MiAzLjQ2MTEsNC4xNyAwLjcwMTMsMC4zODQ3IDQuMzE1NywzLjQ1ODYgNi40NjUyLDUuMTk1MSAwLjgxNDcsLTAuOTc3NCAyLjM3NDEsLTEuMTU3NCA0LjczOSwtMS4zMjgzIDEuMTksLTAuMDg2NSA1Ljg1NjcsLTAuMDU3IDcuMDkzNywtMC4wNjQ5IDMuNzExMSwtMC4wMjMzIDUuOTM4MywwLjM2MTkgNi4yMjg2LDQuNDA2NCAwLjEzNzUsMS45MTc5IDAuMDU1MiwyLjMyNTggLTAuODg4NCw0LjAwMjMgLTAuMDU3LDIuMTE1NyAtMC4xMTM0LDQuMjMxOCAtMC4xNjk4LDYuMzQ3IC0wLjA2NDYsMi4zODMxIC0wLjUxOTYsMy44NDQ5IC0xLjQ1NDcsNi4wNzEzIC0wLjg1MDQsMi4wMjE5IC0xLjMyNjcsMy43NDc2IC0yLjMxOTYsNS43MDg0IDAuMTM2MywwLjc2ODcgMC4yNDQzLDEuNTYxOSAwLjMxNzcsMi4zOTA3IDEuMjYxNywtMS4yMTUyIDIuNTIzMSwtMi40MzEzIDMuNzg0OSwtMy42NDY4IDIuNDA1MSwtMi4zMTY3IDQuMzkyNSwtNC4yMDg5IDguMDU5NywtNC4wMzU3IDMuODE5MSwwLjE4IDguMTkxMywzLjE4ODcgOS4zMTEsNi44NjkgMC4zNzMzLDEuMjI4NSAwLjc0NTUsMi40NTY3IDEuMTE4OCwzLjY4NDcgNS43NTk0LC0xLjA4ODUgMTIuNDkwMywtMC44MzkzIDE3LjUwNTEsMS44MzYzIDcuMzc1NCwzLjkzNjIgMTAuODI2MywxMS44NDk5IDExLjY3NDUsMjAuMjIxMiAwLjY4NjIsNi43NzIgLTAuNjM0NywxOC4xNTk5IC0zLjg2MzQsMjQuMzM4OSAtMC45NDkzLDEuODE3IC01LjIzNjQsNC4xMTYxIC03LjExNTgsMi4yMTE2IC0xLjQxNTksLTEuNDM1MiAtMi4zODg1LC0zLjYyMTYgLTMuOTE3MiwtNC45Mjc4IC0xLjE4NCwtMS4wMTE3IC0yLjY1MDcsLTEuNTEyNiAtMy45MzU5LC0yLjA0MjEgLTAuOTk1LDIuNjg2MSAtMi40MjUsNC43NzM5IC00LjE3Niw2Ljg2MDEgLTEuMzkyNCwxLjY1OCAtMi43MDQzLDIuNDg0MyAtNC41NDA1LDMuNjM0MSAtMy42Mjg0LDIuMjcyMiAtNi40NDQsNS4xNDA2IC05Ljc0NTUsNy44NjI0IC05Ljk5MDUsOC4yMzc1IC0xOC41Njk4LDcuOTg0OSAtMzEuMDE3NiwyLjc0NTcgLTUuOTM4NiwtMi40OTk5IC04LjgwMywtNS44OTI0IC0xMi40NDU1LC0xMC43NjQ5IC0yLjIwMTEsLTAuMTE0OCAtMy43MTM0LC0wLjU0MTEgLTYuMDQwMSwtMi41OTQ1IC0xLjcxNzUsLTEuNTE1NyAtMy4zMTY1LC0zLjA3NTEgLTQuODY0MiwtNC42OTA4IC0xMS42MzU3LC0xLjg1NDQgLTE4Ljg2MiwtNC4wNzE3IC0yNi41MDcxLC0xMC44NDkzIC0zLjExMSwtMi43NTgxIC01LjM3MjUsLTUuODE0NSAtNy4xMzY1LC05LjI1MDMgLTEuNjM3NiwtMS44MDk3IC0zLjI2NTgsLTMuNjY0NyAtNS40MjgsLTQuNDk3MiAtMS41MjIyLC0wLjU4NTQgLTEuNDkzOSwtMC41ODM5IC0yLjAzMDIsMC44NDc4IDEuODA5OSwxLjM2MDEgMS43ODEzLDMuOTIwNCAxLjk0ODgsNi4yMzc3IDEuMTQxOCwtMC4wNTQ0IDEuNTY5OCwtMS4zMzUxIDIuMzQ2MiwtMi4zMTUxIDAuNDU4MSwyLjA0OTIgMC43MjM3LDUuMjMxNiAtMS40MzI5LDYuMzQ4NSAwLjM1MDcsMC45Mzc0IDAuNzQ3NSwxLjg4MjIgMS4xMTA5LDIuOTE2IC0zLjE4MSwtMC41NTIyIC0xNC4wODY3LC03LjkwMyAtOC4yNjc4LC0xMy41MDk0IDAuMzgzLC0xLjU1NjcgMC42ODQ2LC0yLjYyOTEgMS4xOTA2LC0zLjY4MTYgMS4zMzE0LC0yLjc2ODkgNC4zMjUxLC0zLjI0MzQgNi45MzM4LC0yLjIyNiAtMC43MTQ5LC0zLjI3NzcgLTAuODU5OCwtNi44NDQgLTAuNDI5NSwtMTEuODUwMyAwLjEwMzIsLTEuMjAwMiAwLjI3NjQsLTIuNDExMSAwLjUwOTQsLTMuNjI1NSIgaWQ9InBhdGg2NiIgc3R5bGU9ImZpbGw6IzAwMDAwMDtmaWxsLW9wYWNpdHk6MTtmaWxsLXJ1bGU6ZXZlbm9kZDtzdHJva2U6bm9uZSIvPjxwYXRoIGQ9Im0gNTQuODMxMSwxMDEuNzkxIGMgLTAuMjQwMSwtMC42NTQyIC0wLjQ4MTMsLTEuMzA5NiAtMC43MjE3LC0xLjk2NDEgbCAtMS4zODIyLDAuNTA2OCBjIDAuMjQwNCwwLjY1NDUgMC40ODE3LDEuMzA5OSAwLjcyMTcsMS45NjQxIGwgMS4zODIyLC0wLjUwNjggeiBtIC0wLjcyMTcsLTEuOTY0MSBjIC0wLjM1NzcsLTAuOTczMiAtMC43MTYsLTEuOTQ3NyAtMS4wNzM1LC0yLjkyMTEgbCAtMS4zODIxLDAuNTA2OCBjIDAuMzU3NCwwLjk3MzQgMC43MTU3LDEuOTQ4IDEuMDczNCwyLjkyMTEgbCAxLjM4MjIsLTAuNTA2OCB6IG0gLTEuMDczNSwtMi45MjExIC0wLjE3MjksLTAuMjY3NiAtMC41MTgxLDAuNTIxIDAuNjkxLC0wLjI1MzQgeiBNIDUyLjg2Myw5Ni42MzgyIGMgLTAuNzg0NiwtMC43NzY3IC0xLjU3MDEsLTEuNTU0OCAtMi4zNTUsLTIuMzMyMSBsIC0xLjAzNjMsMS4wNDIgYyAwLjc4NDksMC43NzczIDEuNTcwMywxLjU1NTQgMi4zNTUsMi4zMzIxIGwgMS4wMzYzLC0xLjA0MiB6IG0gLTIuMzU1LC0yLjMzMjEgYyAtMC42OTU5LC0wLjY4OTQgLTEuMzkyNywtMS4zNzk2IC0yLjA4ODksLTIuMDY4NyBsIC0xLjAzNjMsMS4wNDIgYyAwLjY5NjIsMC42ODkxIDEuMzkyOSwxLjM3OTMgMi4wODg5LDIuMDY4NyBsIDEuMDM2MywtMS4wNDIgeiBNIDQ4LjQxOTEsOTIuMjM3NCBDIDQ4LjEwMDgsOTEuOTIyNSA0Ny45OTI4LDkxLjgxODQgNDcuODk3LDkxLjcyNiBsIC0xLjAxOTMsMS4wNjUzIGMgMC4yMTI2LDAuMjA0NiAwLjQ0NzMsMC40MzA4IDAuNTA1MSwwLjQ4ODEgbCAxLjAzNjMsLTEuMDQyIHogTSA0Ny44OTcsOTEuNzI2IGMgLTAuOTQyOCwtMC45MDc2IC0xLjEyOTMsLTEuMDg3NiAtMC44NTc4LC0yLjcwOTMgbCAtMS40NTEzLC0wLjI0MjEgYyAtMC40MDAyLDIuMzg5MyAtMC4xMjEsMi42NTg2IDEuMjg5OCw0LjAxNjcgTCA0Ny44OTcsOTEuNzI2IHogbSAtMC44NTc4LC0yLjcwOTMgYyAwLjIxODksLTEuMzA1NyAwLjY1MzEsLTIuNjM4IDEuMzM0NiwtMy45MzQ4IGwgLTEuMzA3MywtMC42ODU0IGMgLTAuNzUyMSwxLjQzMDkgLTEuMjMzNCwyLjkxNCAtMS40Nzg2LDQuMzc4MSBsIDEuNDUxMywwLjI0MjEgeiBtIDEuMzM0NiwtMy45MzQ4IGMgMC42MzI3LC0xLjIwNDUgMS40NzQ5LC0yLjM3MDkgMi41NDk4LC0zLjQ0ODkgbCAtMS4wNDIxLC0xLjAzNjQgYyAtMS4xOTI4LDEuMTk2MyAtMi4xMjIsMi40ODA5IC0yLjgxNSwzLjc5OTkgbCAxLjMwNzMsMC42ODU0IHogbSAyLjU0OTgsLTMuNDQ4OSBjIDEuMzc1MywtMS4zNzg4IDMuNjIwNCwtMy4wODcyIDUuOTU3LC0zLjk3NSBsIC0wLjUxODIsLTEuMzc2NiBjIC0yLjU1MzUsMC45NzAzIC00Ljk5MjEsMi44MjMxIC02LjQ4MDksNC4zMTUyIGwgMS4wNDIxLDEuMDM2NCB6IG0gNS45NTcsLTMuOTc1IGMgMS42MjU0LC0wLjYxNzcgMy4yODE5LC0wLjgzMDMgNC42NjYxLC0wLjIxNzcgbCAwLjU5MywtMS4zNDc2IGMgLTEuNzg1NiwtMC43OTAzIC0zLjgyMiwtMC41NTQ1IC01Ljc3NzMsMC4xODg3IGwgMC41MTgyLDEuMzc2NiB6IG0gNC42NjYxLC0wLjIxNzcgMS40MjIxLDAuNjI5NSAtMC40MTQ0LC0xLjQ5OTIgLTAuNzExMiwwLjE5NTkgLTAuMjk2NSwwLjY3MzggeiBtIDEuMDA3NywtMC44Njk3IGMgLTAuMTg0OCwtMC42Njg3IC0wLjQwMTEsLTEuMzU0NCAtMC42NDk3LC0yLjA0MjEgbCAtMS4zODc4LDAuNTAxMiBjIDAuMjM1OCwwLjY1MjggMC40NDA3LDEuMzAxNCAwLjYxNTEsMS45MzI2IGwgMS40MjI0LC0wLjM5MTcgeiBNIDYxLjkwNDcsNzQuNTI4NSBDIDYxLjY3MjUsNzMuODg3IDYxLjQwOTgsNzMuMjM2OCA2MS4xMTQ0LDcyLjU4OSBsIC0xLjM0MTksMC42MTA2IGMgMC4yNzQxLDAuNjAxMyAwLjUyMjEsMS4yMTU4IDAuNzQ0NCwxLjgzMDEgbCAxLjM4NzgsLTAuNTAxMiB6IE0gNjEuMTE0NCw3Mi41ODkgYyAtMS4yNDUzLC0yLjczMDMgMC4wNTk4LC00LjE2OCAyLjA4MjYsLTUuMDkwNyBsIC0wLjYxMDYsLTEuMzQxOSBjIC0yLjc2NzcsMS4yNjIyIC00LjU0NTksMy4yNDUxIC0yLjgxMzksNy4wNDMyIGwgMS4zNDE5LC0wLjYxMDYgeiBtIDIuMDgyNiwtNS4wOTA3IGMgMS4yOTI2LC0wLjU4OTMgMi44NTY4LC0wLjk5NjcgNC4zMTA0LC0xLjM3NTQgbCAtMC4zNjg1LC0xLjQyMjQgYyAtMS41MjczLDAuMzk3NyAtMy4xNzA2LDAuODI2IC00LjU1MjUsMS40NTU5IGwgMC42MTA2LDEuMzQxOSB6IG0gNC4zMTA0LC0xLjM3NTQgYyAwLjM4NDEsLTAuMDk5NSAwLjc1NjMsLTAuMTk2NyAxLjAyMzYsLTAuMjY5IGwgLTAuMzc0MiwtMS40MjI0IGMgLTAuMzkzNywwLjEwNjYgLTAuNzA2MSwwLjE4ODIgLTEuMDE3OSwwLjI2OSBsIDAuMzY4NSwxLjQyMjQgeiBtIDEuMDIzNiwtMC4yNjkgYyAxLjc1MjksLTAuNDczOSA0Ljc4MzQsLTEuMzQzIDcuNTA3NSwtMS41MTU3IGwgLTAuMDkyNCwtMS40NzQgYyAtMi44NTQ1LDAuMTgwOSAtNS45Nzk3LDEuMDc4IC03Ljc4OTMsMS41NjczIGwgMC4zNzQyLDEuNDIyNCB6IG0gNy41MDc1LC0xLjUxNTcgYyAyLjQ2MTksLTAuMTU1OSA0LjY1NjgsMC4yNTg4IDUuMTY0NywyLjE0MzkgbCAxLjQyMjUsLTAuMzc0MiBDIDgxLjg3MTksNjMuMzEwNCA3OS4wNjIsNjIuNjY2NiA3NS45NDYxLDYyLjg2NDIgbCAwLjA5MjQsMS40NzQgeiBtIDUuMTY0NywyLjE0MzkgYyAwLjI2ODgsMC45OTg2IDAuNDI0NywxLjc2OTkgMC40ODk2LDIuNTM0NyBsIDEuNDc0LC0wLjEyMDcgQyA4My4wOTY1LDY4LjA2NTIgODIuOTIzOSw2Ny4yMTYgODIuNjI1Nyw2Ni4xMDc5IGwgLTEuNDIyNSwwLjM3NDIgeiBtIDAuNDg5NiwyLjUzNDcgYyAwLjA2NTIsMC43Njg1IDAuMDM4NSwxLjUxNDYgLTAuMDU2MSwyLjQ2MDggbCAxLjQ2MjYsMC4xMzgzIGMgMC4xMDY2LC0xLjA2NTMgMC4xMzc1LC0xLjg5MjQgMC4wNjc1LC0yLjcxOTggbCAtMS40NzQsMC4xMjA3IHogbSAtMC4wNTYxLDIuNDYwOCAwLjA1NzUsMC4zNjg1IDAuNjczOCwtMC4yOTk0IC0wLjczMTMsLTAuMDY5MSB6IG0gMC4wNTc1LDAuMzY4NSBjIDAuOTkxNiwyLjIxMzYgMS40MDAzLDIuODExNCAyLjEyMiwzLjg2ODQgbCAxLjIxNDksLTAuODI5NCBDIDg0LjM2MzksNzMuOTA4IDgzLjk4Niw3My4zNTQ3IDgzLjA0MTgsNzEuMjQ3NCBsIC0xLjM0NzYsMC41OTg3IHogbSAyLjEyMiwzLjg2ODQgYyAwLjA3MzcsMC4xMDggMC4xMzY3LDAuMTk5OSAwLjMyMjMsMC40NzU0IGwgMS4yMjA2LC0wLjgyMzIgYyAtMC4wNDY4LC0wLjA2OTcgLTAuMjAwNCwtMC4yOTQ1IC0wLjMyOCwtMC40ODE2IGwgLTEuMjE0OSwwLjgyOTQgeiBtIDAuMzIyMywwLjQ3NTQgYyAwLjU2MjcsMC44MzQ4IDAuODIxNSwxLjM5MjQgMC45MDQzLDEuOTY4OSBsIDEuNDU3LC0wLjIwMTggQyA4Ni4zODEzLDc3LjEzMTYgODYuMDU1LDc2LjM5OTQgODUuMzU5MSw3NS4zNjY3IGwgLTEuMjIwNiwwLjgyMzIgeiBtIDAuOTA0MywxLjk2ODkgYyAwLjA4NjQsMC42MDU1IC02ZS00LDEuMzI4MyAtMC4xMzE4LDIuNDMzIGwgMS40NjI2LDAuMTY3MyBjIDAuMTQ0LC0xLjIxMyAwLjI0MDEsLTIuMDA2MSAwLjEyNjIsLTIuODAyMSBsIC0xLjQ1NywwLjIwMTggeiBtIC0wLjEzMTgsMi40MzMgYyAtMC4wMzYsMC4zMDE5IC0wLjA2NTgsMC41NDA2IC0wLjA4NjUsMC42OTY1IGwgMS40NTcsMC4xODQyIGMgMC4wNDQyLC0wLjMzMTMgMC4wNzQ2LC0wLjU2NTIgMC4wOTIxLC0wLjcxMzQgTCA4NC45MTEsODAuNTkxOCB6IG0gLTAuMDg2NSwwLjY5NjUgYyAtMC4wMTY0LDAuMTI1IC0wLjA1MywwLjM3NjQgLTAuMTA0LDAuNzI2NSBsIDEuNDU3LDAuMjEzMiBjIDAuMDIyNywtMC4xNTY4IDAuMDU3LC0wLjQwMTQgMC4xMDQsLTAuNzU1NSBsIC0xLjQ1NywtMC4xODQyIHogbSAtMC4xMDQsMC43MjY1IC0wLjE0MzcsMC45ODMxIDAuOTgxNiwtMC4xNDggLTAuMTA5NCwtMC43Mjg1IC0wLjcyODUsLTAuMTA2NiB6IG0gMC44Mzc5LDAuODM1MSBjIDIuMDg0OSwtMC4zMTM1IDQuMTMwOSwtMC40Njg2IDYuMTY2MiwtMC40ODE5IGwgLTAuMDA1NywtMS40NzQgYyAtMi4xMDQxLDAuMDEzNiAtNC4yMjEsMC4xNzQzIC02LjM3OTMsMC40OTg5IGwgMC4yMTg4LDEuNDU3IHogbSA2LjE2NjIsLTAuNDgxOSBjIDIuMDQxNSwtMC4wMTMgNC4wNzIsMC4xMTU5IDYuMTE5NywwLjM2OTkgbCAwLjE3MjksLTEuNDYyNyBDIDk1LjkwNzEsODEuMDEzNiA5My44MTcxLDgwLjg4MDcgOTEuNzE4OSw4MC44OTQgbCAwLjAwNTcsMS40NzQgeiBtIDYuMTE5NywwLjM2OTkgMC40NTUsLTEuMzcwNSAtMC4zNjg1LDAuNjM5MiAtMC4wODY1LDAuNzMxMyB6IG0gMC40NTUsLTEuMzcwNSBDIDk3LjEwOTYsODAuNjc0MyA5NS45MjIxLDgwLjA2MzcgOTQuNDA3LDc5LjI4NTMgbCAtMC42NzM1LDEuMzEzIGMgMS40OTUzLDAuNzY4MiAyLjY2NzEsMS4zNzA5IDMuODI4OCwyLjA0NzUgbCAwLjczNywtMS4yNzg0IHogTSA5NC40MDcsNzkuMjg1MyBjIC0wLjExMDUsLTAuMDU2NyAtMC4yMjM5LC0wLjExNTEgLTAuMzM4MSwtMC4xNzM3IGwgLTAuNjczNiwxLjMxMyBjIDAuMTE0MywwLjA1ODYgMC4yMjc3LDAuMTE3IDAuMzM4MiwwLjE3MzcgbCAwLjY3MzUsLTEuMzEzIHogbSAtMC4zMzgxLC0wLjE3MzcgYyAtMS41NTcxLC0wLjgwMDUgLTEuNTcxMywtMi40ODEyIC0xLjAyMTQsLTQuMjQxNSBsIC0xLjQwNDgsLTAuNDM3NyBjIC0wLjc1MzUsMi40MTE3IC0wLjY1MzEsNC43NTU0IDEuNzUyNiw1Ljk5MjIgbCAwLjY3MzYsLTEuMzEzIHogbSAtMS4wMjE0LC00LjI0MTUgYyAwLjYyMzksLTEuOTk3OSAxLjk0ODgsLTQuMTAwMyAyLjc4MDUsLTUuMzgxOSBsIC0xLjIzMjUsLTAuODAwNSBjIC0wLjg3NjIsMS4zNTAyIC0yLjI3MzYsMy41NyAtMi45NTI4LDUuNzQ0NyBsIDEuNDA0OCwwLjQzNzcgeiBtIDIuNzgwNSwtNS4zODE5IGMgMS43NDA4LC0yLjY4MyAzLjM4MjYsLTQuOTQxOSA1LjI2NzksLTYuMDk3MyBMIDEwMC4zMyw2Mi4xMzU3IGMgLTIuMTMxOSwxLjMwNjUgLTMuODkxMSwzLjcxMDkgLTUuNzM0NSw2LjU1MiBsIDEuMjMyNSwwLjgwMDUgeiBtIDUuMjY3OSwtNi4wOTczIGMgMS43ODEzLC0xLjA5MTkgMy44NjQyLC0xLjE5MzEgNi42MjI5LDAuMjk5NiBsIDAuNjk2OCwtMS4zMDE2IGMgLTMuMjk2NywtMS43ODQyIC01Ljg0OTksLTEuNjIzNyAtOC4wODU2LC0wLjI1MzIgbCAwLjc2NTksMS4yNTUyIHogbSA2LjYyMjksMC4yOTk2IGMgMS4zMDM3LDAuNzA1NiAxLjc0MTMsMS40NzE4IDIuMzMwNiwyLjUwNDQgbCAxLjI4NDEsLTAuNzI1NiBjIC0wLjcxMiwtMS4yNDczIC0xLjI0MDcsLTIuMTcyNSAtMi45MTc5LC0zLjA4MDQgbCAtMC42OTY4LDEuMzAxNiB6IG0gMi4zMzA2LDIuNTA0NCBjIDAuMjM0NSwwLjQxMDggMC40OTE5LDAuODYwOSAwLjg2ODYsMS40MjM2IGwgMS4yMjA2LC0wLjgxNzUgYyAtMC4zMDE2LC0wLjQ1MDQgLTAuNTY1LC0wLjkxMTQgLTAuODA1MSwtMS4zMzE3IGwgLTEuMjg0MSwwLjcyNTYgeiBtIDAuODY4NiwxLjQyMzYgMC4yNTYyLDAuMjM4OSAwLjM1NDEsLTAuNjQ3NyAtMC42MTAzLDAuNDA4OCB6IG0gMC4yNTYyLDAuMjM4OSBjIDAuNDMwMywwLjIzNjIgMi4yNjg2LDEuNzU0NyA0LjA1NjQsMy4yMzIxIGwgMC45Mzg4LC0xLjEzNDQgYyAtMS44NDg3LC0xLjUyNzkgLTMuNzUwNSwtMy4wOTg4IC00LjI4NzEsLTMuMzkzMSBsIC0wLjcwODEsMS4yOTU0IHogbSA0LjA1NjQsMy4yMzIxIGMgMC45MjA0LDAuNzYwMyAxLjgyODQsMS41MTA2IDIuMjk5NSwxLjg5MSBsIDAuOTI2OSwtMS4xNTE0IGMgLTAuODYyMywtMC42OTY4IC0xLjU3MTgsLTEuMjgyNyAtMi4yODc2LC0xLjg3NCBsIC0wLjkzODgsMS4xMzQ0IHogbSAyLjI5OTUsMS44OTEgMC41NjQ2LDAuNDU2MSAwLjQ2NjEsLTAuNTU5NiAtMC41NjczLC0wLjQ3MjIgLTAuNDYzNCwwLjU3NTcgeiBtIDEuMDMwNywtMC4xMDM1IGMgMC4yOTM5LC0wLjM1MjYgMC43NTg4LC0wLjU3MDYgMS4zOTA2LC0wLjcyMTkgbCAtMC4zMzk2LC0xLjQzMzggYyAtMC45NDIyLDAuMjI1MyAtMS42NjUzLDAuNTg3MyAtMi4xODU1LDEuMjExMiBsIDEuMTM0NSwwLjk0NDUgeiBtIDEuMzkwNiwtMC43MjE5IGMgMC43MjU0LC0wLjE3MzUgMS42Nzg0LC0wLjI1ODYgMi44MzMsLTAuMzQxNiBsIC0wLjEwMzgsLTEuNDc0IGMgLTEuMjEwMSwwLjA4NzMgLTIuMjIwMywwLjE3ODggLTMuMDY4OCwwLjM4MTggbCAwLjMzOTYsMS40MzM4IHogbSAyLjgzMywtMC4zNDE2IGMgMC45MDU0LC0wLjA2NTUgMy43OTc4LC0wLjA2NDEgNS42NjU2LC0wLjA2MzUgbCAwLC0xLjQ3NCBjIC0xLjkwODMsLTllLTQgLTQuODYzMSwtMC4wMDIzIC01Ljc2OTQsMC4wNjM1IGwgMC4xMDM4LDEuNDc0IHogTSAxMjguNDUsNzEuNzUgYyAwLjU5MjQsM2UtNCAxLjA4NDUsM2UtNCAxLjM3OSwtMC4wMDE0IGwgLTAuMDA2LC0xLjQ3NCBjIC0wLjI5NCwwLjAwMTcgLTAuNzgzOCwwLjAwMTQgLTEuMzczNCwwLjAwMTQgbCAwLDEuNDc0IHogbSAxLjM3OSwtMC4wMDE0IGMgMS43NDA1LC0wLjAxMDggMy4xMjA0LDAuMDY2NiA0LjAzMTUsMC41ODI4IGwgMC43MjU2LC0xLjI4NDEgYyAtMS4yMDI0LC0wLjY4MTIgLTIuNzkyNywtMC43ODQ5IC00Ljc2MjcsLTAuNzcyNyBsIDAuMDA2LDEuNDc0IHogbSA0LjAzMTUsMC41ODI4IGMgMC44MzI1LDAuNDcxNyAxLjMzMjgsMS40MDA5IDEuNDU3MywzLjEzODUgbCAxLjQ3NCwtMC4xMDM4IGMgLTAuMTY1MywtMi4zMDYyIC0wLjkyNDQsLTMuNTkyOSAtMi4yMDU3LC00LjMxODggbCAtMC43MjU2LDEuMjg0MSB6IG0gMS40NTczLDMuMTM4NSBjIDAuMDYzNywwLjg5MjYgMC4wNzg4LDEuNDI1IC0wLjAyMTYsMS44ODEzIGwgMS40Mzk1LDAuMzE3IGMgMC4xNDIsLTAuNjQ1OCAwLjEyOTIsLTEuMjc3MyAwLjA1NjEsLTIuMzAyMSBsIC0xLjQ3NCwwLjEwMzggeiBtIC0wLjAyMTYsMS44ODEzIGMgLTAuMTAwMywwLjQ1NyAtMC4zMzY3LDAuOTMwNyAtMC43NzQ3LDEuNzA5MSBsIDEuMjg5OCwwLjcyIGMgMC41MDUxLC0wLjg5NzUgMC43ODI2LC0xLjQ2NyAwLjkyNDQsLTIuMTEyMSBsIC0xLjQzOTUsLTAuMzE3IHogbSAtMC43NzQ3LDEuNzA5MSAtMC4wOTIxLDAuMzQyNyAwLjczNywwLjAxNzMgLTAuNjQ0OSwtMC4zNiB6IG0gLTAuMDkyMSwwLjM0MjcgYyAtMC4wMjg0LDEuMDU3NiAtMC4wNTczLDIuMTE2IC0wLjA4NTEsMy4xNzM2IGwgMS40NzQxLDAuMDM0NiBjIDAuMDI3NywtMS4wNTc2IDAuMDU2NywtMi4xMTYxIDAuMDg1LC0zLjE3MzcgbCAtMS40NzQsLTAuMDM0NSB6IG0gLTAuMDg1MSwzLjE3MzYgYyAtMC4wMjgsMS4wNTc2IC0wLjA1NjksMi4xMTYxIC0wLjA4NDcsMy4xNzM0IGwgMS40NzQsMC4wMzQ2IGMgMC4wMjc4LC0xLjA1NzMgMC4wNTY3LC0yLjExNTggMC4wODQ4LC0zLjE3MzQgbCAtMS40NzQxLC0wLjAzNDYgeiBtIC0wLjA4NDcsMy4xNzM0IGMgLTAuMDMwNiwxLjEzNTYgLTAuMTUzNCwyLjA0NjkgLTAuMzc3OSwyLjkzMyBsIDEuNDI4MSwwLjM1NzIgYyAwLjI1MjYsLTAuOTk2NCAwLjM5MDEsLTIuMDA4NiAwLjQyMzgsLTMuMjU1NiBsIC0xLjQ3NCwtMC4wMzQ2IHogbSAtMC4zNzc5LDIuOTMzIGMgLTAuMjI2NSwwLjg5MjcgLTAuNTYzOCwxLjc4NTYgLTEuMDE5MywyLjg3MDQgbCAxLjM1ODksMC41NzAzIGMgMC40NzkxLC0xLjE0MDkgMC44Mzc0LC0yLjA5MzEgMS4wODg1LC0zLjA4MzUgbCAtMS40MjgxLC0wLjM1NzIgeiBtIC0xLjAxOTMsMi44NzA0IGMgLTAuMzIyNiwwLjc2NyAtMC41OTksMS41MTIzIC0wLjg2OTcsMi4yNDI4IGwgMS4zODIyLDAuNTA2OCBjIDAuMjU4LC0wLjY5NjIgMC41MjEzLC0xLjQwNjYgMC44NDY0LC0yLjE3OTMgbCAtMS4zNTg5LC0wLjU3MDMgeiBtIDAuNTEyNSwyLjc1MjQgMCwtMC4wMDI4IC0wLjY5MTEsLTAuMjUzNCAwLjY5MTEsMC4yNTYyIHogbSAtMS4zODIyLC0wLjUxMjUgYyAtMC40MjEyLDEuMTM2MSAtMC44MywyLjIzODMgLTEuNDI5OCwzLjQyMjYgbCAxLjMxODcsMC42NjIxIGMgMC42Mjk2LC0xLjI0MjkgMS4wNTUxLC0yLjM4OTggMS40OTMzLC0zLjU3MjIgbCAtMS4zODIyLC0wLjUxMjUgeiBtIC0xLjQyOTgsMy40MjI2IC0wLjA2NjMsMC40NTc4IDAuNzI1NywtMC4xMjY3IC0wLjY1OTQsLTAuMzMxMSB6IG0gLTAuMDY2MywwLjQ1NzggYyAwLjA3MjYsMC40MTEgMC4xMzM1LDAuNzkyNSAwLjE3OTcsMS4xMzgxIGwgMS40NTcsLTAuMTg0MyBjIC0wLjA2MDEsLTAuNDQ5OCAtMC4xMjIyLC0wLjg1MDEgLTAuMTg1NCwtMS4yMDcyIGwgLTEuNDUxMywwLjI1MzQgeiBtIDAuMTc5NywxLjEzODEgYyAwLjA0MTcsMC4zMTM4IDAuMDg0MiwwLjcwNjcgMC4xMjY3LDEuMTg2MyBsIDEuNDc0LC0wLjEyMDggYyAtMC4wMzA5LC0wLjM0ODYgLTAuMDc5NiwtMC43NjgyIC0wLjE0MzcsLTEuMjQ5OCBsIC0xLjQ1NywwLjE4NDMgeiBtIDAuMTI2NywxLjE4NjMgMC4xMzcyLDEuNTQxMiAxLjEwOTUsLTEuMDY5IC0wLjUwOTcsLTAuNTMyNiAtMC43MzcsMC4wNjA0IHogbSAxLjI0NjcsMC40NzIyIGMgMC43MjE3LC0wLjY5NSAxLjQ0NCwtMS4zOTEyIDIuMTY1NywtMi4wODY2IGwgLTEuMDE5NCwtMS4wNjUyIGMgLTAuNzIxNywwLjY5NTMgLTEuNDQzOSwxLjM5MTUgLTIuMTY1NiwyLjA4NjYgbCAxLjAxOTMsMS4wNjUyIHogbSAyLjE2NTcsLTIuMDg2NiAxLjYxOTEsLTEuNTYwMSAtMS4wMTkzLC0xLjA2NTMgLTEuNjE5MiwxLjU2MDIgMS4wMTk0LDEuMDY1MiB6IG0gMS42MTkxLC0xLjU2MDEgYyAxLjE2ODcsLTEuMTI2IDIuMjM2MywtMi4xNDkgMy40MjEyLC0yLjg0OCBsIC0wLjc0ODQsLTEuMjcyOCBjIC0xLjMyNjYsMC43ODI3IC0yLjQ1NjIsMS44NjQ3IC0zLjY5MjEsMy4wNTU1IGwgMS4wMTkzLDEuMDY1MyB6IG0gMy40MjEyLC0yLjg0OCBjIDEuMTM5NSwtMC42NzI0IDIuNDI0NywtMS4wNjIyIDQuMDk0MywtMC45ODMzIGwgMC4wNjkyLC0xLjQ3NDEgYyAtMS45OTczLC0wLjA5NDQgLTMuNTQwMiwwLjM3NTMgLTQuOTExOSwxLjE4NDYgbCAwLjc0ODQsMS4yNzI4IHogbSA0LjA5NDMsLTAuOTgzMyBjIDEuODAxNywwLjA4NDcgMy43NDc3LDAuODU4IDUuMzY1NCwyLjA1MTQgbCAwLjg3NTQsLTEuMTg2IGMgLTEuODQyNSwtMS4zNTkyIC00LjA3OTksLTIuMjQwOCAtNi4xNzE2LC0yLjMzOTUgbCAtMC4wNjkyLDEuNDc0MSB6IG0gNS4zNjU0LDIuMDUxNCBjIDEuNTQzOCwxLjEzODcgMi43NzQ2LDIuNjQ5NSAzLjI3NDYsNC4yOTM2IGwgMS40MTExLC0wLjQyNjMgYyAtMC41OTczLC0xLjk2MzMgLTIuMDI3OSwtMy43MzgzIC0zLjgxMDMsLTUuMDUzMyBsIC0wLjg3NTQsMS4xODYgeiBtIDMuMjc0Niw0LjI5MzYgYyAwLjE3MjQsMC41Njc1IDAuMzQ1LDEuMTM1NiAwLjUxNzEsMS43MDI4IGwgMS40MTEsLTAuNDI2MyBjIC0wLjE3MiwtMC41NjcyIC0wLjM0NDcsLTEuMTM1MyAtMC41MTcsLTEuNzAyOCBsIC0xLjQxMTEsMC40MjYzIHogbSAwLjUxNzEsMS43MDI4IGMgMC4yMDAxLDAuNjYwNSAwLjQwMTMsMS4zMjE4IDAuNjAxOCwxLjk4MiBsIDEuNDExLC0wLjQyNjQgYyAtMC4yMDA0LC0wLjY2MDEgLTAuNDAxNiwtMS4zMjE1IC0wLjYwMTgsLTEuOTgxOSBsIC0xLjQxMSwwLjQyNjMgeiBtIDAuNjAxOCwxLjk4MiAwLjE5MjEsMC42MzIxIDAuNjQ4NiwtMC4xMjI3IC0wLjEzNTIsLTAuNzIyNiAtMC43MDU1LDAuMjEzMiB6IG0gMC44NDA3LDAuNTA5NCBjIDIuOTg0NiwtMC41NjQxIDYuMjM0OCwtMC43NjExIDkuMzU4MywtMC40MzM3IGwgMC4xNDQsLTEuNDYyNyBjIC0zLjI2NTgsLTAuMzQyNCAtNi42NTk0LC0wLjEzNjkgLTkuNzcyNywwLjQ1MTMgbCAwLjI3MDQsMS40NDUxIHogbSA5LjM1ODMsLTAuNDMzNyBjIDIuNzQ0MiwwLjI4NzcgNS4zOTA5LDAuOTg0NCA3LjY2NiwyLjE5ODIgbCAwLjY5MTEsLTEuMzAxNiBjIC0yLjQ0NDMsLTEuMzA0MyAtNS4yNzg3LC0yLjA1MTUgLTguMjEzMSwtMi4zNTkzIGwgLTAuMTQ0LDEuNDYyNyB6IG0gNy42NjYsMi4xOTgyIGMgMy4zMzI0LDEuNzc4NSA1LjgzNTEsNC40MDU0IDcuNjM3MSw3LjUyNjkgbCAxLjI3ODQsLTAuNzMxNCBjIC0xLjkzNjMsLTMuMzUzOSAtNC42MzA2LC02LjE3OTIgLTguMjI0NCwtOC4wOTcxIGwgLTAuNjkxMSwxLjMwMTYgeiBtIDcuNjM3MSw3LjUyNjkgMCwwLjAwMyAwLjYzOTIsLTAuMzY4NSAtMC42MzkyLDAuMzY1NyB6IG0gMCwwLjAwMyBjIDIuMDU5MSwzLjU2NjYgMy4yMTI1LDcuNzc0OSAzLjY1MTYsMTIuMTA5OSBsIDEuNDYyNywtMC4xMzgzIGMgLTAuNDYwNCwtNC41NDQ1IC0xLjY3MTksLTguOTYwNCAtMy44MzU5LC0xMi43MDg2IGwgLTEuMjc4NCwwLjczNyB6IG0gMy42NTE2LDEyLjEwOTkgYyAwLjM1NzcsMy41MzI4IDAuMTU5Niw4LjM1MDkgLTAuNTgsMTMuMDEwNyBsIDEuNDUxNCwwLjIzMDIgYyAwLjc1ODUsLTQuNzc4OSAwLjk2MDQsLTkuNzM0MiAwLjU5MTMsLTEzLjM3OTIgbCAtMS40NjI3LDAuMTM4MyB6IG0gLTAuNTgsMTMuMDEwNyBjIC0wLjY1MjIsNC4xMTAzIC0xLjcyNTEsOC4wODUzIC0zLjIwNTcsMTAuOTE5MSBsIDEuMzA3NCwwLjY3OTcgYyAxLjU1MzcsLTIuOTczOCAyLjY3MzksLTcuMTA5IDMuMzQ5NywtMTEuMzY4NiBsIC0xLjQ1MTQsLTAuMjMwMiB6IG0gLTMuMjA1NywxMC45MTkxIGMgLTAuMTE1OSwwLjIyMjIgLTAuMzA4NiwwLjQ2NDYgLTAuNTU2MSwwLjcwODkgbCAxLjAzMDcsMS4wNTQgYyAwLjM1NTQsLTAuMzUxMyAwLjY0MzQsLTAuNzIgMC44MzI4LC0xLjA4MzIgbCAtMS4zMDc0LC0wLjY3OTcgeiBtIC0wLjU1NjEsMC43MDg5IGMgLTAuNjMxOSwwLjYyMzQgLTEuNTcwNywxLjIxMzggLTIuNTQzLDEuNTQ4MyBsIDAuNDc3OSwxLjM5MzUgYyAxLjE4MSwtMC40MDYyIDIuMzIzOSwtMS4xMjYyIDMuMDk1OCwtMS44ODc4IGwgLTEuMDMwNywtMS4wNTQgeiBtIC0yLjU0MywxLjU0ODMgYyAtMC45MDIsMC4zMTA0IC0xLjgxMSwwLjM5NiAtMi40NjAyLDAuMDU2NyBsIC0wLjY3OTcsMS4zMDczIGMgMS4wNDc0LDAuNTQ3NCAyLjM2NjYsMC40NTk4IDMuNjE3OCwwLjAyOTUgbCAtMC40Nzc5LC0xLjM5MzUgeiBtIC0yLjQ2MDIsMC4wNTY3IGMgLTAuMTM2LC0wLjA3MDkgLTAuMjYzLC0wLjE2MzMgLTAuMzc1OCwtMC4yNzc4IGwgLTEuMDU0LDEuMDMwNyBjIDAuMjI1NywwLjIyODcgMC40NzgyLDAuNDEyNyAwLjc1MDEsMC41NTQ0IGwgMC42Nzk3LC0xLjMwNzMgeiBtIC0wLjM3NTgsLTAuMjc3OCBjIC0wLjYwMjcsLTAuNjEwOSAtMS4xMzE2LC0xLjM4MzMgLTEuNjYxNywtMi4xNTc3IGwgLTEuMjE0OSwwLjgyOTQgYyAwLjU3MjYsMC44MzY4IDEuMTQ0MywxLjY3MTMgMS44MjI2LDIuMzU5IGwgMS4wNTQsLTEuMDMwNyB6IG0gLTEuNjYxNywtMi4xNTc3IGMgLTAuNjk3MywtMS4wMTg1IC0xLjM5NzgsLTIuMDQxNSAtMi4zMDQ2LC0yLjgxNjIgbCAtMC45NTU4LDEuMTIzIGMgMC43NjY4LDAuNjU1MSAxLjQwNzcsMS41OTExIDIuMDQ1NSwyLjUyMjYgbCAxLjIxNDksLTAuODI5NCB6IG0gLTIuMzA0NiwtMi44MTYyIGMgLTEuMTEsLTAuOTQ4NSAtMi4zOTY5LC0xLjQ2NDcgLTMuNTkyLC0xLjk0NCBsIC0wLjU0NzEsMS4zNzAyIGMgMS4wODY4LDAuNDM1NyAyLjI1NjksMC45MDU0IDMuMTgzMywxLjY5NjggbCAwLjk1NTgsLTEuMTIzIHogbSAtMy41OTIsLTEuOTQ0IGMgLTAuMjA4NCwtMC4wODM0IC0wLjQxMjgsLTAuMTY1NiAtMC41NDI2LC0wLjIxODkgbCAtMC41NTg0LDEuMzY0NiBjIDAuMjI5LDAuMDk0MSAwLjM5MiwwLjE1OTYgMC41NTM5LDAuMjI0NSBsIDAuNTQ3MSwtMS4zNzAyIHogbSAtMC41NDI2LC0wLjIxODkgLTAuNzAzOCwtMC4yOSAtMC4yNjY1LDAuNzE4OSAwLjY5MTEsMC4yNTM0IDAuMjc5MiwtMC42ODIzIHogbSAtMC45NzAzLDAuNDI4OSBjIC0wLjQ3NjUsMS4yODY5IC0xLjA2MTMsMi40MzY0IC0xLjczODIsMy41MTcgbCAxLjI0OTUsMC43ODI5IGMgMC43MjQzLC0xLjE1NiAxLjM1MywtMi4zOTQ0IDEuODcwOSwtMy43OTMxIGwgLTEuMzgyMiwtMC41MDY4IHogbSAtMS43MzgyLDMuNTE3IGMgLTAuNjg0LDEuMDkyMSAtMS40NTk1LDIuMTA5NSAtMi4zMTExLDMuMTI0MyBsIDEuMTI4OCwwLjk0NDUgYyAwLjg5ODYsLTEuMDcwOSAxLjcxNDksLTIuMTQxNiAyLjQzMTgsLTMuMjg1OSBsIC0xLjI0OTUsLTAuNzgyOSB6IG0gLTIuMzExMSwzLjEyNDMgYyAtMC42NTc5LDAuNzgzNSAtMS4yOTYzLDEuMzcwMyAtMS45ODU2LDEuODk1MiBsIDAuODkyMywxLjE2OSBjIDAuNzczMywtMC41ODkgMS40ODc5LC0xLjI0NTUgMi4yMjIxLC0yLjExOTcgbCAtMS4xMjg4LC0wLjk0NDUgeiBtIC0xLjk4NTYsMS44OTUyIGMgLTAuNjg4LDAuNTI0MiAtMS40Njk4LDEuMDE1NCAtMi4zODIsMS41ODYzIGwgMC43ODI5LDEuMjQ5NSBjIDAuOTIzNiwtMC41NzgyIDEuNzE2NCwtMS4wNzYzIDIuNDkxNCwtMS42NjY4IGwgLTAuODkyMywtMS4xNjkgeiBtIC0yLjM4MiwxLjU4NjMgYyAtMi41Njk5LDEuNjA5MiAtNC43MjM5LDMuNDk4OCAtNi45MjE0LDUuNDI2NyBsIDAuOTY3MiwxLjExMTEgYyAyLjE1MTIsLTEuODg3MyA0LjI1OTksLTMuNzM2OSA2LjczNzEsLTUuMjg4MyBsIC0wLjc4MjksLTEuMjQ5NSB6IG0gLTYuOTIxNCw1LjQyNjcgYyAtMC45MjUyLDAuODExMiAtMS44NTg2LDEuNjMwMiAtMi45MDIxLDIuNDkwNSBsIDAuOTM4OSwxLjE0MDEgYyAwLjk2NTcsLTAuNzk2MyAxLjk1MjgsLTEuNjYyIDIuOTMwNCwtMi41MTk1IGwgLTAuOTY3MiwtMS4xMTExIHogbSAtMi45MDIxLDIuNDkwNSBjIC00Ljg2NzYsNC4wMTM1IC05LjM3NTYsNS45NTgxIC0xNC4xNjQxLDYuMjU5NyBsIDAuMDkyNCwxLjQ3NCBjIDUuMTEwMywtMC4zMjE3IDkuODg4NCwtMi4zNzAzIDE1LjAxMDYsLTYuNTkzNiBsIC0wLjkzODksLTEuMTQwMSB6IG0gLTE0LjE2NDEsNi4yNTk3IGMgLTQuODI0LDAuMzAzNiAtOS45Nzg4LC0xLjA0NzQgLTE2LjA5ODgsLTMuNjIzNSBsIC0wLjU3MDQsMS4zNTg5IGMgNi4zMjcsMi42NjMyIDExLjY4NjcsNC4wNTc4IDE2Ljc2MTYsMy43Mzg2IGwgLTAuMDkyNCwtMS40NzQgeiBNIDExNC45NjczLDE2NC44NyBjIC0yLjg4NDMsLTEuMjEzOCAtNS4wMTg4LC0yLjY0MTkgLTYuODcwOSwtNC4zNTQ2IGwgLTAuOTk2MSwxLjA4MjggYyAxLjk3NDksMS44MjY0IDQuMjQyOSwzLjM0NTUgNy4yOTY2LDQuNjMwNyBsIDAuNTcwNCwtMS4zNTg5IHogbSAtNi44NzA5LC00LjM1NDYgYyAtMS44NjYxLC0xLjcyNTcgLTMuNDcwNSwtMy43NjQ0IC01LjI2OTYsLTYuMTcxMyBsIC0xLjE4MDQsMC44ODEgYyAxLjg0MjgsMi40NjUzIDMuNDkzMiw0LjU1OTggNS40NTM5LDYuMzczMSBsIDAuOTk2MSwtMS4wODI4IHogbSAtNS4yNjk2LC02LjE3MTMgLTAuMjA4MSwtMC4yNzg2IC0wLjM0NDcsLTAuMDE3OSAtMC4wMzc0LDAuNzM3IDAuNTkwMiwtMC40NDA1IHogbSAtMC41NTI4LC0wLjI5NjUgYyAtMS4wMjUsLTAuMDUzMyAtMS44ODMzLC0wLjE3NzIgLTIuNzM2OCwtMC41MTg1IGwgLTAuNTQ3MSwxLjM3MDMgYyAxLjAzMzUsMC40MTMzIDIuMDMyNywwLjU2MTMgMy4yMDkxLDAuNjIyMiBsIDAuMDc0OCwtMS40NzQgeiBtIC0yLjczNjgsLTAuNTE4NSBjIC0wLjg2NjYsLTAuMzQ2MyAtMS43NTk4LC0wLjkyNiAtMi44NTQsLTEuODkxOCBsIC0wLjk3MzQsMS4xMDU1IGMgMS4yMzE3LDEuMDg3MSAyLjI1OTUsMS43NDg0IDMuMjgwMywyLjE1NjYgbCAwLjU0NzEsLTEuMzcwMyB6IG0gLTIuODU0LC0xLjg5MTggYyAtMC44NDI3LC0wLjc0MzUgLTEuNjYzOSwtMS41MDUyIC0yLjQ3MDEsLTIuMjg1IGwgLTEuMDI1LDEuMDU5NiBjIDAuODA5LDAuNzgyNiAxLjY0NywxLjU1OTMgMi41MjE3LDIuMzMwOSBsIDAuOTczNCwtMS4xMDU1IHogbSAtMi40NzAxLC0yLjI4NSAtMC4wMDI4LC0wLjAwMyAtMC41MDk3LDAuNTMyNiAwLjUxMjUsLTAuNTI5OCB6IG0gLTAuMDAyOCwtMC4wMDMgYyAtMC43OTg1LC0wLjc3MjIgLTEuNTc4MywtMS41NTkxIC0yLjM0NTQsLTIuMzU5OSBsIC0xLjA2NTIsMS4wMTk0IGMgMC43Nzk4LDAuODE0MSAxLjU3NDYsMS42MTYgMi4zOTEzLDIuNDA1NyBsIDEuMDE5MywtMS4wNjUyIHogbSAtMi4zNDU0LC0yLjM1OTkgLTAuNDE3NSwtMC4yMTYgLTAuMTE1MSwwLjcyNTcgMC41MzI2LC0wLjUwOTcgeiBtIC0wLjQxNzUsLTAuMjE2IEMgODUuNjg2LDE0NS44NTUzIDgxLjAxNywxNDQuODQ3NiA3Ni44NDcsMTQzLjIzMjQgbCAtMC41Mjk2LDEuMzc2NSBjIDQuMjYzNCwxLjY1MTIgOS4wMjYxLDIuNjc5OSAxNC44OTk4LDMuNjE1OSBsIDAuMjMwMiwtMS40NTE0IHogbSAtMTQuNjAwNCwtMy41NDEgYyAtNC4xMzQxLC0xLjYwMTMgLTcuNzgyNiwtMy44MDg3IC0xMS41MzUxLC03LjEzNTQgbCAtMC45NzM0LDEuMTA1NSBjIDMuODkyLDMuNDUwNiA3LjY4MDgsNS43NDE2IDExLjk3ODksNy40MDY0IGwgMC41Mjk2LC0xLjM3NjUgeiBNIDY1LjMxMTksMTM2LjA5NyBjIC0xLjUyMDUsLTEuMzQ3OSAtMi44MzE4LC0yLjc2NjYgLTMuOTc1NiwtNC4yNjQ0IGwgLTEuMTY5LDAuODkyMyBjIDEuMjA1LDEuNTc4MyAyLjU4MSwzLjA2OCA0LjE3MTIsNC40Nzc2IGwgMC45NzM0LC0xLjEwNTUgeiBtIC0zLjk3NTYsLTQuMjY0NCBjIC0xLjE0NDMsLTEuNDk4NCAtMi4xMjc2LC0zLjA4NSAtMi45OTExLC00Ljc2NzEgbCAtMS4zMTMsMC42Njc5IGMgMC45LDEuNzUzMiAxLjkzMDQsMy40MTM3IDMuMTM1MSw0Ljk5MTUgbCAxLjE2OSwtMC44OTIzIHogbSAtMi45OTExLC00Ljc2NzEgLTAuMTA5NCwtMC4xNTg0IC0wLjU0NzEsMC40OTI0IDAuNjU2NSwtMC4zMzQgeiBtIC0wLjEwOTQsLTAuMTU4NCBjIC0wLjgzODIsLTAuOTI2MSAtMS42NzQ3LC0xLjg2NDkgLTIuNTcxOSwtMi42NzI1IGwgLTAuOTg0NywxLjA5OTggYyAwLjg2NjIsMC43ODAxIDEuNjYzNCwxLjY3NDUgMi40NjI0LDIuNTU3NCBsIDEuMDk0MiwtMC45ODQ3IHogbSAtMi41NzE5LC0yLjY3MjUgYyAtMC45NDA1LC0wLjg0NjcgLTEuOTYwMSwtMS41NjY3IC0zLjEzODUsLTIuMDIwNiBsIC0wLjUyOTUsMS4zNzY2IGMgMC45ODMzLDAuMzc4NyAxLjg2MDEsMS4wMDI4IDIuNjgzMywxLjc0MzggbCAwLjk4NDcsLTEuMDk5OCB6IG0gLTMuMTM4NSwtMi4wMjA2IC0wLjAwMjgsMCAtMC4yNjE5LDAuNjg4MyAwLjI2NDcsLTAuNjg4MyB6IG0gLTAuMDAyOCwwIGMgLTAuOTQ1NywtMC4zNjM0IC0xLjQwOCwtMC41NDU2IC0xLjkzMTgsLTAuMzIzNyBsIDAuNTcwMywxLjM1OSBjIDAuMDIzOCwtMC4wMSAwLjI2MTQsMC4xMTk5IDAuODM3NiwwLjM0MTMgbCAwLjUyMzksLTEuMzc2NiB6IG0gLTEuOTMxOCwtMC4zMjM3IC0wLjAwMjksMC4wMDMgMC4yODgsMC42NzY2IC0wLjI4NTEsLTAuNjc5NSB6IG0gLTAuMDAyOSwwLjAwMyBjIC0wLjU1MjQsMC4yMzQ0IC0wLjcwNjYsMC42ODgyIC0xLjA0ODUsMS42MDA3IGwgMS4zODIyLDAuNTEyNSBjIDAuMTk0MSwtMC41MTg3IDAuMTkwMiwtMC43Mzc5IDAuMjQyMywtMC43NiBsIC0wLjU3NiwtMS4zNTMyIHogbSAtMS4wNDg1LDEuNjAwNyAtMC4xOTIyLDAuNTEzMyAwLjQ0MjgsMC4zMzMxIDAuNDQwNSwtMC41OTAyIC0wLjY5MTEsLTAuMjU2MiB6IG0gMC4yNTA2LDAuODQ2NCBjIDEuMzU0NCwxLjAxNzcgMS40ODI4LDMuMDQ0NCAxLjYwNjEsNC45OTY0IGwgMS40NzQsLTAuMDkyNCBjIC0wLjE0NCwtMi4yODI1IC0wLjI5NDUsLTQuNjUzMSAtMi4xOTkxLC02LjA4NDMgbCAtMC44ODEsMS4xODAzIHogbSAxLjYwNjEsNC45OTY0IGMgMC4wMTU5LDAuMjU1NCAwLjAzMjMsMC41MDkzIDAuMDQ2MiwwLjcwMyBsIDEuNDc0LC0wLjEwMzggYyAtMC4wMTkzLC0wLjI2NjcgLTAuMDMyOSwtMC40Nzk5IC0wLjA0NjIsLTAuNjkxNiBsIC0xLjQ3NCwwLjA5MjQgeiBtIDAuMDQ2MiwwLjcwMyAwLjA1MjQsMC43MTkxIDAuNzE5MiwtMC4wMzQgLTAuMDM0NiwtMC43MzcgLTAuNzM3LDAuMDUxOSB6IG0gMC43NzE2LDAuNjg1MSBjIDEuMjE1OCwtMC4wNTc4IDEuNzY5NywtMC45MTU2IDIuMzY3MiwtMS44NDA4IGwgLTEuMjM4MiwtMC43OTQ5IGMgLTAuMzgxOCwwLjU5MTMgLTAuNzM2MSwxLjEzOTggLTEuMTk4MiwxLjE2MTcgbCAwLjA2OTIsMS40NzQgeiBtIDIuMzY3MiwtMS44NDA4IGMgMC4xNjY3LC0wLjI1ODMgMC4zMzg1LC0wLjUyNDIgMC41MjAyLC0wLjc1MzUgbCAtMS4xNTE1LC0wLjkxNTYgYyAtMC4yMjksMC4yODkyIC0wLjQyMDYsMC41ODU3IC0wLjYwNjksMC44NzQyIGwgMS4yMzgyLDAuNzk0OSB6IG0gMC42NjQyLC0xLjM2OTcgLTAuMzM3MSwtMS41MDgzIC0wLjk1ODQsMS4yMDg5IDAuNTc1NywwLjQ1NzggMC43MTk4LC0wLjE1ODQgeiBtIC0xLjQzOTUsMC4zMTY5IGMgMC4yNDg5LDEuMTEzMSAwLjQzOTcsMi41NzI3IDAuMTcwMSwzLjc2NzUgbCAxLjQzMzgsMC4zMjI2IGMgMC4zMjk0LC0xLjQ1OTMgMC4xMTgyLC0zLjE0MjggLTAuMTY0NCwtNC40MDcgbCAtMS40Mzk1LDAuMzE2OSB6IG0gMC4xNzAxLDMuNzY3NSBjIC0wLjE3MTIsMC43NTk3IC0wLjUzOCwxLjQxMjggLTEuMjIsMS43NjYgbCAwLjY3MzUsMS4zMTMgYyAxLjEyNzYsLTAuNTg0MiAxLjcxODksLTEuNTk2OCAxLjk4MDMsLTIuNzU2NCBsIC0xLjQzMzgsLTAuMzIyNiB6IG0gLTEuMjIsMS43NjYgLTAuNTgyOCwwLjMwMTkgMC4yMjg0LDAuNjEwOCAwLjY5MTEsLTAuMjU2MiAtMC4zMzY3LC0wLjY1NjUgeiBtIC0wLjM1NDQsMC45MTI3IGMgMC4xMDg5LDAuMjkxMiAwLjI2NzQsMC42OTU0IDAuNDMwMywxLjExMDcgbCAxLjM3MDMsLTAuNTM1OCBjIC0wLjEyNzUsLTAuMzI1MSAtMC4yNTU0LC0wLjY1MiAtMC40MTg0LC0xLjA4NzQgbCAtMS4zODIyLDAuNTEyNSB6IG0gMC40MzAzLDEuMTEwNyBjIDAuMjE3MiwwLjU1NDQgMC40NDAzLDEuMTIzIDAuNjc1LDEuNzkwOSBsIDEuMzkzNSwtMC40ODM2IGMgLTAuMjA5OCwtMC41OTY3IC0wLjQ1NzUsLTEuMjI4MyAtMC42OTgyLC0xLjg0MzEgbCAtMS4zNzAzLDAuNTM1OCB6IG0gMS4yNDc5LDIuMjc0OCAxLjIzNjQsMC4yMTQ1IC0wLjQxNTgsLTEuMTgyIC0wLjY5NjgsMC4yNDE4IC0wLjEyMzgsMC43MjU3IHogbSAwLjI0NzcsLTEuNDUxNCBjIC0xLjQyNzIsLTAuMjQ3NyAtNC41NzAzLC0yLjAxMTQgLTYuODUxOSwtNC4zNzk1IGwgLTEuMDY1MywxLjAxOTMgYyAyLjQ4OTEsMi41ODM1IDYuMDI0NSw0LjUyNjEgNy42Njk1LDQuODExNiBsIDAuMjQ3NywtMS40NTE0IHogbSAtNi44NTE5LC00LjM3OTUgYyAtMC44MjY5LC0wLjg1ODMgLTEuNTI3OSwtMS43ODUzIC0xLjk3MDYsLTIuNzMgbCAtMS4zMzU3LDAuNjE2MiBjIDAuNTIxOCwxLjExMzUgMS4zMTY3LDIuMTczNiAyLjI0MSwzLjEzMzEgbCAxLjA2NTMsLTEuMDE5MyB6IG0gLTEuOTcwNiwtMi43MyBjIC0wLjQyMjQsLTAuOTAwOSAtMC42MTUyLC0xLjgyMyAtMC40NTk4LC0yLjcxODIgbCAtMS40NTE0LC0wLjI0NzcgYyAtMC4yMTA2LDEuMjEzMiAwLjAzMjYsMi40MjQyIDAuNTc1NSwzLjU4MjEgbCAxLjMzNTcsLTAuNjE2MiB6IG0gLTAuNDU5OCwtMi43MTgyIGMgMC4xNDA5LC0wLjgxMzIgMC41Nzc3LC0xLjYzMDggMS40MDAzLC0yLjQyMzMgbCAtMS4wMTk0LC0xLjA2NTMgYyAtMS4wNjYzLDEuMDI3NiAtMS42Mzg3LDIuMTIzNyAtMS44MzIzLDMuMjQwOSBsIDEuNDUxNCwwLjI0NzcgeiBtIDEuNDAwMywtMi40MjMzIDAuMjA0NCwtMC4zNTY5IC0wLjcxNDEsLTAuMTc1OCAwLjUwOTcsMC41MzI3IHogbSAwLjIwNDQsLTAuMzU2OSBjIDAuMTg3MSwtMC43NjE0IDAuMzU0OSwtMS40MDUxIDAuNTM3NCwtMS45ODY4IGwgLTEuNDA0OCwtMC40Mzc3IGMgLTAuMTkwMiwwLjYwNjEgLTAuMzY1NCwxLjI3ODIgLTAuNTYwNywyLjA3MyBsIDEuNDI4MSwwLjM1MTUgeiBtIDAuNTM3NCwtMS45ODY4IGMgMC4xNzQ2LC0wLjU1NjUgMC4zNjUxLC0xLjA1NjggMC42MDQxLC0xLjU1NCBsIC0xLjMzLC0wLjYzMzIgYyAtMC4yNjY4LDAuNTU1IC0wLjQ4MDgsMS4xMTg1IC0wLjY3ODksMS43NDk1IGwgMS40MDQ4LDAuNDM3NyB6IG0gMC42MDQxLC0xLjU1NCBjIDAuNTMwMSwtMS4xMDI2IDEuMzY4OCwtMS43NzM5IDIuMzM1NCwtMi4wODQzIGwgLTAuNDQ5LC0xLjQwNDggYyAtMS4zMzYyLDAuNDI5MSAtMi40OTE5LDEuMzQ5IC0zLjIxNjQsMi44NTU5IGwgMS4zMywwLjYzMzIgeiBtIDIuMzM1NCwtMi4wODQzIGMgMS4xMjc3LC0wLjM2MiAyLjQzOTgsLTAuMjUxMSAzLjY2NTUsMC4yMjY4IGwgMC41MzU4LC0xLjM3MDMgYyAtMS41MzI0LC0wLjU5NzUgLTMuMTk1LC0wLjcyODUgLTQuNjUwMywtMC4yNjEzIGwgMC40NDksMS40MDQ4IHogbSAzLjY2NTUsMC4yMjY4IDEuMjc5OSwwLjQ5OTIgLTAuMjkyMywtMS4zMzk3IC0wLjcxOTcsMC4xNTU0IC0wLjI2NzksMC42ODUxIHogbSAwLjk4NzYsLTAuODQwNSBjIC0wLjM0NzIsLTEuNTkyOCAtMC41NTY3LC0zLjI2MjEgLTAuNjI3LC01LjE0NzQgbCAtMS40NzQsMC4wNTE2IGMgMC4wNzM0LDEuOTY4NiAwLjI5NDUsMy43MjI0IDAuNjYxNiw1LjQwNjUgbCAxLjQzOTQsLTAuMzEwNyB6IG0gLTAuNjI3LC01LjE0NzQgYyAtMC4wNywtMS44ODU5IDAuMDAxNCwtNC4wMDE3IDAuMjE0OSwtNi40ODcxIGwgLTEuNDc0MSwtMC4xMjA4IGMgLTAuMjE2NSwyLjUyMDYgLTAuMjg4LDQuNjkxOSAtMC4yMTQ4LDYuNjU5NSBsIDEuNDc0LC0wLjA1MTYgeiBtIDAuMjE0OSwtNi40ODcxIGMgMC4wNTQ0LC0wLjYzMjcgMC4xMTk2LC0xLjIxNTUgMC4xOTQ0LC0xLjc0ODQgbCAtMS40NTcsLTAuMTk1NiBjIC0wLjA5MjcsMC42NjEzIC0wLjE2NDEsMS4yNzA4IC0wLjIxMTUsMS44MjMyIGwgMS40NzQxLDAuMTIwOCB6IG0gMC4xOTQ0LC0xLjc0ODQgYyAwLjA4MjUsLTAuNTg3MyAwLjE4MzQsLTEuMTg4MyAwLjMwMDUsLTEuNzk5MiBsIC0xLjQ0NTEsLTAuMjc2NiBjIC0wLjExODUsMC42MTc2IC0wLjIyMzQsMS4yNDQ3IC0wLjMxMjQsMS44ODAyIGwgMS40NTcsMC4xOTU2IHogbSAwLjMwMDUsLTEuNzk5MiAtMC4wMzE1LC0wLjM5MTcgLTAuNjkxMSwwLjI1MzQiIGlkPSJwYXRoNjgiIHN0eWxlPSJmaWxsOiMwMDAwMDA7ZmlsbC1vcGFjaXR5OjE7ZmlsbC1ydWxlOm5vbnplcm87c3Ryb2tlOm5vbmUiLz48cGF0aCBkPSJtIDkxLjczNjgsMTQ2LjMyNTMgLTkuNzAzOSwtMS41NzcgLTguODU0OCwtMy44ODE0IC03LjUyMDYsLTQuNzMwOCAtNy4xNTY2LC04LjczMzUgLTQuMDQzMSwtNC4yODIgLTMuOTA5MywtMS40NDA5IC0xLjAzNCwyLjUyNzEgMS44MDc5LDIuNjA5NiAwLjQwNjIsMy42ODAyIDEuMjExLC0wLjA0ODggMS4zMjMyLC0xLjIwNjkgLTAuMzU2OSwzLjc0ODggLTEuNDY2NywwLjk4MzkgMC4wNDQ1LDEuNDI4NiAtMy40NzQ0LC0xLjk2NTUgLTMuMTQ2MiwtMy43MTIgLTAuNjU1OSwtMy4zMTc2IDEuMzQ1MywtMi42NTY3IDEuMjU0OSwtNC41MTMzIDIuNTUyMSwtMS4yMDg0IDIuNjg0NywwLjEzMTggMi41NDU1LDEuNDc5MSAtMS42OTgsLTguNjEyMiAxLjY5OCwtOS41ODI1IC0xLjg2OTIsLTQuNDI0NiAtNi4xMjIzLC02LjU5NjUgMS4wODg1LC0zLjk0MSAyLjkwMDIsLTQuNTY2OSA1LjQ2ODgsLTMuODQ4NiAyLjkwMDcsLTAuMzk2OSAzLjIyNSwtMC4xMDk0IC0yLjAxMiwtOC4yNjAxIDcuMzk5MywtMy4wMzI2IDkuMjE4OCwtMS4yMTI5IDMuMTUzNSwyLjA2MTkgMC4yNDI3LDUuNTc5NyAzLjUxNzgsNS44MjI0IDAuMjQyNiw0LjYwOTQgOC40OTA5LC0wLjYwNjYgNy44ODQzLDAuNzI3OSAtNy44ODQzLC00LjczMDcgMS4zMzQzLC01LjcwMSA0Ljk3MzEsLTcuNzYzIDQuODUyMSwtMi4wNjIyIDMuODgxNCwxLjU3NjkgMS41NzcsMy4xNTM4IDguMTI2OSw2LjE4NjEgMS41NzY5LC0xLjMzNDMgMTIuNzM2MywtMC40ODUgMi41NDczLDIuMDYxOSAwLjI0MjYsMy42MzkxIC0wLjg0OSwxLjU3NjcgLTAuNjA2Niw5LjgyNTEgLTQuMjQ1NCw4LjQ5MDkgMC43Mjc2LDMuNzYwNSAyLjU0NzUsLTEuMzM0MyA3LjE1NjYsLTYuNjcxNiAzLjUxNzUsLTAuMjQyNCAzLjg4MTUsMS41NzY5IDMuODgxOCwyLjkxMDkgMS45NDA2LDYuMzA3NyAxMS40MDIxLC0wLjcyNzcgNi45MTQsMi42Njg2IDUuNTc5Nyw1LjIxNTcgNC4wMDI4LDcuNTIwNiAwLjk3MDYsOC44NTQ2IC0wLjg0OTMsMTAuMzEwNSAtMi4xODMyLDkuMjE4NSAtMi4xODM2LDIuOTExMiAtMy4wMzIyLDAuOTcwNiAtNS4zMzczLC01LjgyMjQgLTQuODUxOCwtMS42OTgyIC00LjI0NTUsNy4wMzUzIC00LjI0NTQsMy44ODE1IC0yLjMwNDksMS40NTU2IC05LjIxODUsNy42NDE5IC03LjM5OTMsNC4wMDI4IC03LjM5OTMsMC42MDY2IC04LjYxMTksLTEuNDU1NiAtNy41MjA2LC0yLjc4OTkgLTUuMjE1OCwtNC4yNDU0IC00LjEyNDEsLTQuOTczNCAtNC4yNDU0LC0xLjIxMjkgLTcuMzk5MywtNy4wMzUzIHoiIGlkPSJwYXRoNzAiIHN0eWxlPSJmaWxsOiNmZmZmMDA7ZmlsbC1vcGFjaXR5OjE7ZmlsbC1ydWxlOmV2ZW5vZGQ7c3Ryb2tlOiMxZjE5MTc7c3Ryb2tlLXdpZHRoOjAuMjE2MDAwMDE7c3Ryb2tlLWxpbmVjYXA6YnV0dDtzdHJva2UtbGluZWpvaW46bWl0ZXI7c3Ryb2tlLW1pdGVybGltaXQ6MTA7c3Ryb2tlLW9wYWNpdHk6MTtzdHJva2UtZGFzaGFycmF5Om5vbmUiLz48cGF0aCBkPSJtIDYzLjU5MywxMjQuNDMzMyBjIC04LjMxMjMsLTkuNjk0OCAtNi40NjU4LC0yMS40NTMyIC00LjE2MjEsLTMyLjk3MjkgLTEuMjI5NCwzLjEwNjIgLTIuNDU5MSw2LjIxMjEgLTMuNjg4NCw5LjMxODMgLTAuNDUzLDIuODQ3NCAtMC45MDYsNS42OTQ4IC0xLjM1OSw4LjU0MjIgMC4xMjkzLDIuOTEyMSAwLjI1ODgsNS44MjQxIDAuMzg4NCw4LjczNjEgMS4xNjQ3LDIuNzgyNSAyLjMyOTUsNS41NjUgMy40OTQyLDguMzQ3OCAxLjc0NzMsMi41ODgzIDMuNDk0Niw1LjE3NjkgNS4yNDE5LDcuNzY1NSAyLjcxNzgsMi4yNjQ5IDUuNDM1Nyw0LjUyOTggOC4xNTM1LDYuNzk0NiAyLjk3NjcsMS4yMjk0IDUuOTUzNiwyLjQ1OTEgOC45MzAzLDMuNjg4NSAzLjQ5NDMsMC40NTMgNi45ODg4LDAuOTA1OSAxMC40ODM0LDEuMzU4OSAtMy4yMzU4LC0zLjY4ODQgLTYuNDcxMiwtNy4zNzcyIC05LjcwNywtMTEuMDY1NiAtNy43OTM4LC0yLjUyNzkgLTEyLjM5MDIsLTQuMjMwNCAtMTcuNzc1MiwtMTAuNTEzNCIgaWQ9InBhdGg3MiIgc3R5bGU9ImZpbGw6I2ZmZmZjYztmaWxsLW9wYWNpdHk6MTtmaWxsLXJ1bGU6ZXZlbm9kZDtzdHJva2U6bm9uZSIvPjxwYXRoIGQ9Im0gMTAyLjcyMzMsMTUzLjk3MiBjIC01Ljc3ODcsLTUuNjM3OCAtOC45MzUxLC05Ljg4OTggLTEyLjYxMjUsLTE2LjQ5MTEgLTIuNjMwNSwtNC43MjIzIC01LjU4MTEsLTkuMjcwMiAtOC4zNDY2LC0xMy45MjYzIC0xLjM5ODksLTIuMzU2OCAtMS41MzEsLTQuMzMzMSAtMS45NDkxLC03LjA1MDcgLTEuMzU4OSwxLjYxNzggLTIuNzE3OCwzLjIzNTUgLTQuMDc2OCw0Ljg1MzIgMC42NDcyLDEuOTQxNSAxLjI5NDMsMy44ODI5IDEuOTQxNSw1LjgyNDEgMi4yMDAyLDMuOTQ3NSA0LjQwMDUsNy44OTUxIDYuNjAwNSwxMS44NDIzIDQuNjU5Myw0LjU5NDcgOS4zMTg2LDkuMTg5MSAxMy45Nzc5LDEzLjc4MzcgMS40ODgyLDAuMzg4NCAyLjk3NjYsMC43NzY1IDQuNDY1MSwxLjE2NDgiIGlkPSJwYXRoNzQiIHN0eWxlPSJmaWxsOiNmZmZmY2M7ZmlsbC1vcGFjaXR5OjE7ZmlsbC1ydWxlOmV2ZW5vZGQ7c3Ryb2tlOm5vbmUiLz48cGF0aCBkPSJtIDEzMS4yNjExLDE2Ny45NDk2IGMgLTQuNjI4MSwtMS43MzUzIC0xMi4zMTQzLC0yLjMwNjggLTEyLjg0NzUsLTcuNjE4OSAtMC4zNzk4LC0zLjc3MjQgMC4yODQ0LC01LjY2NzkgMi41NTgzLC05LjY1OTEgLTUuNjE2Myw1LjgxMTYgLTcuMDA1Myw0LjkxMjIgLTE3Ljg2MDUsMy4xMDYyIDEuNTUzMSwyLjIwMDMgMy4xMDYyLDQuNDAwNSA0LjY1OTMsNi42MDA4IDIuNzE3OCwxLjY4MjMgNS40MzYsMy4zNjUgOC4xNTM4LDUuMDQ3NCAzLjQ5NDMsMC43NzY2IDYuOTg4OSwxLjU1MzEgMTAuNDgzNCwyLjMyOTcgMS42MTc3LDAuMDY0NyAzLjIzNTUsMC4xMjkzIDQuODUzMiwwLjE5MzkiIGlkPSJwYXRoNzYiIHN0eWxlPSJmaWxsOiNmZmZmY2M7ZmlsbC1vcGFjaXR5OjE7ZmlsbC1ydWxlOmV2ZW5vZGQ7c3Ryb2tlOm5vbmUiLz48cGF0aCBkPSJtIDE0NC4wMzIsOTYuMDk1NiBjIDEuNTQwOSwtMC45NTEgMS41MDc4LC0xLjY0MDEgMS4yNTAxLC0yLjI5MjEgMS4yMTU1LDAuNDg2NSAyLjQzMDcsMC45NzI2IDMuNjQ2MiwxLjQ1ODUgMC43ODc1LDEuMDU3MyAxLjU3NDcsMi4xMTQzIDIuMzYyMSwzLjE3MTkgMC41ODQ1LDEuNTA2NCAxLjE2OSwzLjAxMjcgMS43NTM1LDQuNTE5MyAtMC43NDY5LDAuNTYxNSAtMS40OTM1LDEuMTIzMSAtMi4yNDA1LDEuNjg0OSAtMy4yNjQxLC0wLjQxNjcgLTYuNTI4NCwtMC44MzM0IC05Ljc5MjUsLTEuMjUwMSAtMC4yNDMsLTAuNjU5OSAtMC40ODYyLC0xLjMxOTggLTAuNzI5NCwtMS45Nzk0IDAuMDY5NywtMC45Mzc3IDAuMTM5MiwtMS44NzUxIDAuMjA4NiwtMi44MTI4IDAuMzEyNCwtMC41NTU2IDAuNjI1MSwtMS4xMTE1IDAuOTM3NSwtMS42NjY4IDAuNDg2NCwtMC4yNDMyIDAuOTcyNSwtMC40ODY0IDEuNDU4NCwtMC43MjkzIDAuMzgyNCwtMC4wMzQ5IDAuNzY0MiwtMC4wNjk4IDEuMTQ2LC0wLjEwNDEiIGlkPSJwYXRoNzgiIHN0eWxlPSJmaWxsOiNjY2NjMDA7ZmlsbC1vcGFjaXR5OjE7ZmlsbC1ydWxlOmV2ZW5vZGQ7c3Ryb2tlOm5vbmUiLz48cGF0aCBkPSJtIDE0My4xMjA0LDExMi44NDI0IGMgLTQuOTA4NSwtMS40MTcgLTQuODcwMiwtMS44MDczIC02LjMxOTgsLTYuNjc3IDEuOTEzNiwzLjA3MDIgMy4zMzA0LDQuNjE5NiA2LjMxOTgsNi42NzciIGlkPSJwYXRoODAiIHN0eWxlPSJmaWxsOiNjY2NjMDA7ZmlsbC1vcGFjaXR5OjE7ZmlsbC1ydWxlOmV2ZW5vZGQ7c3Ryb2tlOm5vbmUiLz48cGF0aCBkPSJtIDE3NS43NTg4LDE0OS4yODQ5IGMgLTAuODcyNSwtMC40MDMxIC0xLjcyMiwtMC41OTcyIC0yLjI2NzQsLTEuMzk1NSAtMS4xNzQ0LC0xLjcxODEgLTIuMTgwNywtMy4xNjM0IC00LjEyMjcsLTQuMzY5NiAtMC45NzgsLTAuNjA3NyAtMS45ODk3LC0xLjAwMTIgLTMuMDI2OSwtMS4zMjQzIC0wLjg2MDMsLTAuMjY3NiAtMS4zNzY4LC0wLjAyODcgLTIuMTA5MiwtMC41NTQ4IDAuNDM0NSwtMC4wNzU5IDAuODY4OCwtMC4xNTE5IDEuMzAzMywtMC4yMjgyIDAuOTU3OSwwIDEuOTE1NywwIDIuODczNSwwIDEuMTgwOSwwLjcyOTQgMi4zNjE2LDEuNDU4NyAzLjU0MjIsMi4xODc4IDAuNjk0OCwwLjcyOTQgMS4zODksMS40NTg0IDIuMDgzNSwyLjE4NzggMC41NzQ1LDEuMTY1NiAxLjE0OTEsMi4zMzE1IDEuNzIzNywzLjQ5NjgiIGlkPSJwYXRoODIiIHN0eWxlPSJmaWxsOiNjY2NjMDA7ZmlsbC1vcGFjaXR5OjE7ZmlsbC1ydWxlOmV2ZW5vZGQ7c3Ryb2tlOm5vbmUiLz48cGF0aCBkPSJtIDk3LjU2ODgsMTM4LjM5MTcgYyAtMS45MzEzLC01LjI4NDEgLTMuNjE4NCwtOS44MTM5IC02LjU0NDEsLTE0LjU5ODIgMy43NDg4LDQuMDM4OCA2LjAyMTEsNy40NzE2IDguMTY4MSwxMi4wMzc5IDAuODMzOSwxLjc3MzYgMC45OTE1LDMuODU1MSAzLjMxNDUsMy4wODEgMC4xMDQzLC0xLjc3MTEgMC40Nzg4LC0zLjU0MTkgMC41ODMxLC01LjMxMyAxLjI1NTIsOC45OTc1IDQuNzk0NSwxMi43NTk5IDEzLjAyMjEsMTYuMjUxNiAtMi4zMjY3LC0wLjI3ODEgLTQuNjUzNCwtMC41NTU2IC02Ljk3OTgsLTAuODMzNCAtMi4xODc4LC0wLjQ4NjQgLTQuMzc1NSwtMC45NzIzIC02LjU2MzMsLTEuNDU4NCAtMS4wNzY2LC0xLjU2MjggLTIuMTUzMiwtMy4xMjU1IC0zLjIyOTUsLTQuNjg4IC0wLjU5MDUsLTEuNDkzMiAtMS4xODA3LC0yLjk4NjUgLTEuNzcxMSwtNC40Nzk1IiBpZD0icGF0aDg0IiBzdHlsZT0iZmlsbDojY2NjYzAwO2ZpbGwtb3BhY2l0eToxO2ZpbGwtcnVsZTpldmVub2RkO3N0cm9rZTpub25lIi8+PHBhdGggZD0ibSAxMTMuNTA4LDEzOC42IGMgMS43NzQyLC04LjM1MTEgNC4zMjg4LC0xNi4zNjU1IDUuNDM4NiwtMjQuODQ5MSAwLjcyMDgsLTUuNTEyNSAwLjc5OTYsLTguMTYwOSAtMS45NzQxLC0xMi45MTY2IC0zLjAzMTEsMC4xOTU5IC00LjkxMywtMC4xNDYgLTcuODQ0OSwtMS4xMDY2IC0xMS42NzIyLC0zLjgyNjMgLTE4LjM2NjIsLTkuNDUxOSAtMjYuMjMwOSwxLjg4MzMgMi41MTA2LC0xLjE4MjkgNS4wMjE1LC0yLjM2NjEgNy41MzE5LC0zLjU0OTYgMS43ODk4LDAuMzUxOCAzLjU3OTYsMC43MDM2IDUuMzY5NCwxLjA1NTQgMy4xNiwxLjg0MDUgNi4zMjAxLDMuNjgwOCA5LjQ4MDIsNS41MjEzIDIuNDY1NSwwLjQ4NjQgNC45MzExLDAuOTcyMyA3LjM5NjQsMS40NTg0IDAuNzk4OCwzLjMzMzYgMS41OTczLDYuNjY3NCAyLjM5NjEsMTAuMDAwOSAtMC41OTA0LDQuNDEwNSAtMS4xODA5LDguODIwNiAtMS43NzEsMTMuMjMwOCAtMC4wNjkyLDIuMDgzNCAtMC4xMzg3LDQuMTY2OSAtMC4yMDg0LDYuMjUwNiAwLjEzOTIsMS4wMDcyIDAuMjc4MSwyLjAxNDEgMC40MTY3LDMuMDIxMiIgaWQ9InBhdGg4NiIgc3R5bGU9ImZpbGw6I2NjY2MwMDtmaWxsLW9wYWNpdHk6MTtmaWxsLXJ1bGU6ZXZlbm9kZDtzdHJva2U6bm9uZSIvPjxwYXRoIGQ9Im0gMTMzLjYxNDQsODYuOTI3OCBjIC0wLjk4MDUsLTYuNzg0NyAyLjI1NzUsLTEwLjQzMjEgMC45MTcsLTEyLjMwNTUgLTAuMzc5OCwtMC41MzA2IC0wLjg5NDMsLTEuNDU2MSAtMS40Njg2LC0xLjcwOTggLTIuMDUxNywtMC45MDYzIC00Ljg3MjIsMC4xNjk1IC01LjA3NCwtMC4zNjEyIC0yLjI1NzIsMCAtNC41MTQyLDAgLTYuNzcxNywwIC0wLjkwMjUsMC4zODI0IC0xLjgwNTQsMC43NjQzIC0yLjcwODUsMS4xNDYxIDEuMzg5LDEuNjMyMiAyLjc3ODIsMy4yNjQ0IDQuMTY3Miw0Ljg5NjMgMS4zNTQxLDIuOTUxNyAyLjcwODUsNS45MDM3IDQuMDYyOSw4Ljg1NTEgMC44NjgzLDIuOTg2MyAxLjczNjUsNS45NzI2IDIuNjA0Miw4Ljk1OTIgMC40NTE2LDAgMC45MDMxLDAgMS4zNTQ0LDAgMC45NzI2LC0zLjE2MDEgMS45NDQ4LC02LjMyMDEgMi45MTcxLC05LjQ4MDIiIGlkPSJwYXRoODgiIHN0eWxlPSJmaWxsOiNjY2NjMDA7ZmlsbC1vcGFjaXR5OjE7ZmlsbC1ydWxlOmV2ZW5vZGQ7c3Ryb2tlOm5vbmUiLz48cGF0aCBkPSJtIDEyMi4yMzMsMTA2LjY1MTggYyAwLjU1LC0zLjA4MDcgMS41MDUyLC0zLjgxMjYgMi45NTQzLC02Ljc5NDYgLTAuOTY0NiwtNC44NjQ4IC0yLjUxNCwtMTAuNjUwMyAtNC4zNzg3LC0xNC45NDI2IC0wLjc4NjMsLTEuODEwMiAtMS40MjEsLTIuODA4MiAtMi44MDc0LC00LjIwNzEgLTIuMzQwNiwtMi4zNjM2IC00LjcwNjksLTQuNDIyNiAtNy4zNjE2LC02LjQ3MTIgLTEuOTEwNSwtMS40NzI5IC0zLjI0NDIsLTAuNzM0MiAtNS42MDE4LC0wLjQwMDMgLTEuMDAyNiwtMS44MTc2IC0xLjI3OTYsLTIuODI3MyAtMy4xMjQ5LC0zLjc1IC0yLjgzODEsLTEuNDE5IC01LjM3NzksMS42MzkgLTcuNjA1NCwzLjQzNzYgMS42MDgxLC0yLjUxMTggMy4yMTYyLC01LjAyMzUgNC44MjQsLTcuNTM1MyAxLjExMTUsLTEuMDQxNyAyLjIyMjcsLTIuMDgzNSAzLjMzMzksLTMuMTI1NSAwLjkzNzQsLTAuMTM4NiAxLjg3NTEsLTAuMjc3NSAyLjgxMjgsLTAuNDE2NyAxLjI1MDEsMC43NjQyIDIuNTAwMSwxLjUyODIgMy43NTAyLDIuMjkyMSAwLjY1OTksMS4yNTAxIDEuMzE5OCwyLjUwMDIgMS45Nzk0LDMuNzUwMiAxLjM4OSwxLjA0MTggMi43NzgzLDIuMDgzNSA0LjE2NywzLjEyNTUgMS43MDE5LDEuNDU4NCAzLjQwMzUsMi45MTY5IDUuMTA0OSw0LjM3NTMgMS4wNzY2LDEuNTI4MiAyLjE1MjksMy4wNTYgMy4yMjk1LDQuNTgzOSAwLjk3MiwxLjgwNTcgMS45NDQ2LDMuNjExNiAyLjkxNjgsNS40MTczIDEuMjUwMSwzLjc1MDIgMi41MDAyLDcuNTAwNyAzLjc1MDYsMTEuMjUxIDAuMTA0LDEuNDI0MSAwLjIwODMsMi44NDc3IDAuMzEyMyw0LjI3MTIgLTEuNTYyNywwLjY5NDggLTMuMTI1MiwxLjM4OTMgLTQuNjg3OSwyLjA4MzggLTEuMTQ2LDEuMDc2NiAtMi40MjE5LDEuOTc5MSAtMy41NjgsMy4wNTU0IiBpZD0icGF0aDkwIiBzdHlsZT0iZmlsbDojY2NjYzAwO2ZpbGwtb3BhY2l0eToxO2ZpbGwtcnVsZTpldmVub2RkO3N0cm9rZTpub25lIi8+PHBhdGggZD0ibSA4NC44NTk0LDg0Ljk0ODcgYyA1LjI1OCwwIDEwLjgxMDcsMC4yOTE2IDE1LjYyNjUsMi41MDAxIDEuMzYyOSwyLjA0NDYgMi43MDgsMy43MTQzIDQuMzc1Niw1LjUyMTMgLTEuNTE3NywtMi44NjY0IC0xLjk5MzYsLTQuNDg2NiAtMi4zOTYxLC03LjcwOTEgLTAuNTIxMSwtMC43NjM2IC0xLjA0MTgsLTEuNTI3OCAtMS41NjI4LC0yLjI5MTggLTMuOTU4OSwtMC4xMDQzIC03LjkxNzQsLTAuMjA4MyAtMTEuODc2MywtMC4zMTI2IC0xLjI4NDksMC4xMzkxIC0yLjU2OTksMC4yNzggLTMuODU0NiwwLjQxNjcgLTAuMTM4OCwwLjEzOTEgLTAuMjc3NywwLjI3OCAtMC40MTY2LDAuNDE2NyAwLjAzNDgsMC40ODY0IDAuMDY5NywwLjk3MjUgMC4xMDQzLDEuNDU4NyIgaWQ9InBhdGg5MiIgc3R5bGU9ImZpbGw6I2NjY2MwMDtmaWxsLW9wYWNpdHk6MTtmaWxsLXJ1bGU6ZXZlbm9kZDtzdHJva2U6bm9uZSIvPjxwYXRoIGQ9Im0gODQuMTMsODguNTk0OSBjIC0wLjEzNiwxLjIzMjUgLTAuMjcyMSwyLjQ2NTUgLTAuNDA4MiwzLjY5ODYgLTAuODk4MywtNS40MDcxIC0wLjY4MjMsLTkuMDMwNiAtMy4xNzA4LC0xMy44NzQyIC0xLjg1OSwtMi4xNTQgLTQuMTQ3NywtNC4xMTM5IC02Ljc2OTEsLTUuMTYyNyAwLjIyMTMsLTEuMzI4IDAuMjg3NCwtMi4xNTc3IDAuMTU5LC0zLjEzMTQgLTAuNDYxOCwtMy41MDIyIC03LjQ2NzksLTEuOTU1MSAtMTAuMzQ5NiwtMS44MTU2IDQuNjIzOSwtMS4xOTA2IDkuMjQ3OCwtMi4zODA4IDEzLjg3MTMsLTMuNTcxNCAxLjA0MTgsMC40MTY3IDIuMDgzNSwwLjgzMzQgMy4xMjU1LDEuMjUwMSAwLjM0NzMsMi4wMTQgMC42OTQ1LDQuMDI4MyAxLjA0MTgsNi4wNDIzIDAuOTcyMiwxLjgwNTcgMS45NDQ4LDMuNjExNiAyLjkxNjgsNS40MTcgMC4xNzM1LDEuMTExNSAwLjM0NzMsMi4yMjI3IDAuNTIxLDMuMzMzOCAtMC4zMTI2LDIuNjA0NSAtMC42MjUsNS4yMDkgLTAuOTM3Nyw3LjgxMzUiIGlkPSJwYXRoOTQiIHN0eWxlPSJmaWxsOiNjY2NjMDA7ZmlsbC1vcGFjaXR5OjE7ZmlsbC1ydWxlOmV2ZW5vZGQ7c3Ryb2tlOm5vbmUiLz48cGF0aCBkPSJtIDc2LjMxNjYsMTE5LjExODYgYyAtMC4xNDU0LC0yLjYyOTEgLTAuMzE1MiwtMy43MjUzIDAuODQ0MiwtNi4wNDc0IDEuNDc0LC0yLjk1MTUgMy4yODQyLC01LjcyNDMgNC44ODU4LC04LjY0MTQgMC4xNzM0LDEuOTQ0OCAwLjM0NjksMy44ODk0IDAuNTIwNyw1LjgzMzkgLTIuMDgzNSwyLjk1MTggLTQuMTY3LDUuOTAzNSAtNi4yNTA3LDguODU0OSIgaWQ9InBhdGg5NiIgc3R5bGU9ImZpbGw6I2NjY2MwMDtmaWxsLW9wYWNpdHk6MTtmaWxsLXJ1bGU6ZXZlbm9kZDtzdHJva2U6bm9uZSIvPjxwYXRoIGQ9Im0gNTQuOTMxMiw5OS4yNTggYyAtMC40NTEsLTAuOTU5OSAtMC45MDIsLTEuOTIgLTEuMzUzLC0yLjg3OTggMS4yNDEzLC00LjE4MDggMi4zNDQ1LC02LjgyOTIgNC43MDgxLC0xMC40ODE2IC0wLjQxMTYsLTEuNDggLTAuNzE5NywtMi4xMjc0IC0xLjY2NjgsLTMuMzMzNiAtMi4wODAxLDAuMzIwMSAtMy45MjcxLDAuNDEyNSAtNi4wMzQ3LDAuNDA2MiAyLjMyNywtMS44MDU2IDQuNjUzNywtMy42MTEzIDYuOTgwMSwtNS40MTczIDEuMTQ1NywwLjIwODQgMi4yOTE4LDAuNDE2NyAzLjQzNzgsMC42MjUxIDEuMTQ1OCwxLjE0NiAyLjI5MTgsMi4yOTE4IDMuNDM3OSwzLjQzNzggLTEuNjMyNSwyLjUzNTEgLTMuMjY0NCw1LjA3MDEgLTQuODk2Myw3LjYwNTEgLTEuNTM3OCwzLjM0NiAtMy4wNzU2LDYuNjkyMyAtNC42MTMxLDEwLjAzODEiIGlkPSJwYXRoOTgiIHN0eWxlPSJmaWxsOiNjY2NjMDA7ZmlsbC1vcGFjaXR5OjE7ZmlsbC1ydWxlOmV2ZW5vZGQ7c3Ryb2tlOm5vbmUiLz48cGF0aCBkPSJtIDE3NS43NzQxLDE1MC42NjgyIGMgMS40MTY4LC02LjM3NTQgMy4yNDQzLC0xMi4yNTc4IDMuMDc0OCwtMTguNzg3MiAtMC4yMDgxLC04LjAxMDQgLTEuNzY5NCwtMTguMTI4OSAtOS4xOTE0LC0yMi45NTk1IC04LjMxMTcsLTUuNDA5NiAtMTguMDY4NiwtMi44NTEgLTI3LjE4ODIsLTAuNTMzMiAzLjcxNTksLTEuNTI3OCA3LjQzMTYsLTMuMDU1NCAxMS4xNDcsLTQuNTgzNiAzLjQ3MjcsLTAuMTczNyA2Ljk0NTQsLTAuMzQ3MiAxMC40MTc4LC0wLjUyMSAyLjM2MTYsMC42OTQ4IDQuNzIyOCwxLjM4OTMgNy4wODQxLDIuMDgzNSAxLjg0MDUsMS41MjgxIDMuNjgxMSwzLjA1NiA1LjUyMTMsNC41ODM5IDEuMzg5LDIuOTE2OCAyLjc3OCw1LjgzNCA0LjE2NzIsOC43NTA4IDAuNTIwOCwzLjM2ODcgMS4wNDE4LDYuNzM3MSAxLjU2MjUsMTAuMTA1MiAtMC40MTY3LDMuMjk5MyAtMC44MzM0LDYuNTk4IC0xLjI1MDEsOS44OTY5IC0wLjc2MzksMy4yNjQ0IC0xLjUyODEsNi41Mjg4IC0yLjI5MTgsOS43OTI2IC0xLjAxNzYsMC43MjQgLTIuMDM1MywxLjQ0NzcgLTMuMDUzMiwyLjE3MTYiIGlkPSJwYXRoMTAwIiBzdHlsZT0iZmlsbDojY2NjYzAwO2ZpbGwtb3BhY2l0eToxO2ZpbGwtcnVsZTpldmVub2RkO3N0cm9rZTpub25lIi8+PHBhdGggZD0ibSA1MS43MzQzLDEzMS42NjczIGMgLTMuNzczNSwtMi40NTU5IC01LjI1NTUsLTMuNTM0MiAtNC44NDE5LC04LjA4NTggMC4zNzU5LC0xLjM2MzIgMC43NTIsLTIuNzI2NyAxLjEyODIsLTQuMDg5OCAwLjUzMjYsLTAuMzYwNiAxLjA2NTUsLTAuNzIwOSAxLjU5ODIsLTEuMDgxNSAwLjY1ODIsLTAuMjE5MSAxLjMxNjQsLTAuNDM4NSAxLjk3NDYsLTAuNjU3OSAxLjE5MDgsMC4yODIxIDIuMzgxNywwLjU2NDEgMy41NzI4LDAuODQ2MiAwLjYxMTEsMS44OTYxIDEuMjIyMywzLjc5MjEgMS44MzM0LDUuNjg4MiAtMS42OTI1LC0wLjgzMDUgLTMuMzg0OCwtMS42NjExIC01LjA3NzEsLTIuNDkxNiAtMC4zOTE4LDAgLTAuNzgzNSwwIC0xLjE3NTMsMCAtMC40Mzg4LDAuNjczOCAtMC44Nzc2LDEuMzQ3NiAtMS4zMTY0LDIuMDIxNCAwLjUzMjksMC43ODM1IDEuMDY1NiwxLjU2NyAxLjU5ODUsMi4zNTA1IDAuMjgyLDEuNDg4NyAwLjU2NDEsMi45Nzc1IDAuODQ2MSw0LjQ2NTkgMC4zNjAzLC0wLjEwOTcgMC43MjA5LC0wLjIxOTEgMS4wODEyLC0wLjMyODggMC40Mzg4LC0wLjM0NSAwLjg3NzYsLTAuNjg5NiAxLjMxNjQsLTEuMDM0MyAtMC4wNjI3LDAuNzgzNSAtMC4xMjUzLDEuNTY3IC0wLjE4ODIsMi4zNTA1IC0wLjI5NzcsMC41MDE0IC0wLjU5NTMsMS4wMDI4IC0wLjg5MzIsMS41MDQzIC0wLjI5NzcsMC4yNTA5IC0wLjU5NTMsMC41MDE0IC0wLjg5MzIsMC43NTIzIC0wLjE4OCwtMC43MzY3IC0wLjM3NTksLTEuNDczMiAtMC41NjQxLC0yLjIwOTYiIGlkPSJwYXRoMTAyIiBzdHlsZT0iZmlsbDojY2NjYzAwO2ZpbGwtb3BhY2l0eToxO2ZpbGwtcnVsZTpldmVub2RkO3N0cm9rZTpub25lIi8+PHBhdGggZD0ibSAxMzYuMzkxNSwxNjcuNTM0MSBjIDMuMzQ4NiwtMy4xMDk2IDcuNDU5MSwtNS44MTI3IDEwLjEzNzYsLTkuNjEzMiAxLjAzNjYsLTEuNDcxNCAyLjE4ODYsLTIuMjIzNyAtMC4wMTc2LC00LjMwMTUgMi4zMzA5LDAuNjY1OCAzLjE5NjksMC41OTM1IDUuMDYyNywwLjM2NzMgMy4zOTQyLC0wLjQxMDcgNi41NzU1LC01LjIzNTYgNi43Nzg1LC04LjY5MzMgLTAuMDQsLTAuMzIzNCAtMC45NDI4LC0xLjA1NzMgLTMuNTY3MiwtMS43ODE4IC0wLjA1MjEsLTAuMTAwOSAtMS40ODExLDAuMTk1NiAtMS40NDU2LDAuMDk4OSAwLjI3MjcsLTAuNzQ2MyAwLjYzNzIsLTAuODYwNiAxLjE5MzYsLTEuMjA5OCAwLjEyMDgsLTAuODMgMC4xOTg1LC0yLjEwOTggMC43NjM3LC0zLjAxNzIgMS42NTE1LDAuMDI4OSAzLjI2NTIsLTAuMTUwOCA0Ljg4MjQsLTAuNDcxMSAwLjU0NDIsLTAuOTAyNiAwLjQ2MiwtMS44MDUxIDAuNDE2NywtMi43MDg1IDAuNjI1LDAuMTA0IDEuMjUwMSwwLjIwODMgMS44NzUxLDAuMzEyNCAtMC4xNzM4LDEuNDI0MSAtMC4zNDcyLDIuODQ3NiAtMC41MjA3LDQuMjcxMiAwLjU1NTMsMC45Mzc3IDEuMTEwOSwxLjg3NTQgMS42NjY3LDIuODEyOCAtMC43OTksMS44MDU3IC0xLjU5NzYsMy42MTE0IC0yLjM5NjEsNS40MTczIC0xLjUyODEsMS40NTg0IC0zLjA1NiwyLjkxNjkgLTQuNTgzOSw0LjM3NTYgLTAuMTQ2OCwwLjAwNyAtMC4yOTQ1LDAuMDE0NyAtMC40NDEzLDAuMDIxOCAtMS43MTg0LDEuMDU0OCAtMy40MzY1LDIuMTA5IC01LjE1NDYsMy4xNjM1IC0yLjgwMjYsMi4yOTI5IC01LjYwNTIsNC41ODYxIC04LjQwNzgsNi44NzkxIC0yLjA4MDksMS4zNTg5IC00LjE2MTUsMi43MTc4IC02LjI0MjIsNC4wNzY1IiBpZD0icGF0aDEwNCIgc3R5bGU9ImZpbGw6I2NjY2MwMDtmaWxsLW9wYWNpdHk6MTtmaWxsLXJ1bGU6ZXZlbm9kZDtzdHJva2U6bm9uZSIvPjxwYXRoIGQ9Im0gMTQyLjAzMjgsMTQxLjg2NjEgYyAtMC4xNzY2LC0wLjMwOSAtMC40NDM0LC0wLjgwMjggLTAuNzg1MiwtMS4xNDQ3IDEuMzk0OSwtMS4zMTk1IDIuMDgzMSwtMi4yMDMgMi41ODAzLC00LjA2OTEgLTEuNTc2OSwtMC43ODI5IC0zLjE1MzUsLTEuNTY1OCAtNC43MzA0LC0yLjM0ODggLTEuMzM0MywtMS4yNzkgLTIuNjY4NiwtMi41NTgyIC00LjAwMjgsLTMuODM3MiAtMS43NTYxLDAuOTQ1MyAtMi4xOTM4LDEuNjcxMyAtMy4wNDM2LDMuNDczNSAtMC45ODk2LC0wLjI2MTkgLTEuOTI3MywtMC41MTQyIC0yLjc0NDUsLTAuMjE0MyAwLjUxODUsLTAuMDA0IDAuODM3MSwwLjEyNTYgMS4zNTUsMC40NDU5IDAuODQ5MiwwLjg4MjIgMS42OTgyLDEuNzY0MyAyLjU0NzIsMi42NDY1IDEuNDk5OCwxLjEzNTggMi45OTk2LDIuMjcxNiA0LjQ5OTEsMy40MDcyIDAuOTgxNCwwLjMyIDEuOTYzLDAuNjM5OCAyLjk0NDQsMC45NTk1IDAuMzc0NywwLjE1NDIgMS4wMDU0LDAuNTI3IDEuMzgwNSwwLjY4MTUiIGlkPSJwYXRoMTA2IiBzdHlsZT0iZmlsbDojY2NjYzAwO2ZpbGwtb3BhY2l0eToxO2ZpbGwtcnVsZTpldmVub2RkO3N0cm9rZTpub25lIi8+PHBhdGggZD0ibSAxNDYuMzg1NCwxMzcuMTYwMyBjIC01LjAxNjgsLTIuNzAxMiAtOS44MjE4LC01LjQxNzkgLTEyLjM4NjksLTEwLjU0OCAwLDYuNTExNyA2LjUzODEsOS4zNzgxIDEyLjM4NjksMTAuNTQ4IiBpZD0icGF0aDEwOCIgc3R5bGU9ImZpbGw6I2NjY2MwMDtmaWxsLW9wYWNpdHk6MTtmaWxsLXJ1bGU6ZXZlbm9kZDtzdHJva2U6bm9uZSIvPjxwYXRoIGQ9Im0gMTMzLjAwMjQsMTQ5Ljk2OTUgYyAtMy43MjUsLTIuNTM5OSAtNi4zNTkyLC03LjY2NTUgLTYuMDI4MSwtMTIuNjYxIC0xLjIxMzUsNC4zMjU0IC0wLjc4MzUsOC40MTI3IDIuOTQyMywxMS40MDA0IDAuNjI4OCwwLjMwNTYgMS4yNTcyLDAuNjExMiAxLjg4NTYsMC45MTY3IDAuNDAwMywwLjExNDYgMC44MDAzLDAuMjI5MSAxLjIwMDIsMC4zNDM5IiBpZD0icGF0aDExMCIgc3R5bGU9ImZpbGw6I2NjY2MwMDtmaWxsLW9wYWNpdHk6MTtmaWxsLXJ1bGU6ZXZlbm9kZDtzdHJva2U6bm9uZSIvPjxnIGlkPSJnMTEyIi8+PGcgdHJhbnNmb3JtPSJ0cmFuc2xhdGUoNjEuMjM2NTI0LDEwNi4xNjExNCkiIGlkPSJnMTI0Ij48ZyBjbGlwLXBhdGg9InVybCgjY2xpcFBhdGgxMjgpIiBpZD0iZzEyNiI+PGcgdHJhbnNmb3JtPSJtYXRyaXgoMTM2Ljg5NzIzLDAsMCwxMDUuMDQ0ODgsNDUuMjA3Miw2Mi45OTMyKSIgaWQ9ImcxMzIiLz48L2c+PC9nPjxwYXRoIGQ9Im0gMTQwLjEyMjgsMTExLjQwODEgYyAwLjc2OTksMC40MTkgMi4xNjc2LDAuOTk1MiAyLjkzNzUsMS40MTQyIC0wLjc5MiwtMC4xMzM4IC0yLjIxMTksLTAuNDI0OSAtMy4wMDM5LC0wLjU1ODQgLTIuMTE1NSwtMC4zNTcyIC0yLjM2NDMsLTAuODY1NyAtMi42OTI2LC0yLjk0ODYgLTAuMTU0OCwtMC45ODA4IC0wLjM2NzksLTIuMTk3NyAtMC41MjI3LC0zLjE3ODggMC40MTQ3LDEuMTA5MiAwLjkxMzYsMi4zOTg0IDEuMzk2OSwzLjQ1NjMgMC41MTE0LDEuMTE4OCAwLjc5OTQsMS4yMjQzIDEuODg0OCwxLjgxNTMgeiBtIC0zOS4yNTE5LDUzLjY0MzEgYyAxLjY2MjUsMi40OTM3IDIuNjE5NywzLjMwNDkgNS4xNzgsNC44ODQ3IC0zLjQ3MzgsLTAuODM2OCAtNC4xMzYsLTEuNDggLTUuMTc4LC00Ljg4NDcgeiBtIC0wLjU0NzEsLTUuNDkzOCBjIDIuOTA5Miw1Ljg0ODQgNS4xMTIsOC4wMDE5IDExLjIwMjgsMTAuODc0MyAtNi44ODkzLC0xLjY4ODYgLTguOTE0NCwtMi44ODk0IC0xMS4yMDI4LC0xMC44NzQzIHogTSAzOC4wMjQyLDEyOS4xMTYxIGMgMC42Mzg0LDIuOTI4NSAxLjIzMzQsNC4wMzMyIDMuMDM5LDYuNDM3MiAtMi45MjksLTIuMDQ2MyAtMy4zMTA4LC0yLjg4NjggLTMuMDM5LC02LjQzNzIgeiBNIDEwMy4yMzM1LDgwLjEwMiBjIC0wLjA4ODEsMC43MTA2IC0wLjE3NjYsMS40MjE4IC0wLjI2NTMsMi4xMzI1IC0wLjE1OTYsMS4yODc1IC0wLjE1MzMsMi4zMzM4IC0wLjA1MDcsMy42Mjk4IDAuMDk4OSwxLjI1NDMgMC4xOTczLDIuNTA4NiAwLjI5NTksMy43NjMyIC0wLjM2NTQsLTEuMjc1IC0xLjA5NTYsLTIuNTUgLTEuNDYwNywtMy44MjUgLTAuMTQ2LC0wLjUxMDMgLTAuMjY3LC0wLjkyMyAtMC4zMzYyLC0xLjMwNDUgLTUuNDUxMywtMS4xMTM4IC0xMC44NjI5LC0xLjE4MzUgLTE2LjMxNTYsLTAuMjEwNyAtMC4zNDc4LDIuMDE4NiAtMC43NzEzLDQuMTIyMiAtMS4xMjY1LDUuNjI5OSAtMC4xMDc3LC0xLjY4ODkgLTAuMDM4MywtNi4zNTc4IC0wLjA0NzEsLTguOTcxOSAtMC4wMDY4LC0yLjAyNTYgLTAuMDkyMSwtMi43MTkgLTEuMTM2NCwtNC40NDE5IC0wLjk3NzksLTEuNjEzMiAtMS4zOTIxLC0xLjk3OTEgLTIuNzYwOSwtNC43MDQ0IDAuMTEzNywtMS43MTk1IDAuMTE1OSwtMi44NTY3IC0wLjM0MSwtNC40ODg5IC0wLjc2LC0yLjcxMzEgLTguNDI0NiwtMC42MTA5IC0xMC40NDY4LC0wLjA1NzMgLTIuNDksMC42ODE1IC03LjYzOCwxLjY5NDYgLTYuMzQzNCw1LjAxNDIgMS4xMzk1LDIuOTIxNCAxLjg2MTUsNi4wMDE1IDIuNDE4MiwxMC4wODk3IC00LjU2Miw2LjU3MTggLTguODA0OSwxNS41NzgzIC05LjYxODgsMjMuNTU3OSAtMC42MzIxLDYuMTk2MiAtMC4yNTI4LDEwLjAwOTkgMS4wODgsMTMuNzk5OSAyLjEyNDUsNi4wMDQ5IDUuMDk2NCwxMS4yMDMgOS44NjU3LDE1LjM4ODcgNi40MzI5LDUuNjQ0NiAxMi40NDY2LDcuOTEyIDIxLjg2MjIsOS4zNDUgLTIuMjY0MSwtMi41MzQ1IC00LjUwNDMsLTUuMjE0OSAtNi45NDYsLTguMDg4NyAtMi40NzE4LC0yLjkwOTggLTMuOTQwOCwtNS44NDg0IC01LjUxLC05LjAzMDYgLTIuMTY4MiwtNC4zOTU0IC0yLjEyMTgsLTYuMDY3OSAwLjc1MjYsLTkuOTI2NCAyLjQ3NjksLTMuMzI1MyAzLjgxNCwtNC44MjI2IDQuODk1NCwtOC4wNzU5IC0wLjg5MzIsLTEuODQxMSAtMS4yMTc4LC0zLjM5NjcgLTEuNTE4MiwtNS45MTA4IDMuMDMyOCwtMy4zMTQ4IDUuMjg2MywtNS41ODY1IDguMjMwOSwtNi4yODY0IDIuODg4MywtMC42ODY1IDUuMzAwNSwtMC41NTMzIDcuODg0MywwLjc2NzQgNS43MzkzLDIuOTM0NCAxMS4wNDk1LDYuNzIyOSAxNy41MjM1LDYuODc5NiAyLjk5NTEsNy4zNjM2IDIuNjkyNCwxMy41MTU5IDEuMjU0MywyMC42NDAyIC0wLjk4MTksNC44NjU0IC0xLjM3NTYsOS40NzIzIC0xLjY4MTIsMTQuNDMyNiAtMS4yMTQzLC01LjEwODMgLTEuNDQyLC05LjYwMDYgLTAuNTQxNCwtMTQuNjg4OCAxLjA4NjIsLTYuMTMyMiAxLjkzMDQsLTEyLjkwNyAtMS4wOTA4LC0xOC4yOTYyIC01Ljg1MzgsLTAuNDQ4MiAtMTAuODcwOCwtNC4wMDk2IC0xNi4xNDcyLC02Ljc0MjIgLTIuMTIwNiwtMS4wOTg4IC00LjMyODYsLTEuMjA1NiAtNi42NzYyLC0wLjU2MTMgLTIuMTc5LDAuNTk4NCAtMy42NDkzLDIuMDM5OCAtNS45OTY3LDQuNzQ3MiAtMC4wMzY2LDIuNzE4MSAwLjU3NjYsMy45NzI3IDEuODI0Nyw2LjQzNDEgMi4wMDU1LDMuOTUzMSA0LjIxOTMsNy42MzI4IDYuNjQ4MywxMS41MjI4IC0yLjk3NDYsLTMuNTkwNyAtNS43OTI2LC02LjU5IC04LjEzMzcsLTEwLjE5OTYgLTAuODk0OSwyLjU0OTcgLTIuMTc0MiwzLjg0NCAtNC4yOTM5LDYuNzE0NyAtMi4wNzA0LDIuODAzNyAtMi4yODczLDQuMDMxNyAtMC43MzkzLDcuMjc2MiAxLjU1NjUsMy4yNjA3IDIuODc2Niw2LjEyNjggNS41MjU5LDguOTg3MyA0LjU3NzYsNC45NDMzIDguNzcwOSwxMC40NDUxIDEzLjc3NjksMTUuMzEzMyAyLjcxNzksMi42NDMzIDMuODIxNCwyLjU1MiA3LjQyNjgsMy4wOTg1IDMuMjU4NCwwLjQ5MzggNi40NDAzLDEuMTE3NSA5Ljc2MzYsMS44ODk2IC0zLjIxNDIsLTAuMjk5NiAtNi4zMjA5LC0wLjQwOTkgLTkuNDQ5OCwtMC40ODc1IC0wLjAzMjYsLTllLTQgLTAuMDY0NiwtMC4wMDIgLTAuMDk3LC0wLjAwMiAzLjA3ODUsMy45MzE2IDQuODY1MSw2LjEyMjMgOS44NjQ5LDguMjk0NyAxMi4zMSw1LjM0NjUgMjAuMTMxNiw1LjkyNDcgMjkuODAxNSwtMi4yMDM5IDIuNTA2MSwtMi4xMDY3IDQuNjk1LC00LjE1MTkgNy4yMzYzLC01Ljk2OTUgLTAuOTIxMywtMC4wNzg4IC0xLjcxNTMsLTAuMjQ0IC0yLjc2NTUsLTAuNjU2NSAxLjI3ODEsMC4yNDM1IDIuNzU0MSwwLjAwMiA0LjA4MDQsLTAuMjQwNCAwLjM3MjUsLTAuMjQxNSAwLjc1NDksLTAuNDc3IDEuMTQ3MiwtMC43MDgzIDEuNzkzNSwtMS4wNTY4IDIuODExNywtMS42NDA1IDQuMDI0OSwtMy4zMzEgMS4yODI0LC0xLjc4NjQgMi4zNTExLC0zLjU3MTQgMy4yOTMzLC01LjUzODkgLTAuNjE3NCwwLjIyMDUgLTEuMTM1LDAuNDA3IC0xLjU5NjQsMC41NDQyIC0wLjMzOTYsMC4xNTU2IC0wLjcwOSwwLjI1ODUgLTEuMTAwNywwLjI5NjIgLTAuNzc1OSwwLjA3NDYgLTEuNTE4MywtMC4xMTYyIC0yLjEzNjgsLTAuNDk2OSAtMC4wMjQ5LC0wLjAxMTYgLTAuMDQ5NiwtMC4wMjI5IC0wLjA3NDgsLTAuMDM1MSAtMC45OTIyLC0wLjQ4MyAtMi41Mjk0LC0xLjAzMzggLTMuNTU4MSwtMS4yMDA4IDAuNTI0NCwtMC4xODExIDEuNjg0OSwtMC4yNDg5IDIuMjMyMywtMC4wMzIzIDAuMDczNCwwLjAyOTIgMC4xNDgsMC4wNTEzIDAuMjI0NSwwLjA2OTcgLTAuMjQ2OSwtMC40MjAxIC0wLjQwODIsLTAuODk3NCAtMC40NTc4LC0xLjQxMjggLTAuMDY1NywtMC42ODM0IDAuMDczMiwtMS4zMzkzIDAuMzY3MSwtMS45MDg4IDAuMDAxLC0wLjAwMiAwLjAwMiwtMC4wMDQgMC4wMDMsLTAuMDA2IDAuMDkzLC0wLjIxODUgMC4yMjIsLTAuNDIwMyAwLjM2NCwtMC41NjU1IC0wLjQ3MDUsLTAuMTcyOSAtMC45NTAyLC0wLjM3MSAtMS40NDQ4LC0wLjU4NTkgMi4yOTM4LDAuMzQ5NSA0LjM2MjIsMC40MDk2IDYuNjAxMywwLjExNDUgMC4xNDc3LC0wLjcwNTggMC4yOTY1LC0xLjQ1MzYgMC40MzQzLC0yLjIxNDQgLTAuMjc3NSwtMC4wMjIxIC0wLjU1NDIsLTAuMDQzMSAtMC44MzE0LC0wLjA2NDkgLTAuMDIyNCwtMC4wMDIgLTAuMDQ1MSwtMC4wMDQgLTAuMDY3NSwtMC4wMDYgLTEuMDU5MywwLjg0NjcgLTIuMjM5NiwwLjcwNDQgLTMuODUyLDAuMzM2NCAtNC45MDM0LC0xLjExODIgLTMuNzUxMSwtMy44Njk4IC02LjAwNzIsLTguMDE1NSAyLjM0MjMsMi44NjMzIDIuMTY4OCw1Ljg1ODkgNS45ODU3LDYuNzYyOSAwLjg4OTUsMC4yMTA2IDEuNDk1LDAuNDc0IDIuMDk3LDAuMzgzNSAtMS4wODM2LC0wLjU0NTEgLTIuMDIxMSwtMS40NDg1IC0yLjM5MjcsLTIuNDk3NiAtMS4wNDc3LC0yLjk1ODUgLTAuMzk3MSwtNS40NTEzIC0xLjU0OCwtOC4yMTQ1IDEuNDI1OCwyLjQ3MDEgMS41MTE3LDQuODgxIDIuNzg2NSw3LjQ3OTggMC40NTc4LDAuOTMzNyAyLjE1NzEsMi40MjgxIDMuMjAwMywyLjQ1MTEgMC4yODYzLDAuMDA2IDAuNTcyLDAuMDEyMiAwLjg1ODYsMC4wMTg0IDAuMjUxNCwtMS42NDQ2IDAuNDA0MiwtMy4yNzcxIDAuMzA2NywtNC42MzE1IC0wLjE3NzcsLTIuNDcxMiAtMC44MTk4LC02LjEzOTMgLTEuMjA0MSwtNy41NDI3IDEuMjkxNCwxLjY2IDEuODc5Niw1LjE3NjEgMi40NDY4LDcuNjUxIDAuNTkwOCwyLjU3NzUgMC40NDE3LDUuNjcwMSAtMC4wNzU0LDguNDM4NyAtMC43MDk1LDMuNzk5IDMuMjAyOSwzLjE4MTEgNS40NzQzLDQuOTcxNCAxLjY2OTYsMS4zMTY0IDIuODE4OCwzLjQxOCA0LjM0OTcsNC45MDY4IDEuNTE4NiwxLjQ3NjMgMy45MDg3LC0wLjY5MzEgNC41MDU3LC0yLjEzNjUgMi41OSwtNi4yNjUxIDMuNzY5OCwtMTYuMTIyIDMuMDg1OCwtMjIuNDM3NiAtMC43Njc2LC03LjA4NjkgLTQuMTkxLC0xNC44MjM1IC0xMC40NDE3LC0xOC4zMTI3IC03Ljk2ODIsLTQuNDQ3MyAtMTcuMzYzNiwtMS43MzAyIC0yNS4yODAyLDAuOTM2OSAtMS42ODk3LDAuNTY5MiAtMi44NjQ3LDEuMzk4OSAtNC4zNTAxLDIuMzM0NiAwLjQwNDUsLTEuODIxIDAuNTg4MiwtMy43NDgzIDAuMDUwMiwtNS41NjcgLTAuODU0MSwtMi44ODU0IC0yLjIzMzQsLTcuNjA2NSAxLjY4NDQsLTguNDc3MyAxLjQ5MSwtMC4zMzEzIDIuMTY3MSwtMC4yODM0IDQuMjcyMywwLjgwMjggLTEuNzAzOSwtMC4zODUyIC0yLjU2MjgsLTAuMjkwOCAtMy43MzM4LC0wLjA3NDUgLTEuMDYxMiwwLjE5NTUgLTEuNjIzOSwwLjg2OTkgLTEuOTIwNCwxLjY2NDcgMC4zNzA3LC0wLjI2NzggMC45NzU0LC0wLjQxMzUgMi4wMDg2LC0wLjY2MjQgMi45MDQ0LC0wLjY5OTkgNS42NzIxLDAuNjk3OSA2LjIxMzMsMi43MTIyIDAuMzE1NywxLjE3NjYgMC4yNjE5LDEuNzk0NiAwLjkzMDYsMy4zOTc5IDAuNjAwNiwtMC4xODUxIDEuMjIyMywtMC4zNTQ2IDEuODU5NSwtMC41MDg2IC0wLjM1OTQsLTEuMTcyNyAtMC43MTk0LC0yLjM0NjggLTEuMDc5MSwtMy41MTk1IC0wLjkzMzUsLTMuMDQ0OSAtNC41NzAxLC01LjUwMDMgLTcuNzgxNCwtNS40NDM5IC0yLjk2ODUsMC4wNTI3IC00Ljg1MDQsMS45MTIyIC02Ljg5OTYsMy43MzUyIC0xLjQxMTksMS4yNTYzIC0yLjc3MDUsMi40NTgyIC00LjExNzMsMy42NDg1IC0zLjY5NDQsMS4xNjU2IC02LjY1NTcsMi41Mjc5IC0xMC4wODQ1LDUuMDY2MyAyLjQ0LC0yLjg2NzggNC4wOTU1LC00LjQ1NTIgNy40OTg1LC01Ljg4MjEgLTAuNDk1MiwtNS4wNDgzIC0yLjI0OTYsLTguNzI5IC0zLjc0NTQsLTEzLjU2MDQgLTAuNjc2NywtMi4xODUgLTYuMDIxNCwtMTAuOTM4MyAtNy41MDI1LC0xMS43OTE5IC0xLjA1NjIsLTAuNjA4MyAtNy42NzExLC02LjE4MDMgLTguOTE1OCwtNi45MTUxIC0wLjkyNjcsLTEuMjMxMSAtMS43NDAyLC0yLjkzMTYgLTMuMTMzNCwtMy42NjggLTQuMjQ1OCwtMi4yNDUgLTYuOTc0MSwyLjA1MzcgLTkuMjU5MSw1LjY4NDYgLTEuMDQwNiwxLjY1NCAtMy45MjkxLDYuNDE3OSAtMS40MTA4LDcuNzUyNSAyLjM4MTEsMS4yNjE0IDMuNzE0NSwyLjE2MjIgNi4xNDM4LDMuNzU3IDAuMzU2OSwtMC42NTA1IDAuOTY5NywtMS4yNzgxIDEuMzY4OCwtMS45MjgxIHogbSAxNC43NjAzLC03LjY5NzIgYyAtMi4xNDk1LC0xLjczNjUgLTUuNzY0MiwtNC44MTA0IC02LjQ2NTUsLTUuMTk1NCAtMS4yNjk5LC0xLjg5NTUgLTEuNDI2NywtMy4wNjg1IC0zLjQ2MTEsLTQuMTY5NyAtNi4wNTYyLC0zLjI3NzEgLTkuMjcwNCwwLjUyMzUgLTEyLjg1NTQsNi4wNDgzIC0xLjcwODIsMi42MzI1IC01LjQ0MzEsOC42NDI4IC0xLjQ3OTcsMTAuNjgwMyAxLjY2OTksMC44NTg0IDIuOTM1NiwxLjUwMTggNC4xOTgxLDIuMjM3MSAtNC4xNTc5LC0wLjUxNTkgLTguMjM4NiwtMC41MjIxIC0xMi40ODE4LDAuMTE2MyAwLjA3NTEsLTAuNTEyIDAuMTQwNiwtMC45OTkyIDAuMTkzNiwtMS40NDYgMC4yNzU4LC0yLjMxODQgMC4zNjYzLC0zLjAyOTQgLTAuODkzMiwtNC44OTc0IC0wLjkxODEsLTEuMzYyMyAtMS4yNzE5LC0xLjc1NjYgLTIuMzgwOCwtNC4yMzE2IDAuMjAxOCwtMi4wMTIgMC4xMTQyLC0zLjE0NDQgLTAuNDUzNSwtNS4yNTE3IC0xLjI2MiwtNC42ODMxIC0xMC4wMDcyLC0yLjExNjEgLTEzLjU3MDYsLTEuMTUyMyAtNC4yODc3LDEuMTU5NCAtMTAuNDE0NSwyLjIzOTEgLTcuOTAwNSw3Ljc1MTYgMC41ODkxLDEuMjkxNSAxLjA1MTcsMi42MTI0IDEuMzk5OCwzLjg3MjIgLTMuNzQ5MSwtMS42NTk0IC04Ljk1OTIsMS44NjA2IC0xMS40NDA2LDQuMzQ4MyAtMi4zNjAyLDIuMzY2NCAtMy42NDIzLDUuMTE0MyAtNC4wODksNy43ODA4IC0wLjM4MDQsMi4yNjk0IC0wLjAzMjEsMi4yNTg0IDEuNTg3NCwzLjg2MjggMS40ODE2LDEuNDY2NiAyLjk2MjcsMi45MzUgNC40NDM5LDQuNDAwOCAwLjU5ODEsMS42MjgyIDEuMTk3MywzLjI1NSAxLjc5NTEsNC44ODIxIC0wLjIzMywxLjIxNTUgLTAuNDA2MiwyLjQyNzkgLTAuNTA5NCwzLjYyODYgLTAuNDMwMyw1LjAwNjMgLTAuMjg1Nyw4LjU3MTQgMC40Mjk1LDExLjg0ODggLTIuNjA4NywtMS4wMTc5IC01LjYwMjEsLTAuNTQxMSAtNi45MzM1LDIuMjI3NSAtMC41MDYzLDEuMDUyNSAtMC44MDc5LDIuMTI0NiAtMS4xOTAzLDMuNjgxMSAtNS44MTkzLDUuNjA2OSA1LjA4NTksMTIuOTU3NCA4LjI2NzIsMTMuNTEwMiAtMC4zNjM3LC0xLjAzMzUgLTAuNzYyMiwtMS45Nzg5IC0xLjExMjksLTIuOTE2MyAyLjE1NzUsLTEuMTE2OSAxLjg5MywtNC4yOTkzIDEuNDM0OSwtNi4zNDgyIC0wLjc3NjEsMC45Nzk0IC0xLjIwNSwyLjI2MDEgLTIuMzQ2NSwyLjMxNTEgLTAuMTY3MiwtMi4zMTcxIC0wLjEzODMsLTQuODc3NiAtMS45NDc5LC02LjIzOCAwLjUzNTcsLTEuNDMyIDAuNTA3NiwtMS40MzMyIDIuMDMwMSwtMC44NDc4IDIuMTYyMywwLjgzMjUgMy43OTA1LDIuNjg3IDUuNDI4NCw0LjQ5NjkgMS43NjQsMy40MzYxIDQuMDI1Miw2LjQ5MjcgNy4xMzU5LDkuMjUwNiA3LjY0NDIsNi43NzczIDE0Ljg2OTcsOC45OTQ2IDI2LjUwNDIsMTAuODQ4NyAxLjU0ODYsMS42MTYxIDMuMTQ5LDMuMTc1NCA0Ljg2NjgsNC42OTE2IDIuMzI3MywyLjA1MzcgMy44Mzg0LDIuNDgwMSA2LjAzOTUsMi41OTQ5IDMuNjQyMyw0Ljg3MTkgNi41MDgxLDguMjY0NyAxMi40NDY0LDEwLjc2NDMgMTIuNDQ3Miw1LjIzOTIgMjEuMDI2OCw1LjQ5MTggMzEuMDE3MywtMi43NDU3IDMuMzAxNSwtMi43MjE4IDYuMTE3MSwtNS41OTAyIDkuNzQ1NSwtNy44NjI0IDEuODM2MiwtMS4xNDk4IDMuMTQ4NCwtMS45NzYzIDQuNTQwNSwtMy42MzQxIDEuNzUwNywtMi4wODYyIDMuMTgwNSwtNC4xNzI1IDQuMTc1NywtNi44NTc4IDEuMjg1OCwwLjUyOTIgMi43NTIyLDEuMDI3OCAzLjkzNjIsMi4wMzk4IDEuNTI4NywxLjMwNjIgMi41MDEzLDMuNDkyNiAzLjkxNzIsNC45Mjc4IDEuODc5NCwxLjkwNDUgNi4xNjY1LC0wLjM5NDYgNy4xMTU4LC0yLjIxMTYgMy4yMjg3LC02LjE3OSA0LjU0OTYsLTE3LjU2NjkgMy44NjM0LC0yNC4zMzg5IC0wLjg0ODIsLTguMzcxMyAtNC4yOTkxLC0xNi4yODUgLTExLjY3NDUsLTIwLjIyMTIgLTUuMDE0OCwtMi42NzU2IC0xMS43NDU0LC0yLjkyNDggLTE3LjUwNTQsLTEuODM2IC0wLjM3MzMsLTEuMjI4MyAtMC43NDUyLC0yLjQ1NjUgLTEuMTE4NSwtMy42ODQ4IC0xLjEyLC0zLjY4MDUgLTUuNDkxOSwtNi42ODg5IC05LjMxMSwtNi44Njk0IC0zLjY2NjksLTAuMTczIC01LjY1NDYsMS43MTk1IC04LjA1OTUsNC4wMzU5IC0xLjI2MTcsMS4yMTU1IC0yLjUyNDIsMi40MzAyIC0zLjc4NTksMy42NDU3IC0wLjA3MzQsLTAuODI4IC0wLjE4MTcsLTEuNjIyIC0wLjMxODEsLTIuMzkwNSAwLjk5MzMsLTEuOTYxMyAxLjQ3MDQsLTMuNjg1NiAyLjMyMDUsLTUuNzA3NSAwLjkzNTQsLTIuMjI2NyAxLjM5MDcsLTMuNjg4MiAxLjQ1NSwtNi4wNzEzIDAuMDU2NCwtMi4xMTU1IDAuMTEzMSwtNC4yMzE2IDAuMTY5OCwtNi4zNDcgMC45NDM2LC0xLjY3NjUgMS4wMjYxLC0yLjA4NDQgMC44ODg3LC00LjAwMjkgLTAuMjkwNiwtNC4wNDMzIC0yLjUxNzUsLTQuNDI5MSAtNi4yMjg5LC00LjQwNTggLTEuMjM2NSwwLjAwNzkgLTUuOTAzNywtMC4wMjEgLTcuMDkzNCwwLjA2NDkgLTIuMzY1LDAuMTcwOSAtMy45MjQsMC4zNTE1IC00LjczOSwxLjMyODMgeiBtIDEyLjUxNDQsMjIuMDU2OSBjIC0wLjc0NjYsLTIuNjY2MiAtMS43NTAxLC01LjE4MzEgLTIuNjY2MiwtOC4wNjc5IC0wLjg2NjksLTIuNzMwOSAtNS4zMTMzLC0xMC42NjA5IC03LjkzMDUsLTEyLjU4MjcgMC41MDk0LC0wLjM3OTMgMS40NDQ1LC0wLjUyNzkgMy4xMTAxLC0wLjY3MTYgMS4xNzg0LC0wLjEwMTcgNS44MjQxLC0wLjEyMzMgNi45OTA2LC0wLjE0MzQgMi41NjgxLC0wLjA0NDggMy41NDI3LDAuMTQ4MiAzLjgwMjQsMy4wNzI1IDAuMTI2OSwxLjQzMTUgMC4wMTUsMS42OTkxIC0wLjcwMTEsMi45NTQgLTAuMDYzNSwyLjIzODIgLTAuMTI2OSw0LjQ3NyAtMC4xODk5LDYuNzE1MiAtMC4wNTk4LDIuMTIyIC0wLjQ2NzEsMy4zNDQzIC0xLjMwMTQsNS4zMjE4IC0wLjQ5OTQsMS4xODM1IC0wLjc3MDQsMi4yODgxIC0xLjExNCwzLjQwMjEgeiBtIC03OC4yMjM3LDM2LjYyODIgYyAwLjU3NjUsMC4wNjU1IDAuOTMzMSwtMC4yMzcgMS4zNzksLTAuNjgyNiAtMC4wODI1LDEuMDY0NyAtMC4yNzkyLDEuODU0MSAtMS4wMjY3LDIuMjg5MyAtMC4wNTI0LC0wLjE3MzIgLTAuMTAxNywtMC4zNDYxIC0wLjE0ODIsLTAuNTIxOSAtMC4wOTA1LC0wLjM0MjcgLTAuMTU1MSwtMC43MDY3IC0wLjIwNDEsLTEuMDg0OCB6IG0gMy42MjI0LC03LjY5MjcgYyAtMC40MTUsLTEuMDczNyAtMC44LC0yLjE4MDQgLTEuMTYyNSwtMy4zMjM5IC0wLjA2MDEsLTAuMTg5IC0wLjExNzcsLTAuMzc5MyAtMC4xNzM4LC0wLjU2ODYgLTIuMTkyOSwtMC45MzAxIC01LjA3NjMsLTEuNTIxMSAtNi4xODAxLDAuNzgzNSAtMC41MzYsMS4xMTg1IC0wLjgzODUsMi4yMTYxIC0xLjIyOTQsMy42MyAtMy42MTEzLDMuNzQxMiAxLjc4Nyw4LjY4MDMgNC43Mjc0LDEwLjQ1MTkgLTAuNDI1NSwtMC45MTQ3IC0wLjcyNzcsLTEuNjA3MiAtMC45MzQsLTIuMzIwMSAtMC44OTQxLC0zLjA4OTggMC40MDQ3LC01Ljg0NzMgLTIuMzk5NiwtOC4wODczIDEuMzE3OSwtMi42NTk0IDEuMjU3MiwtMy43MTk5IDQuMzIzNCwtMi40OTEgMS4xODI5LDAuNDczOSAyLjE1ODMsMS4xMzkyIDMuMDI4NiwxLjkyNTUgeiBtIC0wLjg0NSwtMjUuMTc3IGMgMS42NjIyLC01Ljc0ODcgNC40OTI5LC0xMS4zOTczIDcuNjMxMSwtMTYuMTQ1OSAtM2UtNCwtMC4wMjc1IC02ZS00LC0wLjA1NDcgLThlLTQsLTAuMDgyNyAtMC4xOTY1LC0wLjgxNjQgLTAuNDI0MSwtMS42MTIxIC0wLjkwMDksLTIuMjUwNyAtMi4yNDMsLTMuMDAwOCAtNy45NDg5LDEuNDA0MiAtOS42MDA0LDMuMDkwMyAtMS44MDU0LDEuODQzNCAtMy4wMTM4LDQuMDI2NiAtMy4zMDE1LDYuMDczOCAtMC4yMDkyLDEuNDkzNiAtMC4wMDYyLDEuNTI5OCAxLjAzNTgsMi41ODYzIDEuNDA0MywxLjQyMTYgMi44MSwyLjg0NDMgNC4yMTM3LDQuMjY1NiAwLjMwNzMsMC44MjE1IDAuNjE1NywxLjY0MjEgMC45MjMsMi40NjMzIHogbSAxMDYuMjE1LDQ2LjE0MDkgYyAwLjMyLC0wLjMxNjMgMC41NzgyLC0wLjY5MyAwLjc1NjMsLTEuMTA5NyAwLjA5NjksMC4wODkgMC4yMDA3LDAuMTczMiAwLjMwOTIsMC4yNTMxIC0wLjEzMTUsMC4yOTYyIC0wLjI2NTMsMC41ODgyIC0wLjQwMTksMC44NzU5IC0wLjIyNzQsLTAuMDA1IC0wLjQ0ODIsLTAuMDExMyAtMC42NjM2LC0wLjAxOTMgeiBtIC0yNy40NzU3LC0xMC4zNDA1IGMgLTAuMjkyNSwwLjYxMzQgLTAuNDMyNSwxLjI2MDYgLTAuNDM3NiwxLjg5OTggLTEuMDc2NiwtMC44NiAtMi4yNDcxLC0xLjY3NTMgLTMuNDYxNywtMi4xNDY0IDEuNjc3LDEuNDk3NiAzLjk1NDksNS4wMjk1IDUuNjA1NSw2LjE0NDQgMS44NzMxLDEuMjY1NyA0LjQxNTIsMS4wMTkzIDYuNTk5MSwyLjAyOTYgLTAuNzQ1NiwtMC42Nzc1IC0xLjcwMTEsLTEuMjIzNCAtMi42NzQsLTEuNzQzIDEuMDcxOCwtMC4zOTIzIDEuOTk3OSwtMS4xODYgMi41MjYzLC0yLjI5MzggMC4yMjI4LC0wLjQ2NzIgMC4zNTYsLTAuOTU1IDAuNDA5OSwtMS40NDMxIDEuNDY3MiwwLjQ4MTkgMi45MDgsMC43MSA0LjEyNDksMC42OTI1IC00LjM1MzEsLTEuMjIyIC04Ljk4MzUsLTQuMDc5OSAtMTIuMTc2MiwtNy44NjQ1IDAuMzU4NiwwLjk4NyAwLjg1OTgsMS44Nzc3IDEuNDYzNSwyLjY3MzEgLTAuODM2NywwLjQzNzQgLTEuNTQzMSwxLjEzNjcgLTEuOTc5NywyLjA1MTQgeiBtIC0yMC4xODY2LDE1Ljc0NzkgYyAtMi40MDM4LC0wLjkzOCAtNC41OTY0LC0xLjY0MTggLTYuOTM5OCwtMi4yMzA2IC0yLjEzODIsLTIuODEwMiAtMy40NDA3LC00LjI2NjEgLTMuOTMyOCwtOC4wMzI4IC0wLjU3ODgsMy43MDU1IC0wLjY5OTMsNC4zOTM0IDAuOTQ5OSw3LjE1OTIgLTAuNDc3OSwtMC4yNDI5IC0wLjkyMjQsLTAuNTc2OSAtMS41NTkzLC0xLjEyMTQgLTIuMzA0LC0xLjk3MDEgLTUuMzA3MywtOS43MTIxIC02LjUwODEsLTEyLjQ4MDEgMC43NjIyLDMuMzMxNiAzLjE0NjUsMTEuNjU5MiA1LjYwMjEsMTQuMDg2NSAxLjYxNDksMS41OTY1IDEuOTgxMSwxLjU1OTkgNC4yNTgyLDEuNzc1MyAyLjcxMjIsMC4yNTcxIDUuNDE5LDAuNTM3NSA4LjEyOTgsMC44NDM5IHogbSA1MC4xNzQzLC04LjA3ODIgYyAxLjk1LC0wLjE4NDUgMy4wNjQ5LC0wLjQ4NTUgNC44MTEsMC4zNzgyIDMuMjU0NywxLjYxMDYgNS42NDk1LDQuMjQgNy4yMDIzLDcuMzg0OCAtMC45NDk5LC0zLjc1MTkgLTIuODYxNiwtNi45NDAxIC02LjgyNywtOC4zNTQzIC0xLjk0NzQsLTAuNjkzOSAtMy4yMDMxLDAuMDIyNyAtNS4xODYzLDAuNTkxMyB6IG0gLTM3LjQyNDksLTAuMzY2NSBjIDAuNzM0NywzLjI1MzYgMi4wMzkyLDYuMzg4NSA3LjA5MjMsOC44MTM4IC02LjY5NzUsLTEuNjc3IC03Ljk1MzIsLTQuNDg5OCAtNy4wOTIzLC04LjgxMzggeiBNIDM5LjUxOTUsMTIzLjgwMTQgYyAwLjU3NDYsNi41MDY3IDEuODQsOS4zMTU1IDYuNDYzLDE0LjIxMjEgLTUuNzk4NiwtNC4wODU4IC03LjI0NTYsLTUuOTQyNSAtNi40NjMsLTE0LjIxMjEiIGlkPSJwYXRoMTM2IiBzdHlsZT0iZmlsbDojMDAwMDAwO2ZpbGwtb3BhY2l0eToxO2ZpbGwtcnVsZTpldmVub2RkO3N0cm9rZTpub25lIi8+PHBhdGggZD0ibSAxMzQuNjc0OSwxMzIuOTczMiBjIC0wLjQ0NzYsMC45MzYgLTAuMDQ3NCwyLjA2MzkgMC44OTA5LDIuNTEwNCAwLjkzODUsMC40NDcgMi4wNjg3LDAuMDQ3NiAyLjUxNjMsLTAuODg5IDAuMDQyNSwtMC4wODg3IDAuMDc2MywtMC4xOCAwLjEwMzgsLTAuMjcxNSAtMC44OTYxLC0wLjY2NDcgLTEuNzE3OCwtMS40NDg1IC0yLjQwNjQsLTIuMzU2MiAtMC40NjQzLDAuMTg2NSAtMC44NzQ3LDAuNTI1NiAtMS4xMDQ2LDEuMDA2MyIgaWQ9InBhdGgxMzgiIHN0eWxlPSJmaWxsOiNmZmZmY2M7ZmlsbC1vcGFjaXR5OjE7ZmlsbC1ydWxlOmV2ZW5vZGQ7c3Ryb2tlOm5vbmUiLz48cGF0aCBkPSJtIDE1NS42NDI3LDE0MS4wODQ2IGMgMC4wNzQ5LDAuNzc1NSAwLjczNjIsMS4zNDczIDEuNTExNSwxLjI3MjQgMC43NzUyLC0wLjA3NTEgMS4zNDc2LC0wLjc2ODEgMS4yNzMsLTEuNTQzNyAtMC4wMTU5LC0wLjE2NSAtMC4wNjA2LC0wLjMxOTggLTAuMTI3NSwtMC40NjIzIC0wLjcwOTgsLTAuMTIwOCAtMS40MTk0LC0wLjMyOTEgLTIuMTUwNywtMC41OTc5IC0wLjMwNTksMC4zMTMgLTAuNTQ5MywwLjg4NDQgLTAuNTA2MywxLjMzMTUiIGlkPSJwYXRoMTQwIiBzdHlsZT0iZmlsbDojZmZmZmNjO2ZpbGwtb3BhY2l0eToxO2ZpbGwtcnVsZTpldmVub2RkO3N0cm9rZTpub25lIi8+PC9nPjwvc3ZnPg==;" parent="1" vertex="1">
                    <mxGeometry x="450" y="410" width="248.15" height="64.42" as="geometry"/>
                </mxCell>
                <mxCell id="12" value="NAS" style="text;html=1;align=center;verticalAlign=middle;whiteSpace=wrap;rounded=0;fontColor=#000000;" parent="1" vertex="1">
                    <mxGeometry x="160" y="495" width="40" height="20" as="geometry"/>
                </mxCell>
                <mxCell id="16" value="" style="image;html=1;image=img/lib/clip_art/computers/Server_128x128.png" vertex="1" parent="1">
                    <mxGeometry x="400" y="497.5" width="80" height="80" as="geometry"/>
                </mxCell>
                <mxCell id="17" value="" style="image;html=1;image=img/lib/clip_art/computers/Server_128x128.png" vertex="1" parent="1">
                    <mxGeometry x="490" y="497.5" width="80" height="80" as="geometry"/>
                </mxCell>
                <mxCell id="18" value="" style="image;html=1;image=img/lib/clip_art/computers/Server_128x128.png" vertex="1" parent="1">
                    <mxGeometry x="580" y="497.5" width="80" height="80" as="geometry"/>
                </mxCell>
                <mxCell id="19" value="" style="image;html=1;image=img/lib/clip_art/computers/Server_128x128.png" vertex="1" parent="1">
                    <mxGeometry x="670" y="497.5" width="80" height="80" as="geometry"/>
                </mxCell>
                <mxCell id="20" value="" style="image;html=1;image=img/lib/clip_art/computers/Server_128x128.png" vertex="1" parent="1">
                    <mxGeometry x="760" y="497.5" width="80" height="80" as="geometry"/>
                </mxCell>
                <mxCell id="22" value="" style="image;html=1;image=img/lib/clip_art/computers/Server_128x128.png" vertex="1" parent="1">
                    <mxGeometry x="310" y="497.5" width="80" height="80" as="geometry"/>
                </mxCell>
                <mxCell id="24" value="find job" style="ellipse;whiteSpace=wrap;html=1;" vertex="1" parent="1">
                    <mxGeometry x="319" y="675" width="60" height="35" as="geometry"/>
                </mxCell>
                <mxCell id="41" style="edgeStyle=orthogonalEdgeStyle;rounded=0;orthogonalLoop=1;jettySize=auto;html=1;entryX=1;entryY=0.5;entryDx=0;entryDy=0;entryPerimeter=0;" edge="1" parent="1" source="25" target="7">
                    <mxGeometry relative="1" as="geometry">
                        <mxPoint x="250" y="610" as="targetPoint"/>
                    </mxGeometry>
                </mxCell>
                <mxCell id="25" value="find job" style="ellipse;whiteSpace=wrap;html=1;" vertex="1" parent="1">
                    <mxGeometry x="319" y="595" width="60" height="35" as="geometry"/>
                </mxCell>
                <mxCell id="26" value="find job" style="ellipse;whiteSpace=wrap;html=1;" vertex="1" parent="1">
                    <mxGeometry x="319" y="635" width="60" height="35" as="geometry"/>
                </mxCell>
                <mxCell id="29" value="HDFS&lt;br&gt;&lt;br&gt;file paths&lt;br&gt;text files" style="strokeWidth=2;html=1;shape=mxgraph.flowchart.stored_data;whiteSpace=wrap;" vertex="1" parent="1">
                    <mxGeometry x="450" y="595" width="80" height="115" as="geometry"/>
                </mxCell>
                <mxCell id="30" value="" style="image;html=1;image=img/lib/clip_art/computers/Server_128x128.png" vertex="1" parent="1">
                    <mxGeometry x="850" y="497.5" width="80" height="80" as="geometry"/>
                </mxCell>
                <mxCell id="45" style="edgeStyle=orthogonalEdgeStyle;rounded=0;orthogonalLoop=1;jettySize=auto;html=1;exitX=0.5;exitY=1;exitDx=0;exitDy=0;" edge="1" parent="1" source="32" target="5">
                    <mxGeometry relative="1" as="geometry">
                        <Array as="points">
                            <mxPoint x="630" y="750"/>
                            <mxPoint x="180" y="750"/>
                        </Array>
                    </mxGeometry>
                </mxCell>
                <mxCell id="32" value="analyze&lt;br&gt;extract job" style="ellipse;whiteSpace=wrap;html=1;" vertex="1" parent="1">
                    <mxGeometry x="590" y="675" width="80" height="45" as="geometry"/>
                </mxCell>
                <mxCell id="33" value="HDFS&lt;br&gt;&lt;br&gt;text data&lt;br&gt;&amp;amp;&lt;br&gt;meta data" style="strokeWidth=2;html=1;shape=mxgraph.flowchart.stored_data;whiteSpace=wrap;" vertex="1" parent="1">
                    <mxGeometry x="750" y="595" width="80" height="115" as="geometry"/>
                </mxCell>
                <mxCell id="34" value="save doc job" style="ellipse;whiteSpace=wrap;html=1;" vertex="1" parent="1">
                    <mxGeometry x="850" y="595" width="70" height="35" as="geometry"/>
                </mxCell>
                <mxCell id="35" value="" style="image;html=1;image=img/lib/clip_art/computers/Server_128x128.png" vertex="1" parent="1">
                    <mxGeometry x="753.75" y="847.5" width="80" height="80" as="geometry"/>
                </mxCell>
                <mxCell id="36" value="" style="image;html=1;image=img/lib/clip_art/computers/Server_128x128.png" vertex="1" parent="1">
                    <mxGeometry x="843.75" y="847.5" width="80" height="80" as="geometry"/>
                </mxCell>
                <mxCell id="37" value="" style="image;html=1;image=img/lib/clip_art/computers/Server_128x128.png" vertex="1" parent="1">
                    <mxGeometry x="933.75" y="847.5" width="80" height="80" as="geometry"/>
                </mxCell>
                <mxCell id="39" value="save doc job" style="ellipse;whiteSpace=wrap;html=1;" vertex="1" parent="1">
                    <mxGeometry x="850" y="635" width="70" height="35" as="geometry"/>
                </mxCell>
                <mxCell id="49" style="rounded=0;orthogonalLoop=1;jettySize=auto;html=1;entryX=0.5;entryY=0;entryDx=0;entryDy=0;" edge="1" parent="1" source="40" target="38">
                    <mxGeometry relative="1" as="geometry"/>
                </mxCell>
                <mxCell id="40" value="save doc job" style="ellipse;whiteSpace=wrap;html=1;" vertex="1" parent="1">
                    <mxGeometry x="850" y="675" width="70" height="35" as="geometry"/>
                </mxCell>
                <mxCell id="42" value="" style="group" vertex="1" connectable="0" parent="1">
                    <mxGeometry x="130" y="520" width="100" height="145" as="geometry"/>
                </mxCell>
                <mxCell id="5" value="" style="fontColor=#0066CC;verticalAlign=top;verticalLabelPosition=bottom;labelPosition=center;align=center;html=1;outlineConnect=0;fillColor=#CCCCCC;strokeColor=#6881B3;gradientColor=none;gradientDirection=north;strokeWidth=2;shape=mxgraph.networks.nas_filer;" parent="42" vertex="1">
                    <mxGeometry y="110" width="100" height="35" as="geometry"/>
                </mxCell>
                <mxCell id="6" value="" style="fontColor=#0066CC;verticalAlign=top;verticalLabelPosition=bottom;labelPosition=center;align=center;html=1;outlineConnect=0;fillColor=#CCCCCC;strokeColor=#6881B3;gradientColor=none;gradientDirection=north;strokeWidth=2;shape=mxgraph.networks.nas_filer;" parent="42" vertex="1">
                    <mxGeometry y="90" width="100" height="35" as="geometry"/>
                </mxCell>
                <mxCell id="7" value="" style="fontColor=#0066CC;verticalAlign=top;verticalLabelPosition=bottom;labelPosition=center;align=center;html=1;outlineConnect=0;fillColor=#CCCCCC;strokeColor=#6881B3;gradientColor=none;gradientDirection=north;strokeWidth=2;shape=mxgraph.networks.nas_filer;" parent="42" vertex="1">
                    <mxGeometry y="75" width="100" height="35" as="geometry"/>
                </mxCell>
                <mxCell id="8" value="" style="fontColor=#0066CC;verticalAlign=top;verticalLabelPosition=bottom;labelPosition=center;align=center;html=1;outlineConnect=0;fillColor=#CCCCCC;strokeColor=#6881B3;gradientColor=none;gradientDirection=north;strokeWidth=2;shape=mxgraph.networks.nas_filer;" parent="42" vertex="1">
                    <mxGeometry y="55" width="100" height="35" as="geometry"/>
                </mxCell>
                <mxCell id="9" value="" style="fontColor=#0066CC;verticalAlign=top;verticalLabelPosition=bottom;labelPosition=center;align=center;html=1;outlineConnect=0;fillColor=#CCCCCC;strokeColor=#6881B3;gradientColor=none;gradientDirection=north;strokeWidth=2;shape=mxgraph.networks.nas_filer;" parent="42" vertex="1">
                    <mxGeometry y="40" width="100" height="35" as="geometry"/>
                </mxCell>
                <mxCell id="10" value="" style="fontColor=#0066CC;verticalAlign=top;verticalLabelPosition=bottom;labelPosition=center;align=center;html=1;outlineConnect=0;fillColor=#CCCCCC;strokeColor=#6881B3;gradientColor=none;gradientDirection=north;strokeWidth=2;shape=mxgraph.networks.nas_filer;" parent="42" vertex="1">
                    <mxGeometry y="20" width="100" height="35" as="geometry"/>
                </mxCell>
                <mxCell id="11" value="" style="fontColor=#0066CC;verticalAlign=top;verticalLabelPosition=bottom;labelPosition=center;align=center;html=1;outlineConnect=0;fillColor=#CCCCCC;strokeColor=#6881B3;gradientColor=none;gradientDirection=north;strokeWidth=2;shape=mxgraph.networks.nas_filer;" parent="42" vertex="1">
                    <mxGeometry width="100" height="35" as="geometry"/>
                </mxCell>
                <mxCell id="47" value="analyze&lt;br&gt;extract job" style="ellipse;whiteSpace=wrap;html=1;" vertex="1" parent="1">
                    <mxGeometry x="590" y="625" width="80" height="45" as="geometry"/>
                </mxCell>
                <mxCell id="48" value="analyze&lt;br&gt;extract job" style="ellipse;whiteSpace=wrap;html=1;" vertex="1" parent="1">
                    <mxGeometry x="590" y="577.5" width="80" height="45" as="geometry"/>
                </mxCell>
                <mxCell id="50" value="" style="image;html=1;image=img/lib/clip_art/computers/Server_128x128.png" vertex="1" parent="1">
                    <mxGeometry x="798.75" y="910" width="80" height="80" as="geometry"/>
                </mxCell>
                <mxCell id="51" value="" style="image;html=1;image=img/lib/clip_art/computers/Server_128x128.png" vertex="1" parent="1">
                    <mxGeometry x="900" y="910" width="80" height="80" as="geometry"/>
                </mxCell>
                <mxCell id="52" value="" style="shape=flexArrow;endArrow=classic;html=1;endWidth=48;endSize=9.33;width=54;" edge="1" parent="1">
                    <mxGeometry width="50" height="50" relative="1" as="geometry">
                        <mxPoint x="390" y="652" as="sourcePoint"/>
                        <mxPoint x="440" y="652" as="targetPoint"/>
                    </mxGeometry>
                </mxCell>
                <mxCell id="53" value="" style="shape=flexArrow;endArrow=classic;html=1;endWidth=48;endSize=9.33;width=54;" edge="1" parent="1">
                    <mxGeometry width="50" height="50" relative="1" as="geometry">
                        <mxPoint x="534" y="652" as="sourcePoint"/>
                        <mxPoint x="584" y="652" as="targetPoint"/>
                    </mxGeometry>
                </mxCell>
                <mxCell id="54" value="" style="shape=flexArrow;endArrow=classic;html=1;endWidth=48;endSize=9.33;width=54;" edge="1" parent="1">
                    <mxGeometry width="50" height="50" relative="1" as="geometry">
                        <mxPoint x="684" y="647" as="sourcePoint"/>
                        <mxPoint x="734" y="647" as="targetPoint"/>
                    </mxGeometry>
                </mxCell>
                <mxCell id="57" style="edgeStyle=none;rounded=0;orthogonalLoop=1;jettySize=auto;html=1;" edge="1" parent="1" source="56" target="58">
                    <mxGeometry relative="1" as="geometry">
                        <mxPoint x="1210" y="875" as="targetPoint"/>
                    </mxGeometry>
                </mxCell>
                <mxCell id="56" value="" style="fontColor=#0066CC;verticalAlign=top;verticalLabelPosition=bottom;labelPosition=center;align=center;html=1;outlineConnect=0;fillColor=#CCCCCC;strokeColor=#6881B3;gradientColor=none;gradientDirection=north;strokeWidth=2;shape=mxgraph.networks.pc;" vertex="1" parent="1">
                    <mxGeometry x="1270" y="835" width="100" height="70" as="geometry"/>
                </mxCell>
                <mxCell id="62" style="edgeStyle=none;rounded=0;orthogonalLoop=1;jettySize=auto;html=1;entryX=1;entryY=0.5;entryDx=0;entryDy=0;" edge="1" parent="1" source="58" target="21">
                    <mxGeometry relative="1" as="geometry"/>
                </mxCell>
                <mxCell id="63" style="edgeStyle=none;rounded=0;orthogonalLoop=1;jettySize=auto;html=1;" edge="1" parent="1" source="58" target="38">
                    <mxGeometry relative="1" as="geometry"/>
                </mxCell>
                <mxCell id="68" style="edgeStyle=none;rounded=0;orthogonalLoop=1;jettySize=auto;html=1;entryX=1;entryY=0.5;entryDx=0;entryDy=0;exitX=0;exitY=0.5;exitDx=0;exitDy=0;" edge="1" parent="1" source="58" target="66">
                    <mxGeometry relative="1" as="geometry"/>
                </mxCell>
                <mxCell id="69" style="edgeStyle=none;rounded=0;orthogonalLoop=1;jettySize=auto;html=1;entryX=1;entryY=0.5;entryDx=0;entryDy=0;exitX=0;exitY=0.5;exitDx=0;exitDy=0;" edge="1" parent="1" source="58" target="67">
                    <mxGeometry relative="1" as="geometry"/>
                </mxCell>
                <mxCell id="58" value="" style="image;html=1;image=img/lib/clip_art/computers/Server_128x128.png" vertex="1" parent="1">
                    <mxGeometry x="1110" y="830" width="80" height="80" as="geometry"/>
                </mxCell>
                <mxCell id="60" style="edgeStyle=none;rounded=0;orthogonalLoop=1;jettySize=auto;html=1;" edge="1" parent="1" source="59" target="58">
                    <mxGeometry relative="1" as="geometry"/>
                </mxCell>
                <mxCell id="59" value="管理画面" style="text;html=1;strokeColor=none;fillColor=none;align=center;verticalAlign=middle;whiteSpace=wrap;rounded=0;" vertex="1" parent="1">
                    <mxGeometry x="1110" y="910" width="60" height="20" as="geometry"/>
                </mxCell>
                <mxCell id="64" value="検索対象のNASの設定&lt;br&gt;IndexのJob設定&lt;br&gt;検索" style="text;html=1;strokeColor=none;fillColor=none;align=center;verticalAlign=middle;whiteSpace=wrap;rounded=0;" vertex="1" parent="1">
                    <mxGeometry x="1235" y="910" width="170" height="50" as="geometry"/>
                </mxCell>
                <mxCell id="66" value="旧バージョンの検索システム" style="rounded=1;whiteSpace=wrap;html=1;" vertex="1" parent="1">
                    <mxGeometry x="933.75" y="1000" width="120" height="60" as="geometry"/>
                </mxCell>
                <mxCell id="67" value="他社の検索システム" style="rounded=1;whiteSpace=wrap;html=1;" vertex="1" parent="1">
                    <mxGeometry x="933.75" y="1070" width="120" height="60" as="geometry"/>
                </mxCell>
                <mxCell id="70" value="最も携わった部分&lt;br&gt;&lt;br&gt;製品の検索クエリを&lt;br&gt;他のシステム検索エンジンのクエリと&lt;br&gt;旧システムの検索クエリを生成する処理" style="shape=callout;whiteSpace=wrap;html=1;perimeter=calloutPerimeter;direction=south;" vertex="1" parent="1">
                    <mxGeometry x="1110" y="970" width="260" height="120" as="geometry"/>
                </mxCell>
            </root>
        </mxGraphModel>
    </diagram>
</mxfile>